<?xml version="1.0" encoding="UTF-8" standalone="no"?>
<svg
   version="1.1"
   width="1.49454in"
   height="2.086031in"
   viewBox="0 0 107.60709 150.19453"
   id="svg206"
   sodipodi:docname="Catálogo 2024 TD Produções.cdr"
   xmlns:inkscape="http://www.inkscape.org/namespaces/inkscape"
   xmlns:sodipodi="http://sodipodi.sourceforge.net/DTD/sodipodi-0.dtd"
   xmlns="http://www.w3.org/2000/svg"
   xmlns:svg="http://www.w3.org/2000/svg">
  <sodipodi:namedview
     id="namedview206"
     pagecolor="#ffffff"
     bordercolor="#000000"
     borderopacity="0.25"
     inkscape:showpageshadow="2"
     inkscape:pageopacity="0.0"
     inkscape:pagecheckerboard="0"
     inkscape:deskcolor="#d1d1d1"
     inkscape:document-units="in" />
  <defs
     id="defs3" />
  <defs
     id="defs6" />
  <defs
     id="defs8" />
  <defs
     id="defs10" />
  <g
     id="Layer1019"
     inkscape:export-filename="design grafico\cafeAvenida.svg"
     inkscape:export-xdpi="96"
     inkscape:export-ydpi="96"
     transform="translate(-999.26586,-165.97107)">
    <path
       d="m 1020.5664,241.7427 c 0,19.3549 15.6896,35.0445 35.0445,35.0445 19.3549,0 35.0445,-15.6896 35.0445,-35.0445 0,-16.2666 -11.0829,-29.9434 -26.11,-33.8939 1.429,-1.9305 2.6908,-4.3423 3.7269,-6.767 17.3302,5.3908 29.9135,21.5566 29.9135,40.6609 0,23.514 -19.0615,42.5749 -42.5749,42.5749 -23.5134,0 -42.5748,-19.0609 -42.5748,-42.5749 v 0 c 0,-23.5139 19.0614,-42.5753 42.5748,-42.5753 0.7329,0 1.4616,0.0186 2.1856,0.0553 -1.034,2.3684 -2.0697,5.1352 -2.4278,7.4782 -19.2431,0.1304 -34.8023,15.7682 -34.8023,35.0418 z"
       style="fill:#6a4807;fill-rule:evenodd"
       id="path140" />
    <path
       d="m 1022.0146,241.7427 c 0,-18.4305 14.8402,-33.3919 33.2232,-33.5922 -0.029,1.8047 0.5393,3.1731 2.123,3.5965 2.2213,0.6174 4.3184,-0.5678 6.18,-2.6571 14.7275,3.5644 25.6665,16.8297 25.6665,32.6528 0,18.5548 -15.0416,33.5964 -33.5964,33.5964 -18.5553,0 -33.5963,-15.0416 -33.5963,-33.5964 z"
       style="fill:#ffcd00;fill-rule:evenodd"
       id="path141" />
    <g
       id="Layer1020">
      <path
         d="m 1072.4137,238.5727 c -0.2774,2.5732 -2.4563,4.5767 -5.1033,4.5767 h -24.3374 c -2.647,0 -4.826,-2.0035 -5.1033,-4.5767 z m -5.9897,-10.5445 v 0 c 0.3012,0.077 0.6168,0.118 0.9418,0.118 2.0937,0 3.7911,-1.6973 3.7911,-3.791 0,-2.0938 -1.6974,-3.791 -3.7911,-3.791 -0.325,0 -0.6406,0.0409 -0.9418,0.1179 z m 0,-10.1715 v 0 c 0.3076,-0.0442 0.6221,-0.067 0.9418,-0.067 3.6262,0 6.5656,2.9394 6.5656,6.5655 0,3.6261 -2.9394,6.5655 -6.5656,6.5655 -0.3197,0 -0.6342,-0.0229 -0.9418,-0.067 v 0.7928 c 0,2.8349 -2.298,5.1331 -5.133,5.1331 h -12.2986 c -2.8349,0 -5.1331,-2.2982 -5.1331,-5.1331 l -10e-5,-16.5907 h 22.5648 z"
         style="fill:#6a4807;fill-rule:evenodd"
         id="path142" />
      <path
         d="m 1074.962,253.1259 c 0,0 -8.2829,-0.2692 -8.8138,0.5279 0.8519,0.6083 1.8355,0.3712 2.7898,0.5037 l 3.1849,0.1062 c 0.9029,0.0531 1.8614,0.1065 2.8393,0.2938 l -7.2447,0.2369 c -0.528,0.1057 -1.0488,0.0227 -1.567,0.345 h 0.032 l -0.032,0.0268 c 0.5182,0.3224 1.039,0.2393 1.567,0.345 l 7.2447,0.237 c -0.9779,0.1873 -1.9364,0.2407 -2.8393,0.2938 l -3.1849,0.1061 c -0.9543,0.1326 -1.9379,-0.1045 -2.7898,0.5037 0.5309,0.7972 8.8138,0.528 8.8138,0.528 -2.0758,0.6794 -11.0183,0.8001 -11.0183,0.8001 -2.5499,-0.186 -2.9061,-2.1503 -5.0167,-2.1503 l -18.5639,1.2742 c -0.8384,0.1321 -3.5482,-0.2957 -3.5774,-1.9376 0.029,-1.6686 2.739,-2.0964 3.5774,-1.9644 l 18.5639,1.2743 c 2.1106,0 2.4668,-1.9644 5.0167,-2.1503 0,0 8.9425,0.1207 11.0183,0.8001 z m -0.2653,-4.9189 v 0 c 0,0.6836 -1.1938,1.1802 -1.665,1.3129 -2.8274,0.8363 -5.8066,1.1161 -8.7143,1.3417 0,0 -4.7002,0.5045 -9.6183,-1.8284 l -14.3559,1.0586 c -1.1018,0 -3.1859,-0.1128 -3.1859,-1.8848 0,-1.8914 2.5421,-1.9379 3.531,-1.9379 1.0885,0 13.4865,1.1416 13.4865,1.1416 1.2146,0.0264 2.6881,-0.6107 3.6571,-0.6107 h 11.376 c 0.3384,0 5.4888,0.2257 5.4888,1.407 z m 0.3187,15.117 v 0 l -7e-4,0.0527 7e-4,0.0529 c 0,3.524 -8.7145,4.1147 -9.6637,4.1147 -2.084,0 -3.5178,-0.6396 -5.8249,-3.2664 h -4.7138 c -5.2889,0.386 -9.1534,1.0895 -13.4876,1.0895 -0.7764,0 -4.5397,0.0863 -4.5397,-1.9113 v -0.0794 -0.0793 c 0,-1.9976 3.7633,-1.9114 4.5397,-1.9114 4.3342,0 8.1987,0.7036 13.4876,1.0896 h 4.7138 c 2.3071,-2.6268 3.7409,-3.2664 5.8249,-3.2664 0.9492,0 9.6637,0.5906 9.6637,4.1148 z"
         style="fill:#6a4807;fill-rule:evenodd"
         id="path143" />
    </g>
    <path
       d="m 1092.1656,186.7275 c -0.2096,-0.147 -0.4187,-0.1853 -0.6262,-0.1144 -0.2081,0.0709 -0.3582,0.2122 -0.4508,0.4254 -0.3085,0.691 -0.722,1.4378 -1.2401,2.2405 -0.518,0.8027 -1.1044,1.6086 -1.7591,2.418 -0.6547,0.809 -1.3477,1.5755 -2.0796,2.299 -0.7318,0.7235 -1.4719,1.3513 -2.2208,1.8834 -0.7489,0.532 -1.4771,0.9222 -2.184,1.1712 -0.7065,0.2484 -1.3555,0.3028 -1.9471,0.163 -0.4026,-0.1025 -0.6956,-0.3493 -0.8793,-0.7401 -0.1837,-0.3902 -0.2877,-0.8721 -0.3121,-1.4445 -0.024,-0.5729 0.022,-1.2028 0.1398,-1.8906 0.118,-0.6878 0.2903,-1.3793 0.517,-2.0749 1.431,-0.3058 2.7358,-0.8016 3.9142,-1.4884 1.179,-0.6863 2.1924,-1.4632 3.0407,-2.3301 0.8477,-0.8669 1.5138,-1.7638 1.9977,-2.6907 0.4839,-0.9269 0.7463,-1.784 0.7877,-2.5707 0.041,-0.7872 -0.1625,-1.4372 -0.6117,-1.9501 -0.4493,-0.5134 -1.1759,-0.7965 -2.1799,-0.8493 -0.9767,-0.0513 -1.9491,0.075 -2.9175,0.3778 -0.9683,0.3028 -1.9191,0.7975 -2.8532,1.4828 -0.9337,0.6857 -1.8311,1.5842 -2.6918,2.6954 -0.81,1.0449 -1.5646,2.316 -2.2654,3.8112 -0.2898,0.3007 -0.6076,0.5455 -0.9528,0.7339 -1.2338,0.6972 -2.8356,0.899 -4.8065,0.605 l 1.105,-1.6152 c 0.3607,-0.661 0.8265,-1.5009 1.3969,-2.5184 0.5703,-1.0176 1.1717,-2.1086 1.8042,-3.2725 0.6324,-1.164 1.2674,-2.3751 1.9045,-3.6343 0.6371,-1.2592 1.1914,-2.4816 1.6614,-3.6673 0.4704,-1.1863 0.8281,-2.2969 1.0724,-3.3315 0.2448,-1.0346 0.3043,-1.9088 0.1785,-2.623 -0.1475,-0.8239 -0.4772,-1.4057 -0.9901,-1.7457 -0.5129,-0.3395 -1.0413,-0.5103 -1.5852,-0.5113 -0.544,-0.002 -1.0118,0.0962 -1.4031,0.2934 -0.3913,0.1972 -0.5388,0.4208 -0.443,0.6708 0.094,0.2769 -0.025,0.8627 -0.3577,1.7565 -0.3322,0.8939 -0.8198,2.018 -1.4621,3.3719 -0.6422,1.3539 -1.3973,2.9128 -2.2653,4.6766 -0.8679,1.7638 -1.8031,3.6399 -2.8051,5.6279 -0.78,1.5666 -1.5822,3.1648 -2.4066,4.7946 l -0.1532,0.2546 c -0.4166,0.6852 -0.883,1.4093 -1.399,2.1711 -0.5165,0.7624 -1.0728,1.5221 -1.6706,2.2798 -0.5973,0.7577 -1.1707,1.4419 -1.7198,2.0521 -0.5486,0.6107 -1.0512,1.1081 -1.5066,1.4926 -0.4555,0.3841 -0.8059,0.5833 -1.0517,0.5978 -0.6268,0.0218 -0.8917,-0.2437 -0.7944,-0.7965 0.097,-0.5527 0.3938,-1.2856 0.8901,-2.198 0.4969,-0.913 1.1092,-1.9486 1.8363,-3.1074 0.7277,-1.1593 1.415,-2.3342 2.0625,-3.5245 0.6469,-1.1904 1.1629,-2.3399 1.5474,-3.449 0.3851,-1.1091 0.4757,-2.0635 0.2728,-2.8631 -0.2013,-0.8265 -0.5869,-1.3912 -1.1562,-1.6929 -0.5688,-0.3018 -1.1257,-0.4534 -1.6696,-0.4549 -0.544,-0.002 -1.0051,0.0973 -1.3829,0.295 -0.3779,0.1977 -0.4757,0.3829 -0.2945,0.5558 0.1547,0.1713 0.179,0.4787 0.074,0.9223 -0.1046,0.4435 -0.2961,0.9771 -0.5735,1.6023 -0.2774,0.6247 -0.6205,1.3281 -1.0289,2.109 -0.4083,0.781 -0.826,1.6096 -1.2524,2.4853 -0.3882,0.6599 -0.8002,1.3793 -1.2354,2.1593 -0.4358,0.7799 -0.8845,1.5588 -1.3472,2.3372 -0.4622,0.7784 -0.9368,1.5221 -1.4228,2.2312 -0.4859,0.7096 -0.9528,1.311 -1.4005,1.8042 -0.4476,0.4932 -0.8881,0.8514 -1.3213,1.0734 -0.4337,0.222 -0.8358,0.2422 -1.2074,0.059 -0.4782,-0.2153 -0.796,-0.6402 -0.9534,-1.2742 -0.1573,-0.634 -0.2008,-1.3638 -0.1299,-2.1903 0.07,-0.826 0.2448,-1.6877 0.5228,-2.5841 0.2784,-0.897 0.6148,-1.7297 1.0087,-2.4983 0.635,-1.2183 1.2644,-2.3212 1.8875,-3.3087 0.6231,-0.9875 1.2173,-1.8135 1.783,-2.4775 0.5651,-0.6645 1.0879,-1.1676 1.5681,-1.5097 0.4808,-0.3421 0.9104,-0.4896 1.2887,-0.4425 0.2987,0.0155 0.5072,0.1899 0.6258,0.5222 -0.1972,0.1258 -0.3618,0.2805 -0.4938,0.4642 -0.132,0.1833 -0.2039,0.3836 -0.2153,0.6009 -0.019,0.3525 0.096,0.6444 0.3421,0.8747 0.2464,0.2308 0.5326,0.3545 0.8581,0.3716 0.3525,0.0186 0.6439,-0.0885 0.8736,-0.3214 0.2826,-0.2029 0.44,-0.603 0.471,-1.1997 0.028,-0.5429 -0.056,-1.003 -0.2541,-1.3808 -0.1977,-0.3773 -0.4472,-0.6832 -0.7479,-0.9166 -0.3007,-0.2334 -0.6314,-0.4073 -0.9926,-0.5212 -0.3618,-0.1144 -0.7044,-0.1935 -1.0284,-0.2375 -0.9756,-0.0782 -1.9465,0.0201 -2.9133,0.296 -0.9668,0.2759 -1.9175,0.7634 -2.8517,1.4626 -0.9347,0.6992 -1.8332,1.6184 -2.6954,2.7565 -0.8623,1.1386 -1.6624,2.5179 -2.4004,4.1388 l -0.032,0.0699 c -0.8524,1.415 -1.7333,2.7803 -2.6421,4.0959 -1.1334,1.6412 -2.2886,3.1721 -3.465,4.5933 -1.1764,1.4212 -2.3595,2.713 -3.5499,3.8749 -1.1899,1.1619 -2.3512,2.1623 -3.4831,3.0008 -1.4994,1.091 -2.8911,1.8207 -4.1756,2.1887 -1.2846,0.368 -2.4377,0.4368 -3.4599,0.2065 -1.0216,-0.2303 -1.8927,-0.7385 -2.6136,-1.5247 -0.7204,-0.7856 -1.2468,-1.7793 -1.578,-2.9801 -0.3318,-1.2012 -0.457,-2.5748 -0.3763,-4.1212 0.081,-1.547 0.413,-3.2026 0.9953,-4.968 0.2924,-0.9094 0.6806,-1.9502 1.1634,-3.1224 0.4834,-1.1717 1.0367,-2.3875 1.6603,-3.6472 0.6242,-1.2597 1.3229,-2.5288 2.0977,-3.8076 0.7742,-1.2794 1.5987,-2.4672 2.4723,-3.5644 1.165,-1.4621 2.3197,-2.7353 3.465,-3.8175 1.1454,-1.0827 2.2032,-1.932 3.1742,-2.5479 0.9709,-0.6159 1.7985,-0.9668 2.4837,-1.0532 0.6847,-0.0864 1.1624,0.1356 1.4341,0.6666 0.293,0.6413 0.4006,1.4429 0.323,2.4046 -0.078,0.9616 -0.3064,1.9496 -0.6858,2.964 -0.3798,1.0139 -0.886,1.9801 -1.5195,2.8993 -0.633,0.9192 -1.3451,1.6572 -2.1364,2.2146 -0.4239,0.3038 -0.5248,0.6728 -0.3028,1.106 0.2225,0.4337 0.59,0.8203 1.1024,1.1599 0.5129,0.34 1.0791,0.5734 1.6981,0.7012 0.6189,0.1279 1.1267,0.0388 1.5236,-0.267 1.2499,-0.9958 2.1769,-2.2053 2.7819,-3.6291 0.6055,-1.4243 0.9455,-2.8481 1.0201,-4.2729 0.074,-1.4243 -0.087,-2.7658 -0.4829,-4.0245 -0.397,-1.2592 -0.958,-2.2337 -1.6836,-2.9252 -0.9326,-0.8923 -1.9646,-1.4497 -3.0955,-1.6722 -1.1308,-0.2226 -2.2524,-0.2401 -3.3641,-0.0538 -1.1117,0.1868 -2.1488,0.4994 -3.1105,0.9388 -0.9616,0.4394 -1.74,0.8886 -2.3357,1.3472 -1.813,1.3741 -3.4396,2.8191 -4.8795,4.3355 -1.4403,1.5159 -2.7425,3.1348 -3.9075,4.8557 -1.165,1.7214 -2.2078,3.5846 -3.1296,5.5906 -0.9212,2.006 -1.7835,4.1849 -2.5872,6.5372 -0.4524,1.3637 -0.765,2.7896 -0.9384,4.2765 -0.1728,1.4875 -0.1464,2.9242 0.08,4.3102 0.2266,1.386 0.6759,2.6814 1.3471,3.8863 0.6718,1.2054 1.6122,2.2068 2.8217,3.0049 0.6816,0.4984 1.4373,0.8778 2.2669,1.1391 0.8296,0.2609 1.6789,0.4146 2.5469,0.4601 0.7328,0.0383 1.4895,0.01 2.27,-0.0854 0.7804,-0.0952 1.5309,-0.2732 2.2518,-0.5351 2.0464,-0.6273 4.1441,-1.7141 6.2929,-3.2611 2.2918,-1.6758 4.554,-3.8294 6.7872,-6.4601 0.6081,-0.7028 1.2339,-1.4791 1.8772,-2.33 0.6428,-0.8503 1.2882,-1.7416 1.9356,-2.6737 l 0.2174,-0.3136 c -0.016,0.2738 -0.02,0.545 -0.012,0.8141 0.03,0.9947 0.2598,1.9248 0.6904,2.7912 0.4306,0.8658 1.1774,1.5443 2.24,2.0355 0.8757,0.4265 1.6887,0.619 2.4392,0.5765 0.7499,-0.0424 1.4683,-0.2494 2.1546,-0.6215 0.6862,-0.3722 1.3321,-0.8892 1.9382,-1.5511 0.606,-0.6625 1.1888,-1.4005 1.7483,-2.2146 -0.2081,1.3766 -0.078,2.5261 0.3907,3.4489 0.4689,0.9223 1.2199,1.3834 2.254,1.3834 0.651,0.0342 1.3425,-0.1749 2.0733,-0.6262 0.7313,-0.4513 1.4626,-1.0387 2.1944,-1.7623 0.3271,-0.3234 0.6516,-0.6635 0.972,-1.0201 l -0.081,0.1688 c -0.9766,2.0169 -1.8523,3.9365 -2.6281,5.7598 -0.7758,1.8228 -1.3576,3.4453 -1.7447,4.8671 -0.3876,1.4217 -0.5377,2.5975 -0.4503,3.5271 0.088,0.9295 0.5202,1.4962 1.2986,1.7006 0.9652,0.2681 1.948,0.0818 2.9474,-0.5599 0.9994,-0.6413 1.9522,-1.5574 2.858,-2.7477 0.9057,-1.1904 1.7607,-2.5811 2.5655,-4.1715 0.8042,-1.5899 1.5066,-3.186 2.1074,-4.7868 0.6009,-1.6008 1.0822,-3.1266 1.444,-4.5767 0.3618,-1.4502 0.5672,-2.6504 0.6174,-3.6001 0.8126,0.0698 1.6857,0.0207 2.6199,-0.1481 0.6014,-0.1086 1.1717,-0.281 1.7121,-0.517 -0.1351,0.3918 -0.2624,0.7986 -0.3815,1.2194 -0.3002,1.0589 -0.4363,2.0924 -0.4073,3.1006 0.029,1.0082 0.2588,1.9382 0.6904,2.7907 0.4311,0.8529 1.1785,1.5241 2.241,2.0153 0.9554,0.4586 1.9393,0.6324 2.9521,0.5222 1.0124,-0.1102 2.0143,-0.4114 3.006,-0.9036 0.9916,-0.4922 1.9579,-1.1423 2.8977,-1.9502 0.9404,-0.8074 1.8374,-1.6991 2.6913,-2.6747 0.854,-0.9756 1.6277,-1.9822 2.3212,-3.0209 0.6941,-1.0382 1.297,-2.034 1.8099,-2.9863 0.1827,-0.3716 0.1165,-0.6744 -0.1977,-0.9083 z m -32.9442,22.3525 v 0 c 0.3126,0.2609 0.7768,0.1015 1.3922,-0.4782 0.6153,-0.5802 1.2985,-1.4217 2.0505,-2.5251 0.7515,-1.1029 1.5056,-2.3833 2.2622,-3.8397 0.7567,-1.4569 1.4316,-2.918 2.0252,-4.3832 0.5942,-1.4657 1.0548,-2.8631 1.3829,-4.1927 0.3281,-1.3296 0.4332,-2.419 0.3142,-3.2688 -0.6335,1.1914 -1.3395,2.4604 -2.1173,3.8071 -0.7784,1.3467 -1.5563,2.7001 -2.3352,4.0607 -0.7789,1.3606 -1.5139,2.6685 -2.2053,3.9246 -0.692,1.2561 -1.281,2.375 -1.768,3.3563 -0.4865,0.9808 -0.8286,1.7928 -1.0252,2.4356 -0.1972,0.6428 -0.1895,1.0103 0.024,1.1034 z m 20.8847,-20.4132 v 0 c 1.2447,-2.4651 2.461,-4.3878 3.6488,-5.7676 1.1878,-1.3798 2.1473,-2.0366 2.8786,-1.9714 0.487,0.0528 0.7054,0.4316 0.6547,1.1365 -0.051,0.7044 -0.3587,1.5253 -0.9249,2.4615 -0.5662,0.9358 -1.3974,1.872 -2.494,2.8077 -1.0962,0.9353 -2.4734,1.6453 -4.1317,2.1298 0.094,-0.2397 0.2169,-0.5057 0.3685,-0.7965 z"
       style="fill:#6a4807;fill-rule:evenodd"
       id="path144" />
    <path
       d="m 1029.1511,295.8093 c -0.2184,0.0228 -0.457,0.0306 -0.7179,0.0238 -0.7763,-0.0196 -1.801,-0.1692 -3.0747,-0.4476 h -0.03 c -0.6764,1.6913 -1.313,3.3682 -1.9102,5.03 -0.5973,1.6619 -1.0947,3.2689 -1.4927,4.821 -0.1195,0.4777 -0.2241,1.0646 -0.3136,1.7613 -0.09,0.6966 -0.1289,1.4227 -0.119,2.1789 0.01,0.7566 0.075,1.4978 0.194,2.2239 0.1191,0.7266 0.3282,1.3684 0.6268,1.9258 0.2986,0.5569 0.6914,0.9849 1.179,1.2835 0.4875,0.2986 1.0998,0.3882 1.8357,0.2686 0.1993,-0.0196 0.3587,0.005 0.4777,0.0746 0.1196,0.0698 0.1941,0.1594 0.2241,0.2686 0.03,0.1097 0.01,0.2241 -0.059,0.3436 -0.07,0.1191 -0.1941,0.2086 -0.3731,0.2686 -1.0548,0.3385 -2.0997,0.4177 -3.1348,0.2386 -1.0346,-0.1791 -1.9554,-0.5672 -2.7612,-1.164 -0.8058,-0.5972 -1.4528,-1.373 -1.9403,-2.3284 -0.4875,-0.9554 -0.7116,-2.0402 -0.6718,-3.2539 0,-1.3135 0.2391,-2.9153 0.7163,-4.806 0.4379,-1.6121 0.9704,-3.274 1.5972,-4.9855 0.6267,-1.7116 1.2887,-3.433 1.9853,-5.1642 -0.8162,-0.2189 -1.6318,-0.4528 -2.448,-0.7018 -0.8157,-0.2484 -1.622,-0.4922 -2.418,-0.7313 -0.6366,1.1148 -1.2985,2.1893 -1.9848,3.2244 -0.6868,1.0346 -1.4083,1.9998 -2.1644,2.8952 -2.2488,2.5872 -4.6269,3.8909 -7.1345,3.9106 h -0.06 c -2.0097,0 -3.5623,-0.7261 -4.6564,-2.1789 -0.4777,-0.6371 -0.8214,-1.3684 -1.03,-2.1944 -0.209,-0.8255 -0.2737,-1.7162 -0.194,-2.6716 0.0791,-1.0346 0.3229,-2.0449 0.7313,-3.0298 0.4078,-0.9854 0.9502,-1.8658 1.6266,-2.6421 0.7168,-0.8358 1.5724,-1.4926 2.5676,-1.9703 0.9947,-0.517 2.1292,-0.796 3.4029,-0.8358 1.3731,-0.0596 2.4579,0.2189 3.2539,0.8358 0.6966,0.5574 1.0946,1.284 1.1939,2.1794 v 0.0895 c 0.6568,0.1595 1.2939,0.3085 1.9109,0.4477 0.6169,0.1392 1.2835,0.3183 1.9998,0.5372 0.8358,-1.4325 1.6768,-2.8755 2.5225,-4.3282 0.8457,-1.4528 1.7266,-2.7167 2.6416,-3.7911 0.458,-0.5372 0.9005,-1.0051 1.3286,-1.4031 0.428,-0.398 0.8705,-0.7365 1.3285,-1.0149 1.0346,-0.6371 2.0894,-0.9554 3.1643,-0.9554 0.8555,0 1.4828,0.2986 1.8803,0.8954 0.3188,0.4978 0.4632,1.1696 0.4332,2.0153 -0.03,0.8457 -0.2438,1.9553 -0.6418,3.3284 -0.3385,1.1541 -0.7613,2.403 -1.269,3.7465 -0.5072,1.3431 -1.0496,2.7513 -1.6267,4.2238 0.5372,0.0993 1.0149,0.1842 1.4326,0.2536 0.4182,0.0698 0.7965,0.1149 1.1345,0.1345 0.458,0.0399 0.781,0.0347 0.9704,-0.015 0.1553,-0.0409 0.2733,-0.0786 0.355,-0.1123 l 0.085,-0.2158 c 0.3385,-0.8462 0.6371,-1.6122 0.8959,-2.299 0.2588,-0.6862 0.4523,-1.2731 0.5817,-1.7612 0.1294,-0.4875 0.1149,-0.8006 -0.044,-0.9399 -0.1392,-0.1195 -0.074,-0.2587 0.1941,-0.4181 0.2686,-0.1595 0.6019,-0.249 0.9999,-0.2687 0.398,-0.0201 0.811,0.0699 1.239,0.2687 0.4275,0.1992 0.7313,0.5972 0.9104,1.1939 0.1791,0.5771 0.1491,1.2836 -0.09,2.1194 -0.2391,0.8359 -0.5673,1.7069 -0.9854,2.6121 -0.4177,0.9057 -0.8607,1.8063 -1.3281,2.7016 -0.4679,0.8954 -0.8358,1.7017 -1.1044,2.418 -0.2692,0.7163 -0.3784,1.2939 -0.3287,1.7318 0.05,0.4373 0.383,0.6562 0.9999,0.6562 0.5973,0 1.1692,-0.3033 1.7167,-0.9104 0.5471,-0.607 1.0548,-1.373 1.5227,-2.2984 0.4673,-0.9254 0.8803,-1.9305 1.2385,-3.0153 0.3581,-1.0842 0.6568,-2.1095 0.8959,-3.0742 0.2386,-0.9653 0.398,-1.7964 0.4771,-2.4931 0.08,-0.6966 0.08,-1.1044 0,-1.2235 -0.079,-0.1195 0.01,-0.2587 0.2692,-0.4181 0.2582,-0.1595 0.577,-0.249 0.9549,-0.2687 0.3783,-0.0201 0.7561,0.0699 1.1344,0.2687 0.3784,0.1992 0.647,0.5972 0.8059,1.1939 0.1397,0.5771 0.1345,1.3136 -0.015,2.209 -0.1491,0.8958 -0.4125,1.8409 -0.7909,2.8361 -0.3783,0.9948 -0.8658,1.9952 -1.4626,2.9998 -0.5972,1.0051 -1.269,1.9108 -2.0153,2.7166 -0.7458,0.8063 -1.5568,1.4528 -2.4325,1.9408 -0.8757,0.4876 -1.7913,0.7313 -2.7467,0.7313 -0.9554,0 -1.6716,-0.1894 -2.1494,-0.5682 -0.4771,-0.3784 -0.7809,-0.8763 -0.9103,-1.4927 -0.1294,-0.6164 -0.1242,-1.3275 0.015,-2.1333 0.1392,-0.8064 0.3483,-1.6319 0.6267,-2.4781 0.1129,-0.341 0.2298,-0.6826 0.352,-1.0237 z m 68.6439,-4.8717 c 0,-0.1594 0.045,-0.3085 0.1341,-0.4477 0.09,-0.1392 0.2044,-0.2587 0.3436,-0.3586 -0.1,-0.2386 -0.2588,-0.3582 -0.4777,-0.3582 -0.2784,-0.0196 -0.5869,0.1046 -0.9254,0.3732 -0.3384,0.2691 -0.7012,0.6567 -1.0894,1.1645 -0.3882,0.5072 -0.7913,1.1344 -1.209,1.8807 -0.4182,0.7464 -0.8359,1.577 -1.254,2.4926 -0.2588,0.577 -0.4726,1.1986 -0.6418,1.8658 -0.1692,0.6666 -0.2634,1.3031 -0.2836,1.9102 -0.02,0.6071 0.04,1.1397 0.1791,1.5972 0.1392,0.4575 0.3881,0.7561 0.7463,0.8954 0.2784,0.1195 0.5724,0.0895 0.8808,-0.0896 0.3085,-0.179 0.617,-0.4575 0.9254,-0.8358 0.3085,-0.3778 0.6268,-0.8359 0.9549,-1.3731 0.3286,-0.5372 0.6469,-1.0998 0.9554,-1.6867 0.3085,-0.5869 0.6071,-1.1743 0.8954,-1.7612 0.2888,-0.5869 0.5625,-1.1293 0.8213,-1.6267 0.2785,-0.6568 0.5523,-1.2788 0.8209,-1.8658 0.2686,-0.5874 0.4927,-1.1148 0.6717,-1.5821 0.1791,-0.4679 0.2982,-0.8659 0.3582,-1.194 0.059,-0.3286 0.029,-0.5522 -0.09,-0.6718 -0.1393,-0.1195 -0.075,-0.2588 0.194,-0.4182 0.2686,-0.1589 0.6019,-0.2484 0.9999,-0.2686 0.398,-0.0196 0.811,0.0699 1.2391,0.2686 0.4275,0.1993 0.7313,0.5973 0.9103,1.1945 0.1791,0.5771 0.1491,1.2784 -0.09,2.1044 -0.2391,0.826 -0.5724,1.6867 -1.0004,2.5821 -0.4275,0.8953 -0.8856,1.7809 -1.3731,2.6566 -0.4875,0.8757 -0.8954,1.6572 -1.224,2.3434 -0.3281,0.6868 -0.517,1.2339 -0.5672,1.6417 -0.05,0.4084 0.1547,0.5926 0.6122,0.5528 0.1791,-0.0202 0.428,-0.1796 0.7463,-0.4777 0.3183,-0.2987 0.6666,-0.6817 1.045,-1.1495 0.3778,-0.4679 0.7711,-0.9901 1.179,-1.5672 0.4078,-0.577 0.7861,-1.1541 1.1344,-1.7312 0.3483,-0.5776 0.6615,-1.1246 0.9404,-1.6422 0.2785,-0.5175 0.4777,-0.945 0.5968,-1.2835 0.06,-0.1594 0.1594,-0.2588 0.2986,-0.2986 0.1392,-0.0399 0.2686,-0.0399 0.3882,0 0.1195,0.0398 0.2137,0.1195 0.2836,0.2391 0.069,0.119 0.065,0.2484 -0.015,0.3876 -0.1594,0.3385 -0.3882,0.8012 -0.6868,1.3886 -0.2987,0.5869 -0.6516,1.2137 -1.0595,1.8803 -0.4083,0.6671 -0.8508,1.3384 -1.3285,2.0153 -0.4777,0.6765 -0.9704,1.2934 -1.4776,1.8508 -0.5077,0.5569 -1.0201,1.0149 -1.5377,1.3731 -0.517,0.3581 -1.0149,0.5372 -1.4926,0.5372 -0.7561,0.0398 -1.3234,-0.2686 -1.7012,-0.9254 -0.3783,-0.6568 -0.5175,-1.4926 -0.4182,-2.5075 -0.3778,0.6169 -0.7758,1.1789 -1.194,1.6867 -0.4176,0.5077 -0.8705,0.9103 -1.358,1.209 -0.4876,0.2986 -1.0051,0.4777 -1.5522,0.5372 -0.5475,0.06 -1.1494,-0.0497 -1.8062,-0.3281 -0.796,-0.3189 -1.3684,-0.7862 -1.7162,-1.4031 -0.3483,-0.6169 -0.5528,-1.2887 -0.6123,-2.0154 -0.028,-0.3498 -0.03,-0.7069 0,-1.0703 -0.2303,0.3504 -0.4699,0.7023 -0.7194,1.0558 -0.4777,0.6765 -0.9704,1.2934 -1.4776,1.8508 -0.5077,0.5569 -1.0201,1.0149 -1.5376,1.3731 -0.5176,0.3581 -1.015,0.5372 -1.4927,0.5372 -0.7561,0.0398 -1.3182,-0.2634 -1.6867,-0.9104 -0.3679,-0.6469 -0.5123,-1.4678 -0.4326,-2.463 -0.3784,0.6169 -0.7764,1.1697 -1.194,1.6572 -0.4182,0.4875 -0.8659,0.8803 -1.3436,1.179 -0.4777,0.2986 -0.9947,0.4777 -1.5521,0.5372 -0.5574,0.06 -1.1542,-0.0497 -1.7913,-0.3281 -0.796,-0.3189 -1.3679,-0.7862 -1.7162,-1.4031 -0.3483,-0.6169 -0.5522,-1.2887 -0.6122,-2.0154 -0.03,-0.3674 -0.029,-0.7432 0,-1.1262 -0.2412,0.369 -0.4938,0.7396 -0.7561,1.1117 -0.4777,0.6765 -0.9699,1.2934 -1.4777,1.8508 -0.5077,0.5569 -1.0201,1.0149 -1.5371,1.3731 -0.5175,0.3581 -1.0149,0.5372 -1.4926,0.5372 -0.398,0.0202 -0.7417,-0.0595 -1.0299,-0.2386 -0.2888,-0.1791 -0.5228,-0.4327 -0.7018,-0.7613 -0.1791,-0.3287 -0.2987,-0.7267 -0.3582,-1.194 -0.059,-0.4679 -0.059,-0.9704 0,-1.5076 0.02,-0.1657 0.045,-0.3333 0.075,-0.5041 l -0.3089,0.4445 c -0.4772,0.6765 -0.9699,1.2934 -1.4776,1.8508 -0.5072,0.5569 -1.0196,1.0149 -1.5372,1.3731 -0.5175,0.3581 -1.0149,0.5372 -1.4926,0.5372 -0.398,0.0202 -0.7365,-0.0745 -1.0149,-0.2836 -0.2785,-0.2086 -0.5077,-0.4927 -0.6868,-0.8509 -0.1791,-0.3581 -0.3033,-0.7608 -0.3732,-1.209 -0.069,-0.4477 -0.074,-0.9005 -0.015,-1.358 0.1,-0.8162 0.2888,-1.6221 0.5673,-2.418 0.2789,-0.796 0.5822,-1.5574 0.9109,-2.2835 0.3281,-0.7266 0.6516,-1.3932 0.9699,-2.0003 0.3182,-0.6071 0.5574,-1.1345 0.7162,-1.5822 0.1594,-0.4477 0.2143,-0.7908 0.1646,-1.0299 -0.05,-0.2386 -0.2836,-0.3483 -0.7018,-0.3281 -0.2189,0.0196 -0.5274,0.194 -0.9254,0.5222 -0.398,0.3286 -0.8306,0.7463 -1.2985,1.254 -0.4673,0.5072 -0.9404,1.0646 -1.4181,1.6717 -0.4772,0.6066 -0.9052,1.1888 -1.2835,1.7462 -0.3778,0.7758 -0.7712,1.5475 -1.179,2.3135 -0.4078,0.7659 -0.7712,1.4874 -1.0894,2.1644 -0.3189,0.6764 -0.5523,1.2737 -0.7018,1.7907 -0.1491,0.5176 -0.1543,0.9156 -0.015,1.1945 0.08,0.1589 0.015,0.323 -0.194,0.4922 -0.2086,0.1692 -0.4772,0.2588 -0.8059,0.2686 -0.3281,0.0104 -0.6666,-0.0942 -1.0149,-0.3131 -0.3483,-0.2189 -0.6117,-0.6268 -0.7908,-1.224 -0.1594,-0.4777 -0.1496,-1.1045 0.029,-1.8808 0.06,-0.2588 0.1289,-0.5238 0.206,-0.795 -0.5176,0.6335 -1.06,1.2215 -1.6293,1.7654 -0.6567,0.6268 -1.3384,1.1391 -2.0448,1.5371 -0.7065,0.398 -1.4279,0.6568 -2.1644,0.7764 -0.7365,0.1195 -1.4626,0.0295 -2.1794,-0.2686 -0.796,-0.3189 -1.3679,-0.781 -1.7162,-1.3881 -0.3483,-0.6071 -0.5523,-1.2789 -0.6118,-2.0154 -0.06,-0.7359 0,-1.4972 0.1791,-2.2834 0.1791,-0.7862 0.398,-1.5076 0.6568,-2.1644 0.4777,-1.2137 1.0097,-2.2436 1.5966,-3.0898 0.5874,-0.8457 1.209,-1.5371 1.8658,-2.0743 0.6568,-0.5373 1.3337,-0.9353 2.0298,-1.194 0.6966,-0.2588 1.4031,-0.3882 2.1199,-0.3882 0.736,0 1.2784,0.1791 1.6267,0.5372 0.3483,0.3582 0.5227,0.826 0.5227,1.4031 0,0.5771 -0.1594,1.2142 -0.4777,1.9103 -0.3188,0.6966 -0.7711,1.3782 -1.3586,2.0448 -0.5869,0.6666 -1.2985,1.2737 -2.1343,1.8213 -0.8359,0.5471 -1.7711,0.9601 -2.8062,1.2385 -0.1392,0.5176 -0.2386,1.0299 -0.2981,1.5377 -0.06,0.5072 -0.07,0.9698 -0.03,1.388 0.04,0.4177 0.134,0.766 0.2836,1.045 0.149,0.2784 0.3731,0.4476 0.6718,0.5072 0.4378,0.0797 0.9103,0.015 1.4175,-0.1941 0.5078,-0.2086 1.0253,-0.5222 1.5527,-0.9404 0.5274,-0.4177 1.0444,-0.9052 1.5521,-1.4626 0.5077,-0.5569 0.9849,-1.1443 1.4331,-1.7612 0.4477,-0.617 0.8457,-1.2287 1.194,-1.8358 0.1387,-0.2417 0.2655,-0.4767 0.3804,-0.7039 l 0.073,-0.162 0.3571,-0.7939 0.01,-0.0269 c 0.012,-0.0326 0.026,-0.0637 0.042,-0.0921 0.2593,-0.5792 0.5005,-1.1257 0.7246,-1.6391 0.3379,-0.7763 0.5869,-1.4429 0.7458,-2.0003 0.1594,-0.5569 0.1594,-0.9151 0,-1.0745 -0.1393,-0.1195 -0.075,-0.2588 0.194,-0.4182 0.2687,-0.1589 0.6071,-0.2484 1.015,-0.2686 0.4083,-0.0196 0.8213,0.0699 1.239,0.2686 0.4182,0.1993 0.7163,0.5973 0.8953,1.1945 0.08,0.2583 0.1098,0.5419 0.09,0.8504 -0.02,0.3084 -0.069,0.6319 -0.1491,0.9704 0.3784,-0.4379 0.7613,-0.856 1.1495,-1.254 0.3882,-0.398 0.781,-0.7463 1.179,-1.0445 0.398,-0.2986 0.7862,-0.5377 1.1645,-0.7168 0.3778,-0.179 0.7463,-0.2686 1.1044,-0.2686 0.7759,-0.0196 1.3529,0.3183 1.7313,1.0149 0.3783,0.6967 0.4973,1.592 0.3581,2.6867 -0.04,0.6769 -0.1889,1.388 -0.4477,2.1343 -0.2588,0.7464 -0.5522,1.4777 -0.8809,2.1945 -0.3281,0.7163 -0.6567,1.3979 -0.9849,2.0448 -0.3281,0.6464 -0.5822,1.209 -0.7613,1.6867 -0.179,0.4772 -0.2536,0.8607 -0.2236,1.149 0.029,0.2888 0.2438,0.4332 0.6418,0.4332 0.1791,0 0.4275,-0.1444 0.7463,-0.4332 0.3183,-0.2883 0.6666,-0.6666 1.0444,-1.1345 0.3784,-0.4673 0.7712,-0.9947 1.1795,-1.5822 0.4079,-0.5869 0.7909,-1.1691 1.149,-1.7462 0.3514,-0.5651 0.6635,-1.106 0.9378,-1.6235 0.2929,-0.7215 0.5911,-1.4192 0.8938,-2.093 0.3085,-0.6863 0.5771,-1.3084 0.8058,-1.8658 0.2288,-0.5569 0.3882,-1.0247 0.4777,-1.4026 0.09,-0.3783 0.065,-0.6371 -0.074,-0.7763 -0.1392,-0.1195 -0.075,-0.2588 0.1941,-0.4182 0.2686,-0.1589 0.6019,-0.2484 0.9999,-0.2686 0.398,-0.0196 0.811,0.0699 1.239,0.2686 0.4275,0.1993 0.7313,0.5973 0.9104,1.1945 0.1791,0.5771 0.1491,1.2784 -0.09,2.1044 -0.2391,0.826 -0.5724,1.6867 -0.9999,2.5821 -0.4281,0.8953 -0.8861,1.7809 -1.3736,2.6566 -0.4876,0.8757 -0.8954,1.6572 -1.224,2.3434 -0.3282,0.6868 -0.5171,1.2339 -0.5668,1.6417 -0.05,0.4084 0.1543,0.5926 0.6118,0.5528 0.1992,-0.0202 0.4529,-0.1796 0.7613,-0.4777 0.3085,-0.2987 0.6516,-0.6817 1.0299,-1.1495 0.3779,-0.4679 0.766,-0.9901 1.164,-1.5672 0.398,-0.577 0.7763,-1.1541 1.1345,-1.7312 0.3581,-0.5776 0.6764,-1.1246 0.9554,-1.6422 l 0.1314,-0.2489 c 0.4612,-1.1454 0.973,-2.1323 1.5341,-2.9599 0.5869,-0.8659 1.209,-1.5723 1.8657,-2.1194 0.6568,-0.5475 1.3333,-0.9404 2.0299,-1.1795 0.6966,-0.2386 1.4031,-0.3478 2.1194,-0.3281 0.2391,0.0197 0.4927,0.0647 0.7613,0.1341 0.2686,0.0698 0.5175,0.1842 0.7463,0.3436 0.2287,0.1589 0.4228,0.3732 0.5822,0.6418 0.1594,0.2686 0.2386,0.6019 0.2386,0.9999 0,0.398 -0.09,0.6868 -0.2686,0.8658 -0.1589,0.1988 -0.3778,0.2982 -0.6568,0.2982 -0.2385,0 -0.4523,-0.0792 -0.6417,-0.2386 -0.1889,-0.1589 -0.2836,-0.368 -0.2836,-0.6268 0,-0.1594 0.045,-0.3085 0.1345,-0.4477 0.09,-0.1392 0.2039,-0.2587 0.3432,-0.3586 -0.099,-0.2386 -0.2588,-0.3582 -0.4777,-0.3582 -0.2785,-0.0196 -0.5869,0.1046 -0.9254,0.3732 -0.338,0.2691 -0.7013,0.6567 -1.0895,1.1645 -0.3881,0.5072 -0.7913,1.1344 -1.209,1.8807 -0.4176,0.7464 -0.8358,1.577 -1.254,2.4926 -0.2583,0.577 -0.4725,1.1986 -0.6418,1.8658 -0.1692,0.6666 -0.2634,1.3031 -0.2836,1.9102 -0.02,0.6071 0.04,1.1397 0.1791,1.5972 0.1397,0.4575 0.3882,0.7561 0.7463,0.8954 0.4182,0.179 0.856,0.045 1.3135,-0.4027 0.4581,-0.4482 0.9254,-1.0501 1.4031,-1.8062 0.4777,-0.7562 0.9404,-1.592 1.3881,-2.5076 0.4477,-0.9155 0.8607,-1.7514 1.239,-2.5075 0.3784,-0.9751 0.796,-2.005 1.2541,-3.0898 0.4575,-1.0843 0.9103,-2.1541 1.358,-3.2088 0.4477,-1.0548 0.8757,-2.0697 1.2835,-3.0448 0.4079,-0.9756 0.7562,-1.8461 1.045,-2.6121 0.2883,-0.7665 0.4973,-1.3932 0.6267,-1.8808 0.1294,-0.4875 0.1444,-0.7809 0.045,-0.8808 -0.1398,-0.1191 -0.075,-0.2588 0.194,-0.4177 0.2686,-0.1594 0.602,-0.2489 0.9999,-0.2686 0.398,-0.0202 0.8111,0.0693 1.2386,0.2686 0.428,0.1993 0.7318,0.5973 0.9108,1.194 0.1393,0.4378 0.099,1.0796 -0.1195,1.9253 -0.2189,0.8462 -0.5424,1.8062 -0.9704,2.8807 -0.4275,1.0749 -0.9301,2.2343 -1.5071,3.4779 -0.5776,1.2437 -1.1593,2.4729 -1.7468,3.6866 -0.5869,1.2141 -1.1443,2.3833 -1.6717,3.5074 -0.5273,1.1246 -0.9548,2.1095 -1.2835,2.9557 -0.3281,0.8457 -0.5175,1.5175 -0.5672,2.0149 -0.05,0.4973 0.095,0.7266 0.4332,0.6868 0.1987,-0.0202 0.4523,-0.1796 0.7608,-0.4777 0.3089,-0.2987 0.6521,-0.6817 1.0299,-1.1495 0.3783,-0.4679 0.7665,-0.9901 1.1645,-1.5672 0.398,-0.577 0.7763,-1.1541 1.1345,-1.7312 0.3581,-0.5776 0.6764,-1.1246 0.9548,-1.6422 v -0.008 l 0.032,-0.0818 c 0.4777,-1.2137 1.0102,-2.2534 1.5971,-3.1193 0.5869,-0.8659 1.209,-1.5723 1.8658,-2.1194 0.6568,-0.5475 1.3332,-0.9404 2.0298,-1.1795 0.6967,-0.2386 1.4031,-0.3478 2.1194,-0.3281 0.2386,0.0197 0.4927,0.0647 0.7613,0.1341 0.2687,0.0698 0.5176,0.1842 0.7464,0.3436 0.2287,0.1589 0.4228,0.3732 0.5822,0.6418 0.1589,0.2686 0.2386,0.6019 0.2386,0.9999 0,0.4378 -0.099,0.7365 -0.2986,0.8953 -0.1589,0.1796 -0.368,0.2687 -0.6268,0.2687 -0.2391,0 -0.4529,-0.0792 -0.6418,-0.2386 -0.1889,-0.1589 -0.2836,-0.368 -0.2836,-0.6268 z m -24.3146,-3.8806 c 0,0.1589 -0.1589,0.2386 -0.4777,0.2386 -0.3183,0 -0.6614,-0.0745 -1.0299,-0.2241 -0.368,-0.1491 -0.7111,-0.3877 -1.0299,-0.7163 -0.3183,-0.3281 -0.4772,-0.7411 -0.4772,-1.2385 0,-0.1397 0.06,-0.3235 0.1791,-0.5527 0.119,-0.2288 0.2536,-0.4726 0.4026,-0.7313 0.1496,-0.2588 0.2836,-0.4974 0.4032,-0.7163 0.1195,-0.219 0.1791,-0.3882 0.1791,-0.5078 0,-0.1392 0.149,-0.2085 0.4477,-0.2085 0.2986,0 0.6319,0.0797 1.0004,0.2386 0.368,0.1594 0.7013,0.398 0.9999,0.7163 0.2986,0.3188 0.4477,0.7266 0.4477,1.224 0,0.1195 -0.055,0.2888 -0.1641,0.5077 -0.1097,0.2189 -0.2288,0.4477 -0.3581,0.6863 -0.1294,0.2391 -0.249,0.4777 -0.3587,0.7168 -0.1092,0.2386 -0.1641,0.4275 -0.1641,0.5672 z m -28.1061,8.6271 v 0 c -0.1,0.2189 -0.1791,0.4176 -0.2392,0.5967 1.194,-0.4176 2.1743,-0.9901 2.9408,-1.7162 0.766,-0.7266 1.3384,-1.4429 1.7162,-2.1494 0.3783,-0.7064 0.5724,-1.3182 0.5822,-1.8357 0.01,-0.5176 -0.164,-0.7862 -0.5227,-0.8064 -0.5372,-0.0196 -1.2137,0.4979 -2.0298,1.5527 -0.8157,1.0547 -1.6319,2.5075 -2.4475,4.3583 z m -39.0312,5.9104 v 0 c 0.796,0 1.5971,-0.2686 2.403,-0.8058 0.8058,-0.5372 1.5971,-1.239 2.3729,-2.1049 0.7764,-0.8653 1.5227,-1.8259 2.239,-2.8807 0.7168,-1.0548 1.3834,-2.109 2.0003,-3.1638 -0.6169,-0.1796 -1.2043,-0.3385 -1.7612,-0.4777 -0.5574,-0.1392 -1.1247,-0.2789 -1.7017,-0.4182 -0.099,0.2987 -0.2189,0.5574 -0.3582,0.7764 -0.4777,0.6966 -1.0848,1.1541 -1.8207,1.373 -0.6966,0.219 -1.2292,0.2686 -1.5972,0.1491 -0.3685,-0.1191 -0.6221,-0.2484 -0.7613,-0.3877 -0.3581,-0.3384 -0.4477,-0.8063 -0.2686,-1.403 0.1195,-0.398 0.3731,-0.7614 0.7613,-1.09 0.3877,-0.3281 0.8503,-0.5719 1.3881,-0.7313 0.3778,-0.119 0.9052,-0.1392 1.5821,-0.0595 -0.08,-0.3385 -0.2639,-0.6816 -0.5522,-1.03 -0.2888,-0.3483 -0.692,-0.532 -1.209,-0.5522 -0.8757,-0.0197 -1.6468,0.1889 -2.314,0.6268 -0.6666,0.4378 -1.2286,1.0004 -1.6861,1.6867 -0.4581,0.6868 -0.8162,1.4331 -1.075,2.2389 -0.2588,0.8058 -0.4275,1.5671 -0.5072,2.2834 -0.06,0.5771 -0.085,1.2142 -0.075,1.9108 0.01,0.6967 0.1046,1.3431 0.2842,1.9403 0.1791,0.5968 0.4772,1.0993 0.8954,1.5077 0.4176,0.4078 1.005,0.6117 1.7612,0.6117 z m 10.7764,-9.7315 v 0 c 0.796,0.2189 1.5869,0.4477 2.373,0.6863 0.7862,0.2391 1.5775,0.4678 2.3735,0.6868 0.5569,-1.4331 1.0796,-2.7964 1.5672,-4.0897 0.4875,-1.2934 0.8803,-2.4776 1.1789,-3.5525 0.1393,-0.4772 0.2687,-0.9352 0.3882,-1.3731 0.1196,-0.4378 0.2091,-0.8208 0.2686,-1.1489 0.06,-0.3287 0.074,-0.6025 0.045,-0.8214 -0.03,-0.2189 -0.1345,-0.3483 -0.3136,-0.3882 -0.2784,-0.0791 -0.6117,0.0254 -0.9999,0.3137 -0.3882,0.2888 -0.811,0.6914 -1.269,1.209 -0.4576,0.5175 -0.9399,1.1293 -1.4476,1.8357 -0.5077,0.7065 -1.0103,1.443 -1.5077,2.2095 -0.4973,0.7659 -0.975,1.5319 -1.4325,2.2984 -0.4581,0.766 -0.8659,1.4776 -1.2241,2.1344 z"
       style="fill:#6a4807;fill-rule:evenodd"
       id="path145" />
    <path
       d="m 1084.4453,177.0482 c 0,0 -0.9363,-1.1168 1.2447,-4.5482 2.181,-3.4319 6.5201,-4.4479 7.5345,-2.7596 1.0144,1.6888 -2.464,7.6681 -7.9734,7.6194 -0.4839,-0.0398 -0.7525,-0.1434 -0.8058,-0.3116 z m 1.2333,-1.6246 c -0.266,-0.2598 0.7722,-1.5469 1.3312,-1.7943 0.5584,-0.2469 2.9096,-0.9306 3.1363,-1.8404 0.2272,-0.9099 1.4155,-1.4694 1.5201,-1.0015 0.104,0.4679 -0.2081,0.2795 -0.487,1.0656 -0.2785,0.7867 -2.1101,2.0418 -3.0453,2.1396 -0.9358,0.0978 -1.637,0.4751 -1.7928,0.8783 -0.1558,0.4027 -0.3959,0.8126 -0.6625,0.5527 z"
       style="fill:#ffcd00;fill-rule:evenodd"
       id="path146" />
    <g
       id="Layer1021">
      <path
         d="m 1049.8397,230.7745 c 0,0 -1.2152,-1.4496 1.6152,-5.9036 2.8303,-4.454 8.4621,-5.7729 9.7789,-3.5814 1.3166,2.1915 -3.198,9.952 -10.3483,9.889 -0.6281,-0.0515 -0.9767,-0.1863 -1.0458,-0.404 z"
         style="fill:#ffcd00;fill-rule:evenodd"
         id="path147" />
      <path
         d="m 1051.4404,228.6654 c -0.3459,-0.3371 1.0022,-2.0075 1.7271,-2.3283 0.7249,-0.321 3.7767,-1.2082 4.0711,-2.389 0.2943,-1.1806 1.837,-1.9067 1.9722,-1.2997 0.1353,0.607 -0.2696,0.3627 -0.6314,1.3832 -0.362,1.0205 -2.7388,2.6495 -3.9529,2.7767 -1.2142,0.1273 -2.1245,0.6169 -2.3265,1.1399 -0.202,0.5228 -0.5137,1.0543 -0.8596,0.7172 z"
         style="fill:#6a4807;fill-rule:evenodd"
         id="path148" />
    </g>
    <path
       d="m 1073.4805,287.0569 c 0,0.1591 -0.1592,0.2387 -0.4777,0.2387 -0.3183,0 -0.6616,-0.0746 -1.0298,-0.2238 -0.3682,-0.1493 -0.7115,-0.3881 -1.0299,-0.7166 -0.3184,-0.3282 -0.4776,-0.7412 -0.4776,-1.2387 0,-0.1394 0.06,-0.3235 0.1791,-0.5523 0.1194,-0.2289 0.2537,-0.4727 0.403,-0.7314 0.1493,-0.2587 0.2835,-0.4975 0.403,-0.7165 0.1194,-0.2188 0.1791,-0.388 0.1791,-0.5074 0,-0.1393 0.1493,-0.209 0.4477,-0.209 0.2986,0 0.632,0.0797 1.0001,0.2389 0.3682,0.1592 0.7015,0.3979 1,0.7164 0.2986,0.3185 0.4478,0.7264 0.4478,1.224 0,0.1193 -0.055,0.2884 -0.1641,0.5074 -0.1095,0.2189 -0.2289,0.4477 -0.3583,0.6866 -0.1294,0.2388 -0.2488,0.4777 -0.3582,0.7164 -0.1095,0.2388 -0.1642,0.4279 -0.1642,0.5673 z"
       style="fill:#6a4807;fill-rule:evenodd"
       id="path149" />
  </g>
</svg>
