<?xml version="1.0" encoding="UTF-8" standalone="no"?>
<svg
   version="1.1"
   width="2.1468575in"
   height="1.5312881in"
   viewBox="0 0 154.57405 110.25297"
   id="svg206"
   sodipodi:docname="Catálogo 2024 TD Produções.cdr"
   xmlns:inkscape="http://www.inkscape.org/namespaces/inkscape"
   xmlns:sodipodi="http://sodipodi.sourceforge.net/DTD/sodipodi-0.dtd"
   xmlns="http://www.w3.org/2000/svg"
   xmlns:svg="http://www.w3.org/2000/svg">
  <sodipodi:namedview
     id="namedview206"
     pagecolor="#ffffff"
     bordercolor="#000000"
     borderopacity="0.25"
     inkscape:showpageshadow="2"
     inkscape:pageopacity="0.0"
     inkscape:pagecheckerboard="0"
     inkscape:deskcolor="#d1d1d1"
     inkscape:document-units="in" />
  <defs
     id="defs3" />
  <defs
     id="defs6" />
  <defs
     id="defs8" />
  <defs
     id="defs10" />
  <g
     id="Layer1012"
     inkscape:export-filename="design grafico\cafeRestauranteAPicha.svg"
     inkscape:export-xdpi="96"
     inkscape:export-ydpi="96"
     transform="translate(-627.00551,-185.94155)">
    <path
       d="m 743.8945,272.9707 c -11.0639,14.137 -28.2841,23.2238 -47.6272,23.2238 -15.4981,0 -29.6312,-5.8352 -40.3296,-15.4253 9.5552,6.3282 21.0111,10.0169 33.3304,10.0169 16.7474,0 31.9028,-6.8122 42.8501,-17.8154 z"
       style="fill:#ff9d00;fill-rule:evenodd"
       id="path12" />
    <path
       d="m 628.7537,257.4488 c -0.4477,-0.0427 -0.8101,-0.0427 -1.1298,0.0212 -0.4052,0.064 -0.6184,0.3625 -0.6184,0.7249 0,0.2132 0.064,0.4478 0.2345,0.6823 0.5757,0.8528 2.8783,1.8761 7.6327,2.3239 -2.2387,3.2833 -4.5626,6.7585 -6.3535,6.6092 -0.2132,-0.0212 -0.1919,0.192 -0.0213,0.3625 1.6844,0.5116 3.4752,-1.4285 7.2916,-6.9077 0.8953,0.064 1.8334,0.1065 2.8781,0.1278 l 0.064,0.0214 c 2.6438,1.4072 5.0955,4.0082 6.8224,7.0144 0.2132,0.341 0.725,-0.128 0.6823,-0.2772 -0.6396,-2.3879 -1.2152,-4.5199 -1.7269,-6.8864 1.599,-0.128 3.9656,-0.3838 4.4346,-0.7036 0.2344,-0.1706 0.4264,-0.661 0.3411,-0.5756 -0.3411,0.0213 -3.0061,0.405 -4.9036,0.6182 -0.8955,-4.6052 -1.5137,-7.6327 -1.5137,-10.5961 0,-0.3838 0.0213,-0.7888 0.0426,-1.1726 h 0.0212 l 0.0427,-0.064 c 0.1493,-0.2345 -0.5116,-0.7249 -0.7248,-0.533 v 0.0426 h -0.0427 l -0.0213,0.0214 c -1.6416,3.5604 -3.7524,7.4406 -6.1615,11.1717 -3.262,-1.3857 -6.2043,-1.9401 -7.2703,-2.0253 z m 9.9139,3.3259 c -0.6183,-0.3411 -1.2579,-0.661 -1.8761,-0.9594 l 0.2132,-0.2985 c 2.0255,-3.4752 3.5604,-5.8844 5.0741,-9.317 -0.0425,2.3027 0.789,7.185 1.5351,10.4683 h -0.0213 c -2.004,0.0426 -3.7736,0.1492 -4.925,0.1066 z m -10.8519,-2.2174 c -0.2985,-0.6609 0.9594,-0.6183 1.2366,-0.5756 0.9381,0.1067 3.4538,0.4478 6.6945,1.8975 l -0.4691,0.7036 c -3.5178,-0.2985 -7.0569,-1.3005 -7.462,-2.0255 z m 15.6277,2.7718 h 0.3198 c 0.3624,1.5989 0.7888,3.1766 1.2366,4.8182 l -0.5118,-0.6182 c -1.3644,-1.663 -3.0061,-3.0062 -4.7117,-4.0935 0.9595,0 2.2387,-0.0853 3.6671,-0.1065 z m -6.0337,-0.661 c -0.3837,0 -0.7888,0 -1.1938,-0.0213 0.1065,-0.128 0.2132,-0.2772 0.2984,-0.4264 z"
       style="fill:#4d2116;fill-rule:evenodd"
       id="path13" />
    <path
       d="m 665.3084,267.2173 c 0.361,0.4643 0.5674,1.1865 1.1349,1.2381 0.3093,-0.0516 0.4126,-0.2064 0.4126,-0.4642 l -0.1549,-0.258 c -0.4126,-4.3843 -0.6187,-10.4713 -0.6187,-16.7644 v -2.1149 c 1.2378,0.413 2.5791,0.7223 3.8685,0.8772 l 1.8571,0.0516 0.1545,-0.0516 c 10.2136,-0.5675 18.4151,-6.1899 18.4151,-13.463 0,-1.8055 -0.5159,-3.7139 -1.5991,-5.674 -3.8688,-6.9637 -13.9272,-9.1302 -20.9425,-8.8209 h -0.4126 l 0.361,-2.2694 c 0.1032,-0.8255 -1.8052,-1.2897 -2.2178,-0.7223 l -0.4646,3.1466 c -7.0666,0.7739 -16.042,4.333 -19.6527,11.2964 -1.0833,2.1665 -1.5991,4.5395 -1.5991,6.7573 0,2.4762 0.619,4.7972 1.8055,6.6544 2.5275,3.9201 6.6541,4.8485 9.6974,4.8485 2.1149,0 3.7139,-0.4642 3.972,-0.6188 0.5158,-0.3613 0.0513,-0.6706 -0.4129,-0.5158 -0.6703,0.2578 -1.5991,0.361 -2.3726,0.4126 -6.2415,0.2578 -10.9871,-4.2814 -10.9871,-10.368 0,-1.9088 0.4642,-3.9204 1.4958,-6.0353 3.9205,-6.5508 10.8839,-9.5942 17.8476,-10.6774 -0.5158,5.6224 -0.8255,12.7923 -0.8255,19.9108 v 3.095 c -1.0316,-0.5675 -1.8052,-1.2381 -2.1149,-1.9604 -0.2061,-0.3094 -0.5671,-0.7736 -1.0316,-0.722 -0.6188,-0.0516 -0.8252,0.2062 -0.5671,0.5675 0.6703,1.3926 2.0632,2.5275 3.7136,3.4043 0.1032,7.2731 0.5158,14.2368 1.2381,19.2401 z m 21.7677,-36.6232 c 1.0832,1.702 1.5991,3.4043 1.5991,5.055 0,6.2414 -7.1699,11.6574 -16.5063,12.5345 l -1.96,0.1545 c -1.3414,-0.0513 -2.8372,-0.3093 -4.1266,-0.7735 0.0513,-8.769 0.4642,-17.796 1.1862,-24.1407 l 1.8571,-0.1545 c 0.5158,-0.0516 1.0316,-0.0516 1.5475,-0.0516 6.4992,0 12.7922,2.1149 16.403,7.3763 z m 5.5711,23.0055 c 0.98,1.0832 2.3726,1.3929 3.6624,1.3413 3.5591,-0.1549 8.2531,-4.2298 9.2331,-6.0353 0.6191,-1.1346 0.1032,-1.4443 -0.1032,-1.2378 -1.5475,1.5475 -7.0154,5.674 -10.2132,5.674 -0.5674,0 -1.0832,-0.1548 -1.4958,-0.4642 -0.7739,-0.6707 0.2577,-6.4995 0.6703,-6.9121 0.0516,-0.2578 -0.2577,-0.6707 -0.8252,-0.8768 -0.619,-0.1549 -1.1349,-0.1032 -1.1865,0.1545 -0.5674,0.8771 -0.8768,2.4762 -0.8768,4.0753 0,1.702 0.361,3.4559 1.1349,4.2811 z m 1.0833,-11.9671 c 0.4642,0.258 1.0829,0.258 1.2377,0.0516 0.1549,-0.2578 0.5675,-1.3926 0.6707,-1.6507 0.1548,-0.3094 0.1548,-0.6703 0.1548,-0.8768 0.1029,-0.2577 -0.3096,-0.6707 -0.9803,-0.8252 -0.5158,-0.2064 -1.0829,-0.1032 -1.0829,0.2061 l -0.1033,0.7739 c -0.1032,0.2578 -0.4642,1.2894 -0.5674,1.4443 -0.2581,0.2064 0.0516,0.6706 0.6707,0.8768 z m 12.1732,8.4595 c 0.4126,-1.96 2.3213,-3.8684 4.2298,-3.4558 -0.0516,0.5674 -0.2581,0.98 -0.361,1.1861 -0.3613,0.6707 0.1029,0.8771 0.6187,0.6707 0.4642,-0.1549 1.5475,-0.5158 1.5475,-1.3926 -0.0513,-0.5159 -0.5158,-1.1349 -1.1862,-1.4959 -0.6706,-0.3613 -1.3413,-0.4642 -1.9087,-0.4642 -1.1346,0 -2.0633,0.4642 -2.7853,1.0316 -1.1865,0.9801 -1.8055,2.3727 -1.8571,3.8169 -0.1545,3.353 2.7855,5.3647 5.7772,5.3647 6.2931,-0.361 9.6977,-4.4359 10.5229,-5.9837 0.361,-0.6704 0,-1.5475 -0.3094,-1.341 -3.0949,2.7339 -6.8089,5.4679 -11.0903,5.7772 -2.3213,0 -3.6623,-1.4958 -3.1981,-3.714 z m 13.9271,4.7715 c 0.2062,0.7993 1.8052,1.47 1.7536,0.7048 0.2065,-2.3297 5.6228,-7.7973 8.5628,-7.6428 0,0.3613 -0.1032,0.9801 -0.1032,1.7023 0,1.0833 0.2581,2.4243 1.4442,3.3014 1.1865,0.7736 2.3214,1.0317 3.4563,1.0317 3.301,0 7.1698,-1.9604 8.3047,-3.6624 0.7736,-1.1349 1.0316,-2.7856 0.5674,-2.2181 -1.6507,2.2181 -7.2214,4.3846 -9.9038,4.3846 -0.5674,0 -1.1349,-0.1032 -1.6507,-0.3613 -0.3609,-1.4958 0.0516,-2.9401 -0.1032,-4.1782 -0.2061,-0.6703 -0.98,-1.2893 -1.7023,-1.4958 -2.9401,-0.9284 -7.3247,3.1981 -8.9235,5.0037 v -4.5911 c 0.1029,-7.0667 0.2062,-13.7723 0.8768,-20.3751 0,-0.7735 -2.0116,-1.3926 -2.0116,-0.6703 -0.3613,6.6024 -0.6191,12.9471 -0.6191,20.0654 v 7.3247 c 0,0.9716 0,1.5732 0.0516,1.6765 z m 22.9539,-1.0059 c 0.5674,0.361 1.1864,0.5159 1.8571,0.5159 2.734,0 6.1382,-2.6308 7.5825,-3.9205 0.6706,1.8572 1.9604,2.8372 3.6623,3.2498 2.1665,0.5158 5.7257,-1.1349 7.0154,-2.4243 2.8368,-2.8371 2.0633,-4.1265 1.1865,-3.2497 -1.8572,2.0632 -6.2931,4.694 -8.9238,4.1781 -0.9288,-0.2577 -1.1865,-1.2893 -1.1349,-2.1665 0.1032,-0.98 0.5674,-1.9084 0.8252,-2.6823 0.3613,-0.6187 -1.3926,-1.7536 -1.702,-1.1862 l -0.8771,1.1862 h -0.0516 c -1.2894,-0.5674 -2.7336,-0.8768 -4.1782,-0.8768 -1.8052,0 -3.5591,0.4642 -4.9517,1.3926 -1.2898,0.8772 -1.8572,2.0117 -1.8572,3.1466 0,1.0832 0.5158,2.0632 1.5475,2.8371 z m 0.9287,-1.1348 c -0.7739,-0.0517 -1.0833,-0.6191 -0.9287,-1.2381 0.5674,-2.3727 3.972,-3.3527 6.5511,-3.3527 0.7736,0 1.4959,0.1032 2.0117,0.2577 -1.8052,1.9088 -5.1582,4.0237 -7.6341,4.3331 z"
       style="fill:#4d2116;fill-rule:evenodd"
       id="path14" />
    <path
       d="m 765.2558,199.7901 c 4.3542,0.0875 9.4008,0.2959 12.2281,4.0433 2.5569,3.3889 2.372,8.9302 0.6799,12.9941 -1.5812,3.7978 -4.3424,6.5738 -7.9297,8.2525 -6.1124,2.8606 -11.4888,-0.4051 -13.6545,0.5935 -1.6335,5.1908 9.8693,4.2164 13.0222,3.0555 4.3394,-1.5977 7.6182,-4.4702 9.7055,-8.2764 2.146,-3.9132 3.2512,-9.6909 1.1373,-14.3336 -2.0546,-4.5122 -7.1902,-7.0944 -11.4929,-6.6719 z"
       style="fill:#ff9f00;fill-rule:evenodd"
       id="path15" />
    <path
       d="m 706.7936,230.2633 c 2.4756,-3.3796 -0.8854,-3.3131 -2.7008,-3.379 -12.6697,-0.4601 -22.7605,-21.5899 -5.7308,-28.962 2.8557,-1.2362 7.8127,-2.3405 11.0418,-3.2205 0.7434,-0.2026 1.3475,-0.3586 1.945,-0.5469 l -6.6314,1.0893 c -2.7997,0.5281 -5.5984,1.2083 -8.0597,2.2114 -11.6716,4.7571 -11.7013,17.8487 -4.3253,26.661 2.8962,3.4601 7.5135,6.752 14.4612,6.1467 z"
       style="fill:#ff9f00;fill-rule:evenodd"
       id="path16" />
    <path
       d="m 705.4749,200.1389 c 1.7707,-0.7584 5.0125,-1.5661 7.2429,-2.3594 7.067,-2.5137 15.6533,-7.4857 21.6747,-8.9681 8.8756,-2.1851 16.8135,1.2762 20.2606,9.2133 0.398,0.9163 0.65,2.9646 1.4065,3.5479 1.4769,1.1387 2.8911,-0.4327 2.8145,-1.5861 -0.1271,-1.9121 -2.351,-5.6806 -3.1618,-6.7948 -4.8785,-6.7041 -14.0685,-8.8116 -22.264,-6.1023 -7.3382,2.4259 -14.7272,8.3646 -25.9692,12.2251 -0.8083,0.2777 -1.5301,0.2653 -2.0042,0.8244 z"
       style="fill:#ff9f00;fill-rule:evenodd"
       id="path17" />
    <path
       d="m 729.0377,219.0075 c 4.551,-0.2018 8.7658,0.1915 12.4944,1.3303 8.0802,2.4682 17.8245,9.9285 14.1475,19.1602 -0.6692,1.6801 -2.7224,3.533 -0.88,4.7857 3.4253,1.9457 8.4076,-11.1347 -0.6482,-18.3699 -1.7249,-1.3782 -4.1701,-2.5221 -5.6556,-3.8211 0.1003,-1.6683 0.623,-1.8605 0.8339,-3.3243 -0.3328,0.2787 -0.1194,0.0715 -0.4279,0.4507 -0.763,0.9379 -1.5581,2.2625 -3.7096,1.4678 -1.7322,-0.6398 -3.8914,-1.0698 -5.2658,-1.8372 -0.0379,-2.72 0.7898,-3.8814 0.8683,-6.308 -0.9197,1.2545 -0.3504,2.7314 -2.2366,4.6111 -3.2733,3.2617 -9.7634,0.2374 -12.3232,-2.735 -0.7404,-0.8598 -0.9545,-1.4096 -1.808,-1.8579 0.3826,1.2783 1.4491,2.3991 2.1668,3.2448 z"
       style="fill:#ff9f00;fill-rule:evenodd"
       id="path18" />
    <path
       d="m 706.0146,247.3192 c -1.9624,4.9599 0.5431,7.6599 5.0939,6.9038 4.8322,-0.4577 13.298,-7.4179 20.4085,-8.7002 2.1021,-0.3791 8.8671,-0.9842 11.1265,-0.5697 1.1636,0.2138 0.7746,0.0685 1.0187,0.8432 -1.0353,0.447 -4.5268,-0.0237 -6.074,0.0384 -12.6833,0.5108 -21.1166,9.2081 -27.2044,9.1405 -4.4287,-0.0493 -7.261,-3.9491 -4.3692,-7.656 z"
       style="fill:#ff9f00;fill-rule:evenodd"
       id="path19" />
    <text
       x="668.7193"
       y="267.31219"
       id="text19"><tspan
         font-family="'Akrobat ExtraLight'"
         font-size="9px"
         fill="#4d2116"
         id="tspan19">CAFÉ - RESTAURANTE</tspan></text>
  </g>
  <g
     id="Layer1015"
     transform="translate(-950.02947,-479.38164)"
     inkscape:export-filename="design grafico\anaFerreira.svg"
     inkscape:export-xdpi="96"
     inkscape:export-ydpi="96">
    <path
       d="m 949.937,442.9487 -1.0502,-0.8475 c -11.1753,12.7391 -27.1757,20.0112 -44.1555,20.0112 -32.4312,0 -58.7224,-26.2906 -58.7224,-58.7221 0,-32.4312 26.2912,-58.7224 58.7224,-58.7224 16.6045,0 32.284,6.9535 43.4389,19.2127 l 1.0262,-0.8758 c -11.4126,-12.5601 -27.4632,-19.6858 -44.4651,-19.6858 -33.1767,0 -60.0713,26.8946 -60.0713,60.0713 0,33.1767 26.8946,60.0711 60.0713,60.0711 17.39,0 33.7729,-7.456 45.2057,-20.5127 z"
       style="fill:#1b1918;fill-rule:evenodd"
       id="path110" />
    <path
       d="m 904.7313,349.4872 c 14.8841,0 28.3609,6.0336 38.1149,15.7879 0.6426,0.6426 1.2688,1.3015 1.8782,1.9758 l -0.5426,0.2691 c -0.5682,-0.6248 -1.1507,-1.2355 -1.7478,-1.8326 -9.6485,-9.6488 -22.9789,-15.6171 -37.7027,-15.6171 -3.1519,0 -6.24,0.2744 -9.2417,0.7992 l -0.0683,-0.5802 c 3.0243,-0.5266 6.1351,-0.8021 9.31,-0.8021 z"
       style="fill:#1b1918;fill-rule:evenodd"
       id="path111" />
    <path
       d="m 874.1163,437.6684 0.7627,0.763 62.7185,-62.7189 -0.763,-0.7627 z"
       style="fill:#1b1918;fill-rule:evenodd"
       id="path112" />
    <text
       x="869.3396"
       y="401.2226"
       id="text112"><tspan
         font-family="'Baskerville Old Face'"
         font-size="51px"
         fill="#1b1918"
         id="tspan112">A</tspan></text>
    <text
       x="865.15509"
       y="441.06491"
       id="text113"><tspan
         font-family="Atlane"
         font-size="44px"
         fill="#1b1918"
         id="tspan113">F</tspan></text>
    <path
       d="m 888.5982,453.9741 c 0.6563,-1.4151 1.6811,-3.2207 2.2794,-4.302 0.1416,-0.2764 0.2982,-0.5213 0.4402,-0.7977 1.2257,-2.0989 2.4079,-3.4773 3.3665,-3.2933 0.0735,0.0143 0.1554,-0.1003 0.021,-0.1633 -1.2117,-0.6729 -2.8452,1.7096 -3.7339,3.1834 -0.1694,0.2796 -0.3428,0.5706 -0.4936,0.8703 -0.4903,0.8974 -1.3775,2.4379 -1.9594,3.6172 -0.009,-2.886 -0.1904,-7.1916 -0.1645,-8.6823 0.008,-0.2341 -0.3402,-0.5735 -0.4119,-0.416 0.007,0.016 -0.009,0.023 -10e-4,0.0391 -0.063,0.1344 -0.1458,0.3935 -0.2175,0.551 -1.2741,2.2656 -5.9519,8.2452 -9.2068,6.3015 -0.107,-0.0662 -0.1224,0.0466 -0.044,0.1548 2.3819,1.8834 6.7986,-1.758 9.4768,-5.9642 0.1664,2.391 0.1288,6.5765 0.1711,8.9479 0.004,0.2385 0.4277,0.0534 0.4778,-0.0464 z m 3.2103,-1.5122 c 0.1154,0.1116 0.2533,0.1775 0.4108,0.2096 0.6408,0.1306 1.5644,-0.3236 1.965,-0.5568 0.0682,0.4673 0.3239,0.7586 0.7032,0.9367 0.4834,0.2245 1.3965,0.008 1.7607,-0.2332 0.8006,-0.5295 0.6807,-0.8689 0.4332,-0.7053 -0.5338,0.3953 -1.6994,0.8 -2.2916,0.5534 -0.2055,-0.1047 -0.2166,-0.3589 -0.1626,-0.5621 0.0708,-0.2248 0.2242,-0.4205 0.3215,-0.5896 0.1143,-0.1277 -0.2425,-0.4775 -0.3422,-0.3594 l -0.2624,0.2364 -0.012,-0.003 c -0.2755,-0.1948 -0.5991,-0.3362 -0.9376,-0.4053 -0.4233,-0.0863 -0.8569,-0.0612 -1.2277,0.0901 -0.3443,0.1441 -0.5315,0.3828 -0.5857,0.649 -0.0516,0.254 0.0224,0.5085 0.2274,0.7391 z m 0.2717,-0.2216 c -0.1787,-0.0493 -0.2242,-0.1968 -0.1583,-0.3347 0.246,-0.5294 1.0912,-0.5965 1.6959,-0.4732 0.1814,0.0371 0.3458,0.0957 0.4592,0.1566 -0.5146,0.3612 -1.4015,0.6971 -1.9968,0.6513 z m 5.254,1.242 c 0.2038,0.2843 0.5262,0.3956 0.8341,0.4184 0.8504,0.0594 2.077,-0.782 2.3589,-1.1846 0.1778,-0.2528 0.0636,-0.3405 0.009,-0.2971 -0.4097,0.326 -1.8213,1.1589 -2.5817,1.072 -0.1347,-0.0151 -0.2534,-0.0661 -0.3429,-0.1507 -0.1659,-0.1807 0.2374,-1.5382 0.3467,-1.6251 0.0192,-0.06 -0.0432,-0.1664 -0.1723,-0.2309 -0.1432,-0.0536 -0.2674,-0.0551 -0.2863,0.004 -0.1589,0.1933 -0.2758,0.565 -0.3193,0.9452 -0.046,0.4047 -0.008,0.8315 0.154,1.0484 z m 0.5819,-2.8155 c 0.1035,0.0741 0.2507,0.091 0.293,0.0458 0.0437,-0.0569 0.1723,-0.3157 0.2041,-0.3741 0.0452,-0.0693 0.0548,-0.1554 0.0606,-0.2043 0.0315,-0.0586 -0.0557,-0.1677 -0.2108,-0.2228 -0.1172,-0.0632 -0.2545,-0.0539 -0.2629,0.0199 l -0.0455,0.181 c -0.0318,0.0586 -0.1455,0.2939 -0.1744,0.3277 -0.0667,0.0423 -0.005,0.1612 0.1359,0.2268 z m 3.9823,4.3141 c 0.7772,0.0259 1.8084,-1.2732 2.051,-1.8826 0.0545,-0.1463 0.0402,-0.4554 -0.0889,-0.2871 -0.1927,0.2282 -1.7531,2.1889 -2.3811,1.7726 -0.265,-0.1942 -0.3344,-1.0732 -0.2977,-2.1712 0.0715,-2.1338 0.5286,-5.0822 0.6105,-5.3143 0.002,-0.0615 -0.0933,-0.1636 -0.2145,-0.2295 -0.1219,-0.0533 -0.1963,-0.0434 -0.2111,0.0301 -0.1776,0.5128 -0.6123,3.1533 -0.6808,5.2009 -0.0344,1.0239 0.0227,1.9023 0.2446,2.2802 0.2353,0.3539 0.5732,0.5874 0.968,0.6009 z m 6.5274,-3.5802 c -0.2592,0.0247 -0.465,0.0644 -0.6396,0.1358 -0.2237,0.0808 -0.312,0.2738 -0.2723,0.4796 0.0233,0.1213 0.0854,0.2475 0.2081,0.3621 0.4207,0.4219 1.8417,0.7513 4.5931,0.4851 -0.9129,2.1117 -1.8531,4.3415 -2.8875,4.4529 -0.1236,0.011 -0.0881,0.1303 0.0274,0.2084 1.0137,0.1061 1.8192,-1.1927 3.3881,-4.7254 0.516,-0.0618 1.0542,-0.1402 1.6501,-0.2426 l 0.0388,0.005 c 1.6569,0.5105 3.3356,1.7201 4.6467,3.24 0.1583,0.1705 0.3976,-0.1522 0.3571,-0.2324 -0.6251,-1.2872 -1.186,-2.4362 -1.7359,-3.7254 0.8948,-0.2478 2.212,-0.6525 2.4438,-0.8857 0.1146,-0.1225 0.17,-0.4222 0.1309,-0.3645 -0.1915,0.0496 -1.6644,0.5598 -2.7198,0.8887 -1.0135,-2.5199 -1.6963,-4.1729 -2.0208,-5.8575 -0.0422,-0.2181 -0.0746,-0.4507 -0.1046,-0.6712 l 0.0125,-0.002 0.0169,-0.0411 c 0.0595,-0.1496 -0.3702,-0.356 -0.4702,-0.2236 l 0.005,0.0245 -0.0242,0.005 -0.01,0.0143 c -0.5431,2.2038 -1.3181,4.6406 -2.2787,7.0252 -2.0059,-0.4304 -3.7391,-0.4231 -4.3546,-0.3548 z m 5.9998,0.8046 c -0.3889,-0.1262 -0.7872,-0.2382 -1.1715,-0.3396 l 0.0884,-0.1933 c 0.7708,-2.1971 1.3796,-3.7348 1.8638,-5.8517 0.228,1.3132 1.2356,3.9977 2.0193,5.7823 l -0.0122,0.002 c -1.1345,0.2438 -2.1286,0.498 -2.7878,0.6 z m -6.4115,-0.0717 c -0.2419,-0.3429 0.4776,-0.4569 0.64,-0.4627 0.5449,-0.0423 2.0123,-0.1239 4.0132,0.3455 l -0.1896,0.4513 c -2.0323,0.2155 -4.1539,0.0335 -4.4636,-0.3341 z m 9.187,-0.1364 0.1816,-0.035 c 0.3811,0.8694 0.7966,1.7195 1.2307,2.6038 l -0.3586,-0.2956 c -0.9575,-0.796 -2.038,-1.3796 -3.1266,-1.8108 0.5452,-0.105 1.263,-0.2936 2.0729,-0.4624 z m -3.5021,0.2854 c -0.218,0.042 -0.4487,0.0863 -0.681,0.1186 0.0466,-0.0845 0.0907,-0.181 0.123,-0.2752 z m 6.6132,-0.519 c 0.1123,0.1554 0.5499,0.1595 0.4811,0.014 -0.082,-0.3519 -0.1082,-0.421 -0.1091,-0.5262 -0.0274,-0.9012 0.6604,-1.9706 1.2409,-2.1793 l 0.0239,0.0962 c 0.0239,0.0968 0.2116,0.1043 0.3023,-0.142 0.0455,-0.123 -0.2085,-0.3035 -0.4913,-0.2481 -0.6734,0.1388 -1.2708,1.1338 -1.4178,1.6128 l -0.1606,-0.4539 c -0.0265,-0.0691 -0.1396,-0.158 -0.2656,-0.1758 -0.1373,-0.0137 -0.2528,0.0306 -0.2219,0.1111 0.3945,1.514 0.5321,1.8052 0.6181,1.8912 z m 4.7729,2.0514 c 0.182,0.204 0.6359,0.2909 0.4898,0.0446 -0.3769,-0.4691 -0.9,-1.561 -1.3973,-2.7173 -0.4441,-1.0317 -0.8686,-2.1122 -1.1692,-2.8425 l -0.7399,-1.9391 c 0.0907,-0.0388 0.1653,-0.0843 0.2507,-0.1347 0.8327,-0.4388 2.1105,-1.1228 3.3234,-1.6446 0.6805,-0.2925 1.33,-0.5318 1.884,-0.649 0.0953,-0.0277 0.1326,-0.0974 0.0825,-0.1834 -0.075,-0.0484 -0.2368,-0.1131 -0.3583,-0.1143 -0.4473,0.0845 -1.0514,0.3041 -1.6977,0.5822 -1.1111,0.4779 -2.3598,1.1359 -3.2942,1.6184 -0.1085,0.0601 -0.2169,0.1204 -0.319,0.1644 -0.335,-0.9041 -0.6472,-1.8175 -0.8119,-2.4187 -0.1315,-0.2119 -0.603,-0.0897 -0.5137,0.0866 0.2571,0.7225 0.5857,1.6426 0.921,2.5464 -1.3461,0.7131 -2.112,1.1502 -2.8534,1.6438 -0.1735,0.1282 0.1915,0.3207 0.3921,0.1941 0.8388,-0.5492 1.6939,-0.9976 2.6009,-1.4816 0.2636,0.7061 0.5286,1.3848 0.7467,1.9227 0.1787,0.4473 0.4306,1.0642 0.7134,1.7216 0.6536,1.5196 1.4548,3.2572 1.7501,3.6004 z m 0.1309,-4.1581 c 0.3248,0.1292 0.6566,0.0484 0.9278,-0.0988 0.7478,-0.4091 1.3253,-1.7799 1.3449,-2.2709 0.0131,-0.309 -0.1304,-0.321 -0.1531,-0.2551 -0.1688,0.4959 -0.9064,1.9595 -1.5933,2.2974 -0.1216,0.0598 -0.2487,0.081 -0.37,0.0583 -0.237,-0.0624 -0.6312,-1.4225 -0.5863,-1.5548 -0.0163,-0.061 -0.1262,-0.1166 -0.2697,-0.1012 -0.1492,0.0321 -0.2548,0.098 -0.2385,0.1586 -0.0291,0.2481 0.0732,0.6242 0.2423,0.9677 0.1799,0.3653 0.4426,0.7035 0.6959,0.7988 z m -1.0314,-2.6834 c 0.1268,0.006 0.2597,-0.0589 0.2711,-0.1198 0.006,-0.0715 -0.0257,-0.3589 -0.0306,-0.4251 6e-4,-0.0828 -0.0376,-0.1604 -0.0595,-0.2047 -0.005,-0.0664 -0.137,-0.111 -0.2974,-0.0734 -0.1326,0.01 -0.2434,0.0921 -0.2108,0.1586 l 0.0595,0.1769 c 0.005,0.0665 0.0365,0.326 0.0306,0.37 -0.0332,0.0717 0.0822,0.1388 0.2371,0.1175 z m 4.2877,1.4551 c 0.1971,-0.0315 0.4706,-0.1513 0.7353,-0.3093 0.2758,-0.1645 0.5321,-0.3607 0.6913,-0.5274 0.2315,-0.2388 0.2557,-0.6557 -0.0977,-0.7181 -0.3131,-0.0429 -0.7259,-0.0123 -1.2612,0.005 -0.2881,-8e-4 -0.5954,0.0385 -0.6201,-0.1475 -0.0479,-0.3452 0.809,-1.1009 1.1192,-1.4726 0.0216,-0.1566 -0.3105,-0.2318 -0.4676,-0.109 -0.4962,0.3965 -1.4493,1.425 -1.0292,1.9361 0.2321,0.2927 0.5921,0.2216 0.9624,0.2161 0.2816,-0.01 0.8044,-0.0487 1.1519,-0.0691 -0.2379,0.228 -0.63,0.5341 -0.9694,0.7364 -0.1376,0.0822 -0.2606,0.1411 -0.3688,0.177 -0.2647,0.0857 -0.0111,0.2942 0.1539,0.2819 z m 4.8327,1.1773 c 0.2137,0.17 0.6758,0.1784 0.4898,-0.0394 -0.451,-0.3982 -1.1522,-1.3851 -1.8393,-2.4399 -0.6126,-0.9412 -1.2149,-1.9339 -1.6356,-2.6024 l -1.0586,-1.7848 c 0.0825,-0.054 0.1484,-0.1114 0.2242,-0.1756 0.7458,-0.574 1.8886,-1.4653 2.995,-2.1857 0.6205,-0.4041 1.2202,-0.7504 1.7461,-0.9604 0.0892,-0.0434 0.1143,-0.1183 0.0499,-0.1947 -0.0819,-0.035 -0.2525,-0.0709 -0.3723,-0.0516 -0.4266,0.1595 -0.9843,0.4787 -1.5738,0.8627 -1.0137,0.66 -2.1324,1.5207 -2.9709,2.1551 -0.0968,0.0776 -0.1936,0.1557 -0.2866,0.2163 -0.4836,-0.8338 -0.9469,-1.681 -1.2113,-2.2455 -0.1656,-0.1863 -0.6094,0.0143 -0.4916,0.1729 0.3764,0.6682 0.8566,1.519 1.3405,2.3525 -1.2049,0.9318 -1.8854,1.4927 -2.5321,2.1053 -0.1489,0.156 0.2435,0.2834 0.4196,0.1245 0.7332,-0.6837 1.4994,-1.2712 2.3111,-1.9024 0.3796,0.651 0.7563,1.275 1.0627,1.7677 0.2519,0.4102 0.6055,0.9755 0.9959,1.5752 0.9026,1.386 1.9875,2.9621 2.3373,3.2502 z"
       style="fill:#1b1918;fill-rule:evenodd"
       id="path113" />
    <text
       x="897.51318"
       y="371.20679"
       id="text114"><tspan
         font-family="Autography"
         font-size="8px"
         fill="#1b1918"
         id="tspan114">Ana Ferreira</tspan></text>
    <path
       d="m 837.8509,370.7833 c -0.0442,0.0676 -0.0884,0.1341 -0.1326,0.2018 -2.482,5.95 -7.0999,11.6586 -6.5107,18.0715 0.5377,3.3884 2.2169,6.7378 4.5074,9.6633 0.1179,0.1094 0.2357,0.2183 0.3535,0.3288 l -0.022,-0.0214 c 0.6333,0.525 1.2299,1.0677 1.8707,1.5845 -0.0368,-0.0682 -0.0737,-0.1363 -0.1031,-0.2051 -2.3716,-6.1957 -1.4583,-12.6344 -0.3683,-18.9286 0.8543,-4.7685 1.0459,-9.5859 2.1874,-14.3268 -0.6112,1.2068 -1.0605,2.4637 -1.7823,3.632 z m 3.3732,13.2937 c 2.2979,-5.4551 0.6776,-11.2369 -0.9428,-16.6459 -1.2152,8.1932 -2.5851,16.415 -3.0638,24.6554 1.2962,-2.6797 2.784,-5.3111 4.0066,-8.0095 z m 17.4994,16.6074 c 1.4289,-1.297 1.7751,-2.942 2.2317,-4.5304 1.2742,-3.224 1.7455,-6.5614 2.1138,-9.897 l 0.007,-0.0143 -0.007,0.0137 v -0.003 c 0.1325,-0.6839 0.2283,-1.3734 0.2577,-2.0634 -2.9165,7.7 -9.4347,14.1954 -13.2719,21.6018 0.0884,-0.0824 0.1842,-0.1666 0.2799,-0.2424 2.5925,-1.8259 6.2309,-2.6056 8.3888,-4.8647 z m 4.3675,-14.5412 0.007,-0.0193 -0.007,0.0231 z m -3.1007,0.7296 0.0222,-0.0165 -0.0443,0.0362 c -2.7471,1.9722 -4.4853,4.4573 -5.2807,7.2289 -0.8176,1.6433 -1.9812,3.2004 -2.2758,4.9719 -0.007,0.0225 -0.007,0.045 -0.0147,0.0676 l 0.007,-0.0352 c -0.1104,0.4366 -0.2062,0.8769 -0.3314,1.3129 l 0.0147,-0.0396 -0.007,0.0363 c 0.4124,-0.5619 0.8101,-1.1265 1.2152,-1.6895 1.9002,-2.5995 3.9403,-5.144 5.6269,-7.821 -0.0147,0.0253 -0.0294,0.05 -0.0442,0.0753 1.3036,-1.9391 2.4673,-3.9223 3.3438,-5.995 -0.6261,0.6927 -1.4804,1.2508 -2.2317,1.8677 z m -10.4436,-5.238 c 0.0368,-0.009 0.0736,-0.0176 0.1031,-0.0275 -0.0442,0.0121 -0.0884,0.0231 -0.1326,0.0346 l 0.007,-0.001 -0.0222,0.005 z m -8.6687,-18.927 c 0.1399,0.0159 0.1104,0.1291 0.1252,0.21 v -0.002 l 0.007,0.0209 -0.007,-0.009 c 0.0147,0.0396 0.0147,0.0803 0.022,0.1198 v -0.0214 c 0.2284,1.2194 -0.1325,2.4593 -0.0294,3.6886 0.2062,1.3284 0.847,2.5929 1.1415,3.9086 0.9944,3.996 1.4952,8.0953 0.604,12.1303 v -0.0121 c -0.007,0.0319 -0.0147,0.0638 -0.0294,0.0957 l 0.007,-0.0231 c -1.0679,3.2087 -3.1007,6.1831 -4.3527,9.3494 -0.2652,0.7956 -0.5304,1.683 -0.3757,2.5297 v -0.006 c 0.1915,1.0403 0.8249,1.9925 1.1269,3.0102 0.2209,1.1986 -0.1326,2.4197 0.2651,3.6062 0.6629,2.0749 2.1359,3.9107 3.1523,5.884 -1.5762,-11.9781 -0.2431,-24.4949 6.4224,-35.5548 0.007,-0.0176 0.022,-0.0357 0.0294,-0.0533 l -0.0221,0.0324 c 0.6039,-1.138 1.0091,-2.3284 1.3184,-3.5281 0.0957,-0.3623 0.1841,-0.7251 0.2724,-1.0875 1.5394,-5.8653 6.8791,-13.0919 15.1059,-14.6863 l -0.0221,0.005 c 0.5892,-0.1496 1.1636,-0.3293 1.7455,-0.4871 -0.0221,0.005 -0.0442,0.0104 -0.0663,0.0154 0.7439,-0.226 1.5246,-0.3503 2.2758,-0.5443 l -0.022,0.007 c 0.1178,-0.0269 0.2282,-0.0566 0.3388,-0.0868 -0.0222,0.005 -0.0369,0.0109 -0.059,0.0164 0.2725,-0.0516 0.4935,-0.1781 0.7439,-0.2677 l -0.0368,0.0154 c 0.081,-0.0341 0.1694,-0.066 0.2577,-0.0979 l -0.0368,0.0127 c 0.6187,-0.2134 2.2169,-1.6445 1.0827,-0.1447 l 0.0147,-0.012 c -0.0221,0.028 -0.0442,0.0577 -0.0663,0.0863 v -0.004 c -0.0516,0.0671 -0.1104,0.1336 -0.1693,0.1974 l 0.007,-0.004 -0.0221,0.0182 c -1.2226,1.1529 -3.0565,1.8512 -4.7873,2.5158 -2.32,1.4246 -4.5664,2.9552 -6.1793,4.8691 -2.3495,2.9503 -3.005,6.5641 -6.5402,8.9695 -0.0442,0.0407 -0.0958,0.0809 -0.1473,0.121 l 0.007,-0.004 c -4.8462,4.5045 -7.2325,9.9674 -8.7865,15.5573 3.6752,-3.1927 7.7996,-6.1183 10.2448,-9.9927 2.482,-4.3754 6.8348,-7.3927 11.7768,-10.2341 0.3609,-0.1347 2.7546,-1.4828 2.2611,-0.6493 -5.7964,6.0242 -2.4894,12.7714 -12.6827,17.5888 v -6e-4 c -0.0295,0.0127 -0.0516,0.0259 -0.081,0.0385 l 0.007,-0.002 -0.0369,0.0193 0.0442,-0.0215 c -2.3053,0.9941 -4.5295,2.0755 -7.0925,2.6704 -1.1564,0.3678 -2.2023,0.8995 -3.2849,1.3751 0.0442,-0.0204 0.081,-0.0385 0.1178,-0.0583 -0.1767,0.0885 -0.3608,0.1737 -0.5376,0.2612 l 0.0442,-0.0237 c -0.0369,0.0193 -0.0737,0.0385 -0.1105,0.0566 0.0147,-0.009 0.0368,-0.0192 0.0589,-0.0296 -2.6367,1.1188 -2.4083,7.0386 -2.7913,9.284 -0.4788,8.3487 0.1399,16.7992 3.0712,24.8951 -1.5025,-7.4862 3.7857,-12.5344 5.4649,-19.3883 v 0.0192 c 0.007,-0.0258 0.0147,-0.0511 0.0147,-0.0769 v 0.0132 c 0.007,-0.0264 0.0147,-0.0517 0.0221,-0.0786 l 0.007,-0.032 c -0.007,0.0149 -0.007,0.0292 -0.0148,0.044 0.3094,-1.6389 1.37,-3.0976 2.158,-4.6183 0.6261,-1.6351 1.1343,-3.3296 2.379,-4.7839 1.9591,-2.3119 5.0892,-3.9459 6.8053,-6.387 l -0.007,0.0198 c 2.3053,-3.1152 1.3552,-1.4037 0.9501,0.6707 -0.2577,2.5978 -0.2062,5.2281 -0.7144,7.8133 -0.007,0.0154 -0.007,0.0313 -0.007,0.0467 v -0.003 c -0.007,0.0154 -0.007,0.0307 -0.007,0.0462 v -0.009 c -1.149,4.4056 -1.3773,9.2972 -6.9305,11.9769 -3.0934,1.4823 -6.4814,2.8194 -7.7629,5.6097 l -0.0221,0.0324 0.007,-0.007 c -0.0368,0.0561 -0.0663,0.1111 -0.0958,0.1672 l 0.0221,-0.0429 c -0.0221,0.0335 -0.0368,0.0665 -0.0589,0.0995 l 0.007,-0.0159 c -0.221,0.6058 -0.4125,1.22 -0.5745,1.8374 0.007,-0.0286 0.0147,-0.0566 0.0221,-0.0846 -0.0147,0.045 -0.0221,0.0906 -0.0368,0.1357 l 0.007,-0.0313 c -0.007,0.0269 -0.0148,0.0544 -0.0221,0.0819 v -0.009 c -0.9207,3.2048 -0.4493,6.4822 -0.0884,9.7134 V 420.96 c 0.2798,2.9096 2.0769,5.6706 3.5941,8.3383 l -0.007,-0.0176 c 0.0147,0.0264 0.0294,0.0533 0.0441,0.0797 -0.007,-0.0192 -0.022,-0.039 -0.0294,-0.0582 3.9551,6.0715 8.1605,12.0781 13.8169,17.3776 0.5524,0.9001 1.9739,1.6192 2.1506,2.5692 -0.0589,0.4663 -0.8248,0.397 -1.1416,0.11 0.0295,0.0193 0.0589,0.0402 0.0958,0.06 -0.0516,-0.0325 -0.1031,-0.0649 -0.1547,-0.0985 l 0.0221,0.0143 c -0.1399,-0.0918 -0.2578,-0.1935 -0.3683,-0.3067 l 0.0222,0.0291 c -0.9722,-0.9627 -1.9297,-1.9243 -2.9166,-2.8794 0.022,0.0176 0.0368,0.0374 0.0515,0.055 -2.2979,-2.2487 -3.6751,-5.1192 -6.8274,-6.7911 0.0368,0.0159 0.0663,0.0324 0.0957,0.0483 -4.9935,-2.9502 -11.46,-3.6116 -16.8292,-5.9994 -3.6457,-1.6819 -5.7153,-4.5981 -7.4093,-7.4351 -3.6457,-4.1691 -4.5589,-9.092 -5.6122,-13.9012 -0.7807,-5.0912 -3.1964,-9.8541 -6.6286,-14.2674 -0.5965,-0.7021 -1.1416,-1.4565 -1.9296,-2.0381 -0.0295,-0.0127 -0.0516,-0.0292 -0.0811,-0.038 v 0 c -0.1177,-0.0313 -0.0589,-0.1743 0.059,-0.1561 l 0.0294,0.005 v -6e-4 l 0.0443,0.0121 v -5e-4 l 0.022,0.004 c 5.0083,2.4686 9.9061,5.4524 12.9405,9.4165 -0.0147,-0.016 -0.0295,-0.0319 -0.0442,-0.0484 2.2759,2.771 3.8151,5.7977 5.6491,8.7298 -0.0148,-0.0226 -0.0295,-0.0462 -0.0443,-0.0687 3.8299,5.9862 5.9879,12.4607 9.5378,18.5102 2.8208,2.6638 7.0779,4.4771 10.591,6.6494 0.0811,0.0418 0.1547,0.0835 0.2357,0.1242 -3.7488,-5.1544 -7.8438,-10.2874 -9.8103,-16.0169 l 0.0148,0.028 -0.0148,-0.0385 c -1.554,-3.5495 -3.0491,-7.2035 -3.7415,-10.9042 0,0.0154 0.007,0.0302 0.007,0.0467 -0.1915,-1.2458 -0.4861,-2.4994 -0.9132,-3.7106 -1.5688,-2.7325 -3.3586,-5.4029 -5.951,-7.6962 -2.6441,-2.412 -3.9772,-5.4645 -5.1998,-8.4065 -2.5336,-5.9137 0.8838,-11.834 3.793,-17.2787 1.8265,-4.068 3.6899,-8.1437 5.8332,-12.1149 0.022,-0.0742 0.0295,-0.182 0.1547,-0.188 z"
       style="fill:#1b1918;fill-rule:evenodd"
       id="path114" />
    <path
       d="M 969.0613,481.1917 V 326.2455 q 0,1.9549 1.9549,1.9549 H 808.8285 q 1.955,0 1.955,-1.9549 v 154.9462 q 0,-1.9549 -1.955,-1.9549 h 162.1877 q -1.9549,0 -1.9549,1.9549 z"
       style="fill:none"
       id="path115" />
  </g>
</svg>
