<?xml version="1.0" encoding="UTF-8" standalone="no"?>
<svg
   version="1.1"
   width="2.2192981in"
   height="0.98978049in"
   viewBox="0 0 159.78978 71.264337"
   id="svg206"
   sodipodi:docname="Catálogo 2024 TD Produções.cdr"
   xmlns:inkscape="http://www.inkscape.org/namespaces/inkscape"
   xmlns:sodipodi="http://sodipodi.sourceforge.net/DTD/sodipodi-0.dtd"
   xmlns="http://www.w3.org/2000/svg"
   xmlns:svg="http://www.w3.org/2000/svg">
  <sodipodi:namedview
     id="namedview206"
     pagecolor="#ffffff"
     bordercolor="#000000"
     borderopacity="0.25"
     inkscape:showpageshadow="2"
     inkscape:pageopacity="0.0"
     inkscape:pagecheckerboard="0"
     inkscape:deskcolor="#d1d1d1"
     inkscape:document-units="in" />
  <defs
     id="defs3" />
  <defs
     id="defs6" />
  <defs
     id="defs8" />
  <defs
     id="defs10" />
  <g
     id="Layer1018"
     transform="translate(-624.39748,-368.08643)"
     inkscape:export-filename="design grafico\municipioPG.svg"
     inkscape:export-xdpi="96"
     inkscape:export-ydpi="96">
    <path
       d="m 783.9782,391.0398 c 0.4314,1.0299 0.0844,2.8598 -0.0596,3.9157 -3.9097,25.8067 -32.2924,46.974 -56.7089,34.8284 -4.4945,-2.4914 -13.9056,-9.7496 -9.2941,-15.998 2.9573,-3.5454 9.5094,-1.4941 13.4527,-1.5261 10.8975,-0.3906 19.2918,-8.0304 16.0099,-19.7037 -5.0836,-17.8576 -20.5416,-27.8325 -38.2006,-22.9476 -1.8729,0.5606 -3.679,1.2447 -5.4656,2.0501 16.4614,-8.3642 37.513,-1.4645 46.8832,14.6983 7.4619,12.6854 -1.1656,26.481 -14.041,30.103 -3.3336,0.8878 -7.5938,0.8147 -10.6465,2.4094 -4.79,2.6644 1.4681,7.7225 3.9779,9.0362 16.8428,8.265 36.469,-1.5402 46.5145,-16.1386 3.9761,-6.1037 7.0528,-13.317 7.5781,-20.7271 z"
       style="fill:#009ee0;fill-rule:evenodd"
       id="path128" />
    <path
       d="m 715.2348,373.7776 c 10.1856,3.1412 16.967,10.4116 21.5766,20.0066 -4.4904,-25.3762 -40.4208,-30.4881 -53.7701,-9.9012 -2.5842,4.0315 -4.4755,9.3395 0.275,12.2685 3.5816,2.346 6.5414,5.6737 9.6669,8.6642 3.4113,4.1234 6.7777,9.4454 11.6432,11.8361 3.7559,1.9019 6.1758,-3.7123 8.9286,-5.6971 2.3921,-1.6678 5.0655,-1.7723 7.7372,-0.7546 10.4242,3.8859 12.8337,-9.8522 10.8731,-17.4773 -4.3273,-16.3374 -24.1548,-19.4959 -36.8173,-10.9476 -1.2924,0.8787 -3.2351,1.8722 -1.7454,3.2889 1.682,1.6306 4.6028,6.7579 7.0851,5.195 3.9205,-2.4423 4.4847,-6.6764 10.0394,-6.9536 6.5818,-0.2859 15.6775,3.4953 16.0345,11.3339 0.3437,10.1629 -9.247,7.6665 -15.0125,6.0708 -3.6963,-0.9964 -8.1556,1.4189 -10.1594,-2.8961 -1.7126,-3.6137 -3.0226,-4.3627 -6.538,-5.4091 -4.3054,-1.3607 -8.8716,-6.5623 -5.4596,-10.9733 5.5889,-7.1997 17.2172,-8.6379 25.6427,-7.6541 z"
       style="fill:#ffda00;fill-rule:evenodd"
       id="path129" />
    <path
       d="m 642.8823,409.3619 c -1.9366,-1.9935 -3.7063,-4.1641 -5.272,-6.5222 -2.2795,-3.3799 -4.0934,-7.2641 -4.5336,-11.3954 -0.5215,-6.2354 6.0538,-0.9086 7.952,0.7115 7.3487,6.3393 15.9446,11.6032 25.5745,13.0096 2.9308,0.4477 8.161,0.7141 6.4946,-4.0147 -0.7279,-2.8384 -1.1431,-4.9833 -0.0221,-7.7989 2.195,-4.7342 4.0455,-9.688 6.6691,-14.197 -1.4918,4.9982 -3.9718,9.3572 -1.6816,14.6086 1.5697,3.647 4.6011,6.3493 6.9062,9.4832 5.0295,5.8574 -6.3042,6.6004 -9.5538,6.6411 -10.988,-0.0136 -20.4448,-4.2803 -30.2508,-8.8562 -1.9171,-0.8868 -5.7494,-2.2509 -4.1818,1.6251 1.2353,2.9536 3.4215,5.4688 5.7622,7.566 z"
       style="fill:#81b917;fill-rule:evenodd"
       id="path130" />
    <path
       d="m 694.0424,422.8531 c -1.4432,0.5764 -2.3495,1.0216 -2.7127,1.3386 -0.3632,0.3138 -0.5464,0.6917 -0.5464,1.1305 0,0.3683 0.1382,0.666 0.4146,0.8999 0.2764,0.2306 0.6397,0.3459 1.0928,0.3459 0.5979,0 1.0382,-0.1922 1.3242,-0.5765 0.2861,-0.3843 0.4275,-0.9799 0.4275,-1.787 z m 0.2924,4.73 c -0.0771,-0.2017 -0.1349,-0.4259 -0.1736,-0.6756 -0.0418,-0.2499 -0.0675,-0.5221 -0.0803,-0.8168 -0.2507,0.5189 -0.5882,0.9193 -1.0092,1.1978 -0.421,0.2786 -0.8999,0.4163 -1.4398,0.4163 -0.6654,0 -1.2376,-0.2018 -1.7132,-0.6053 -0.4789,-0.4035 -0.7167,-0.8742 -0.7167,-1.4123 0,-0.4995 0.1993,-0.9351 0.5947,-1.3033 0.3952,-0.3683 1.2566,-0.8455 2.5871,-1.4252 0.7908,-0.3523 1.2761,-0.6373 1.4529,-0.8551 0.1736,-0.2178 0.2635,-0.5764 0.2635,-1.0696 0,-0.6085 -0.1319,-1.0504 -0.3921,-1.3291 -0.2604,-0.2786 -0.6717,-0.4163 -1.2278,-0.4163 -0.2571,0 -0.4886,0.0449 -0.6941,0.1314 -0.2025,0.0864 -0.3665,0.2145 -0.4854,0.3842 -0.0482,0.0769 -0.119,0.2146 -0.2057,0.4132 -0.2378,0.57 -0.5496,0.8551 -0.9321,0.8551 -0.209,0 -0.3761,-0.0673 -0.5078,-0.1986 -0.1319,-0.1313 -0.1992,-0.3011 -0.1992,-0.5157 0,-0.4932 0.3342,-0.8967 0.9995,-1.2136 0.6652,-0.3171 1.5523,-0.4741 2.6644,-0.4741 0.8484,0 1.4592,0.141 1.832,0.4259 0.3728,0.2851 0.5594,0.759 0.5594,1.422 0,0.1056 -0.0162,0.5732 -0.0515,1.4027 -0.0355,0.8295 -0.0514,1.6109 -0.0514,2.341 0,0.9384 0.0546,1.675 0.1638,2.2098 0.1093,0.5348 0.2765,0.8678 0.495,0.9992 z m 0.4019,-12.4673 h 0.829 c -0.1509,0.5796 -0.3856,1.0247 -0.707,1.3322 -0.3181,0.3042 -0.707,0.458 -1.1667,0.458 -0.1188,0 -0.2282,-0.007 -0.3246,-0.0224 -0.0965,-0.0161 -0.1961,-0.0449 -0.2957,-0.0801 l -0.7457,-0.2467 c -0.0738,-0.0224 -0.1574,-0.0415 -0.2443,-0.0543 -0.0867,-0.0129 -0.1735,-0.0193 -0.2538,-0.0193 -0.2251,0 -0.4114,0.0449 -0.5561,0.1377 -0.1446,0.0897 -0.2635,0.2402 -0.3567,0.4547 h -0.8292 c 0.1317,-0.5699 0.3567,-1.0023 0.6717,-1.3002 0.3182,-0.2978 0.7134,-0.445 1.1827,-0.445 0.0869,0 0.1801,0.006 0.2733,0.0223 0.0932,0.0161 0.196,0.0385 0.302,0.0705 l 0.7425,0.253 c 0.1061,0.032 0.209,0.0544 0.3022,0.0705 0.0931,0.0159 0.1831,0.0224 0.2635,0.0224 0.225,0 0.4114,-0.0545 0.5593,-0.1601 0.1478,-0.1057 0.2667,-0.2691 0.3536,-0.4932 z m 6.473,4.269 c -0.7907,0 -1.3981,0.3041 -1.8191,0.9094 -0.4211,0.6054 -0.6301,1.4892 -0.6301,2.6453 0,1.2426 0.254,2.2258 0.7619,2.9495 0.511,0.7206 1.1956,1.0825 2.0569,1.0825 0.752,0 1.3211,-0.317 1.7034,-0.9479 0.3825,-0.6309 0.5754,-1.5725 0.5754,-2.8215 0,-1.1337 -0.2474,-2.0528 -0.7393,-2.7573 -0.495,-0.7078 -1.1281,-1.06 -1.9091,-1.06 z m 0.3311,-0.7143 c 1.2181,0 2.1695,0.3588 2.8541,1.0729 0.6846,0.7173 1.0253,1.7037 1.0253,2.9623 0,1.5308 -0.3857,2.7478 -1.154,3.6477 -0.7682,0.8999 -1.8062,1.3514 -3.1111,1.3514 -1.2503,0 -2.2209,-0.381 -2.9152,-1.1433 -0.6943,-0.7653 -1.0412,-1.8318 -1.0412,-3.1993 0,-1.4154 0.4016,-2.5492 1.2051,-3.4075 0.8035,-0.855 1.8482,-1.2842 3.137,-1.2842 z"
       style="fill:#1b1918;fill-rule:evenodd"
       id="path131" />
    <path
       d="m 689.7682,438.7028 c 0.1511,-0.112 0.2571,-0.3298 0.3149,-0.6532 0.0612,-0.3203 0.09,-0.916 0.09,-1.7871 v -1.8478 -0.5893 c 0,-1.3899 -0.0288,-2.2962 -0.09,-2.7221 -0.0578,-0.4259 -0.1638,-0.6918 -0.3149,-0.7975 0.2378,-0.0352 0.5303,-0.0864 0.871,-0.144 0.3439,-0.061 0.5368,-0.0897 0.5786,-0.0897 0.196,0.006 0.2989,0.2722 0.3116,0.7973 0.006,0.1635 0.0129,0.2883 0.0194,0.3748 0.3022,-0.4676 0.6138,-0.8103 0.9416,-1.0216 0.328,-0.2146 0.6944,-0.3203 1.1025,-0.3203 0.3118,0 0.5657,0.0673 0.7521,0.2018 0.1896,0.1344 0.2829,0.3106 0.2829,0.5316 0,0.1794 -0.0643,0.3203 -0.1929,0.4228 -0.1286,0.0992 -0.3149,0.1505 -0.5592,0.1505 -0.1029,0 -0.2669,-0.01 -0.5014,-0.0289 -0.2314,-0.0192 -0.4114,-0.0288 -0.5368,-0.0288 -0.5271,0 -0.8742,0.1761 -1.0381,0.5253 -0.1672,0.349 -0.2507,1.1752 -0.2507,2.4754 0,0.189 0.003,0.5509 0.01,1.0889 0.006,0.5381 0.01,0.9832 0.01,1.3323 0,0.6693 0.029,1.1625 0.0901,1.4764 0.0578,0.317 0.1638,0.5347 0.3149,0.6532 z m 10.3203,-4.618 c -1.4432,0.5764 -2.3495,1.0216 -2.7127,1.3387 -0.3632,0.3138 -0.5463,0.6917 -0.5463,1.1304 0,0.3683 0.1382,0.6661 0.4145,0.9 0.2764,0.2306 0.6397,0.3459 1.0929,0.3459 0.5978,0 1.0381,-0.1922 1.3241,-0.5765 0.2861,-0.3843 0.4275,-0.98 0.4275,-1.787 z m 0.2924,4.7301 c -0.077,-0.2017 -0.1349,-0.4259 -0.1735,-0.6757 -0.0418,-0.2498 -0.0676,-0.522 -0.0804,-0.8167 -0.2506,0.5188 -0.5881,0.9192 -1.0092,1.1977 -0.421,0.2787 -0.8999,0.4164 -1.4398,0.4164 -0.6654,0 -1.2375,-0.2018 -1.7131,-0.6053 -0.479,-0.4035 -0.7168,-0.8742 -0.7168,-1.4123 0,-0.4995 0.1993,-0.9351 0.5947,-1.3033 0.3952,-0.3683 1.2566,-0.8455 2.5872,-1.4253 0.7907,-0.3522 1.276,-0.6372 1.4529,-0.855 0.1735,-0.2178 0.2634,-0.5764 0.2634,-1.0696 0,-0.6085 -0.1317,-1.0505 -0.3921,-1.3291 -0.2603,-0.2786 -0.6717,-0.4163 -1.2277,-0.4163 -0.2572,0 -0.4886,0.0449 -0.6942,0.1313 -0.2025,0.0865 -0.3664,0.2146 -0.4854,0.3843 -0.0482,0.0768 -0.119,0.2145 -0.2057,0.4132 -0.2378,0.5699 -0.5495,0.855 -0.932,0.855 -0.209,0 -0.3762,-0.0673 -0.5079,-0.1985 -0.1318,-0.1314 -0.1992,-0.3011 -0.1992,-0.5157 0,-0.4932 0.3342,-0.8967 0.9995,-1.2137 0.6653,-0.317 1.5523,-0.474 2.6644,-0.474 0.8486,0 1.4592,0.1409 1.832,0.4259 0.3729,0.2851 0.5594,0.759 0.5594,1.422 0,0.1056 -0.0162,0.5732 -0.0515,1.4027 -0.0354,0.8294 -0.0514,1.6108 -0.0514,2.341 0,0.9384 0.0546,1.675 0.1639,2.2097 0.1092,0.5349 0.2764,0.8679 0.4949,0.9992 z m 3.1724,-0.1121 c 0.1509,-0.112 0.2571,-0.3298 0.3149,-0.6532 0.0612,-0.3203 0.09,-0.916 0.09,-1.7871 v -1.8478 -0.5893 c 0,-1.3899 -0.0288,-2.2962 -0.09,-2.7221 -0.0578,-0.4259 -0.164,-0.6918 -0.3149,-0.7975 l 1.7612,-0.1889 c 0.0323,0.1377 0.0547,0.2882 0.0708,0.4515 0.016,0.1633 0.0257,0.3331 0.0257,0.506 v 0.253 c 0.3824,-0.4995 0.7874,-0.8615 1.2181,-1.0889 0.4306,-0.2241 0.9321,-0.3362 1.501,-0.3362 0.8164,0 1.382,0.2691 1.7002,0.8103 0.3182,0.5412 0.4757,1.7261 0.4757,3.5516 v 1.9631 0.5348 c 0,0.6694 0.0289,1.1273 0.0899,1.3771 0.058,0.2498 0.164,0.4388 0.3151,0.5636 h -1.8834 c 0.0289,-0.7013 0.0545,-1.4346 0.0706,-2.2032 0.0161,-0.7719 0.0226,-1.6301 0.0226,-2.5813 v -0.4611 c 0,-1.0761 -0.1223,-1.755 -0.3633,-2.0433 -0.2411,-0.2882 -0.6685,-0.4323 -1.2855,-0.4323 -0.7072,0 -1.2053,0.1953 -1.4914,0.586 -0.2861,0.3907 -0.4275,1.3419 -0.4275,2.8471 v 1.8478 c 0,0.8711 0.029,1.4668 0.0901,1.7871 0.0578,0.3234 0.1638,0.5412 0.3149,0.6532 z m 12.8079,-0.7878 c 0.646,0 1.1057,-0.1825 1.3757,-0.5444 0.27,-0.3619 0.405,-1.0728 0.405,-2.1297 0,-1.7133 -0.01,-2.8086 -0.0322,-3.2826 -0.0225,-0.4771 -0.0578,-0.7782 -0.1093,-0.9031 -0.061,-0.1602 -0.1863,-0.2818 -0.3727,-0.3587 -0.1833,-0.08 -0.4339,-0.1184 -0.7489,-0.1184 -1.0028,0 -1.7999,0.3395 -2.3817,1.0216 -0.585,0.6821 -0.8775,1.6204 -0.8775,2.815 0,1.044 0.2572,1.8895 0.7683,2.5332 0.511,0.6437 1.1698,0.9671 1.9733,0.9671 z m 3.4005,-12.6852 c -0.0739,0.6246 -0.1382,1.7486 -0.1929,3.3723 -0.0545,1.6236 -0.0802,3.4395 -0.0802,5.4475 0,1.9151 0.0353,3.132 0.1028,3.654 0.0706,0.5221 0.1961,0.8551 0.376,0.9992 l -1.8063,0.1121 c -0.0321,-0.1505 -0.0545,-0.2914 -0.0643,-0.4259 -0.0129,-0.1345 -0.0193,-0.2754 -0.0193,-0.4163 v -0.2274 c -0.2699,0.3747 -0.6299,0.6693 -1.0734,0.8774 -0.4467,0.2083 -0.9417,0.3139 -1.4882,0.3139 -1.0315,0 -1.8608,-0.3843 -2.4908,-1.1529 -0.6331,-0.7718 -0.9482,-1.7901 -0.9482,-3.0584 0,-1.4955 0.4596,-2.6741 1.3757,-3.5324 0.916,-0.8615 2.1758,-1.2906 3.7765,-1.2906 0.212,0 0.3889,0.003 0.5239,0.01 0.1349,0.006 0.2699,0.016 0.4081,0.0288 v -2.0175 c 0,-0.7334 -0.0257,-1.2683 -0.0803,-1.6045 -0.0514,-0.3395 -0.1414,-0.6053 -0.2667,-0.7974 z m 3.4263,7.3626 h 0.1702 c 0.0258,0 0.18,0.006 0.4661,0.0192 0.286,0.0128 0.5625,0.0193 0.8324,0.0193 h 0.2475 c 0.8517,0 1.3788,-0.0448 1.5781,-0.1345 0.196,-0.0929 0.2956,-0.2658 0.2956,-0.5221 0,-0.3874 -0.151,-0.7205 -0.4563,-0.9992 -0.3053,-0.2786 -0.6814,-0.4163 -1.1249,-0.4163 -0.5238,0 -0.9706,0.189 -1.3435,0.5669 -0.3727,0.3778 -0.5946,0.8678 -0.6652,1.4667 z m 5.0588,4.016 v 0.2242 c 0,0.5155 -0.315,0.9928 -0.9417,1.4379 -0.6268,0.4452 -1.3435,0.6661 -2.147,0.6661 -1.1569,0 -2.0795,-0.4035 -2.7705,-1.2137 -0.6911,-0.8102 -1.0348,-1.9024 -1.0348,-3.2698 0,-1.3963 0.3631,-2.5011 1.0926,-3.321 0.7297,-0.8198 1.7003,-1.2298 2.9185,-1.2298 0.8934,0 1.6165,0.2402 2.1759,0.7173 0.5592,0.4772 0.8388,1.0826 0.8388,1.8159 0,0.2979 -0.1702,0.4996 -0.5078,0.5989 -0.3407,0.0992 -1.3178,0.1505 -2.9312,0.1505 -0.4757,0 -0.8486,-0.003 -1.1153,-0.01 -0.2667,-0.007 -0.5175,-0.016 -0.7488,-0.0288 -0.0515,0.1697 -0.0869,0.3426 -0.1094,0.522 -0.0224,0.1794 -0.032,0.3714 -0.032,0.5764 0,1.0761 0.2569,1.9248 0.7681,2.546 0.511,0.6245 1.202,0.9351 2.0666,0.9351 0.4724,0 0.9095,-0.0928 1.3145,-0.2786 0.405,-0.1825 0.794,-0.4643 1.1635,-0.839 z"
       style="fill:#1b1918;fill-rule:evenodd"
       id="path132" />
    <path
       d="m 683.5651,427.4723 h 4.7946 c -0.3033,0.415 -0.5176,1.0611 -0.6365,1.9383 -0.1248,0.8713 -0.1845,2.3888 -0.1845,4.5581 0,1.4345 0.0299,2.4895 0.0894,3.1593 0.0535,0.6698 0.1546,1.2092 0.2974,1.6122 -1.2433,0.0713 -2.778,0.1898 -4.5924,0.3558 -1.8203,0.1718 -3.0041,0.2548 -3.5514,0.2548 -3.9142,0 -6.9123,-0.9662 -9.0004,-2.8984 -2.0879,-1.9324 -3.129,-4.7064 -3.129,-8.3162 0,-3.835 1.2731,-6.8638 3.8251,-9.0925 2.552,-2.2287 6.032,-3.3431 10.4519,-3.3431 0.7851,0 1.6536,0.0356 2.5935,0.1068 0.9399,0.0652 1.9274,0.1719 2.9625,0.3082 v 4.1669 c -0.8684,-0.984 -1.8858,-1.7249 -3.0398,-2.2168 -1.154,-0.492 -2.4509,-0.735 -3.8786,-0.735 -2.8374,0 -5.0801,0.9188 -6.7279,2.7503 -1.6478,1.8375 -2.4747,4.3329 -2.4747,7.4981 0,3.1474 0.8982,5.6013 2.6948,7.3677 1.7906,1.7663 4.283,2.6495 7.4656,2.6495 0.5236,0 0.9935,-0.0237 1.4218,-0.0711 0.4223,-0.0474 0.8328,-0.1127 1.2253,-0.2075 0.0953,-0.5986 0.1667,-1.2447 0.2082,-1.9264 0.0477,-0.6816 0.0715,-1.4404 0.0715,-2.2761 0,-1.6181 -0.0715,-2.8747 -0.2083,-3.7579 -0.1368,-0.8891 -0.3628,-1.5175 -0.6781,-1.885 z"
       style="fill:#83471c;fill-rule:evenodd"
       id="path133" />
    <path
       d="m 624.7109,427.4711 c 0.3126,-0.3339 0.5283,-1.0925 0.6534,-2.2869 0.1306,-1.1944 0.1932,-3.7471 0.1932,-7.6585 v -1.3925 c 0,-4.2736 -0.0626,-6.9962 -0.1932,-8.1737 -0.1251,-1.1774 -0.3408,-1.9302 -0.6534,-2.2642 h 1.0793 c 1.0113,0 2.2668,-0.0509 3.7722,-0.1471 1.4998,-0.0962 2.5052,-0.1472 3.0165,-0.1472 2.1075,0 3.7039,0.4925 4.7832,1.4774 1.0851,0.9849 1.6247,2.4397 1.6247,4.3585 0,1.9926 -0.5852,3.6171 -1.761,4.8794 -1.176,1.2622 -2.6927,1.8906 -4.5446,1.8906 -0.6647,0 -1.284,-0.0624 -1.8577,-0.1926 -0.5681,-0.1245 -1.0908,-0.3113 -1.5565,-0.5547 h 0.3521 c 1.852,0 3.3006,-0.5208 4.3515,-1.5566 1.0511,-1.0415 1.5737,-2.4849 1.5737,-4.3302 0,-1.5622 -0.3636,-2.717 -1.0964,-3.4756 -0.7329,-0.7584 -1.8577,-1.1377 -3.3631,-1.1377 -0.4317,0 -0.8407,0.0113 -1.2157,0.0396 -0.375,0.0284 -0.7328,0.0736 -1.0624,0.1245 -0.1134,0.4756 -0.1931,1.5624 -0.2441,3.2491 -0.0512,1.6926 -0.0739,3.985 -0.0739,6.8662 0,4.2793 0.0625,7.0076 0.1931,8.1793 0.1249,1.1717 0.3409,1.919 0.6533,2.2529 z"
       style="fill:#83471c;fill-rule:evenodd"
       id="path134" />
    <path
       d="m 636.9042,421.3607 h 0.1703 c 0.0257,0 0.18,0.006 0.4661,0.0191 0.286,0.0128 0.5624,0.0193 0.8324,0.0193 h 0.2475 c 0.8517,0 1.3787,-0.0448 1.5781,-0.1345 0.196,-0.0929 0.2956,-0.2658 0.2956,-0.522 0,-0.3875 -0.151,-0.7206 -0.4564,-0.9992 -0.3052,-0.2787 -0.6814,-0.4164 -1.1248,-0.4164 -0.5239,0 -0.9706,0.189 -1.3436,0.5669 -0.3727,0.3779 -0.5945,0.8678 -0.6652,1.4668 z m 5.0589,4.0159 v 0.2242 c 0,0.5156 -0.315,0.9928 -0.9417,1.4379 -0.6268,0.4452 -1.3434,0.6661 -2.1471,0.6661 -1.157,0 -2.0795,-0.4035 -2.7704,-1.2137 -0.6911,-0.8102 -1.0349,-1.9023 -1.0349,-3.2697 0,-1.3964 0.3632,-2.5012 1.0926,-3.3211 0.7297,-0.8198 1.7003,-1.2298 2.9185,-1.2298 0.8935,0 1.6166,0.2402 2.1759,0.7174 0.5593,0.4771 0.8389,1.0825 0.8389,1.8158 0,0.2979 -0.1704,0.4996 -0.5079,0.5989 -0.3407,0.0993 -1.3177,0.1505 -2.9311,0.1505 -0.4757,0 -0.8487,-0.003 -1.1153,-0.01 -0.2667,-0.006 -0.5175,-0.016 -0.7489,-0.0288 -0.0513,0.1698 -0.0869,0.3427 -0.1093,0.522 -0.0225,0.1794 -0.0321,0.3715 -0.0321,0.5764 0,1.0761 0.257,1.9248 0.7682,2.546 0.511,0.6246 1.202,0.9352 2.0666,0.9352 0.4725,0 0.9095,-0.0928 1.3145,-0.2787 0.4049,-0.1825 0.7939,-0.4643 1.1635,-0.839 z"
       style="fill:#1b1918;fill-rule:evenodd"
       id="path135" />
    <path
       d="m 647.5653,426.6832 c 0.6461,0 1.1058,-0.1825 1.3757,-0.5443 0.27,-0.362 0.405,-1.0729 0.405,-2.1298 0,-1.7133 -0.01,-2.8085 -0.0322,-3.2826 -0.0224,-0.4771 -0.0578,-0.7781 -0.1092,-0.903 -0.0611,-0.1602 -0.1865,-0.2819 -0.3728,-0.3588 -0.1833,-0.0799 -0.434,-0.1184 -0.7489,-0.1184 -1.0027,0 -1.7999,0.3395 -2.3816,1.0216 -0.585,0.6822 -0.8775,1.6204 -0.8775,2.815 0,1.044 0.2572,1.8895 0.7681,2.5332 0.5112,0.6437 1.17,0.9671 1.9734,0.9671 z m 3.4005,-12.6852 c -0.0738,0.6246 -0.1381,1.7487 -0.1928,3.3723 -0.0546,1.6236 -0.0803,3.4396 -0.0803,5.4476 0,1.915 0.0353,3.1319 0.1029,3.654 0.0706,0.522 0.196,0.855 0.376,0.9992 l -1.8064,0.112 c -0.032,-0.1505 -0.0546,-0.2914 -0.0642,-0.4259 -0.0129,-0.1344 -0.0193,-0.2754 -0.0193,-0.4163 v -0.2274 c -0.27,0.3747 -0.6299,0.6694 -1.0735,0.8775 -0.4468,0.2082 -0.9417,0.3138 -1.4881,0.3138 -1.0317,0 -1.861,-0.3842 -2.4908,-1.1528 -0.6332,-0.7719 -0.9482,-1.7902 -0.9482,-3.0585 0,-1.4955 0.4596,-2.6741 1.3756,-3.5323 0.9161,-0.8615 2.1759,-1.2907 3.7766,-1.2907 0.212,0 0.3887,0.003 0.5239,0.01 0.1349,0.007 0.2698,0.0161 0.408,0.0289 v -2.0176 c 0,-0.7334 -0.0257,-1.2682 -0.0802,-1.6045 -0.0515,-0.3394 -0.1415,-0.6052 -0.2669,-0.7974 z"
       style="fill:#1b1918;fill-rule:evenodd"
       id="path136" />
    <path
       d="m 652.8652,427.4711 c 0.151,-0.1121 0.257,-0.3299 0.3149,-0.6533 0.0611,-0.3203 0.0899,-0.916 0.0899,-1.7871 v -1.8478 -0.5893 c 0,-1.3899 -0.0288,-2.2962 -0.0899,-2.7221 -0.0579,-0.4259 -0.1639,-0.6917 -0.3149,-0.7975 0.2378,-0.0352 0.5302,-0.0864 0.8709,-0.144 0.344,-0.0609 0.5368,-0.0897 0.5786,-0.0897 0.196,0.006 0.2989,0.2722 0.3117,0.7973 0.006,0.1635 0.0129,0.2884 0.0194,0.3748 0.3021,-0.4676 0.6138,-0.8102 0.9416,-1.0216 0.328,-0.2145 0.6943,-0.3203 1.1025,-0.3203 0.3117,0 0.5657,0.0673 0.752,0.2018 0.1897,0.1345 0.2829,0.3106 0.2829,0.5316 0,0.1794 -0.0642,0.3203 -0.1929,0.4228 -0.1285,0.0993 -0.3149,0.1505 -0.5592,0.1505 -0.1029,0 -0.2668,-0.01 -0.5014,-0.0288 -0.2314,-0.0193 -0.4114,-0.0289 -0.5368,-0.0289 -0.527,0 -0.8742,0.1761 -1.038,0.5253 -0.1672,0.349 -0.2507,1.1752 -0.2507,2.4754 0,0.189 0.003,0.5509 0.01,1.0889 0.006,0.5381 0.01,0.9832 0.01,1.3323 0,0.6694 0.0291,1.1626 0.0901,1.4764 0.0579,0.317 0.1639,0.5347 0.3149,0.6533 z"
       style="fill:#1b1918;fill-rule:evenodd"
       id="path137" />
    <path
       d="m 662.5459,419.3848 c -0.7907,0 -1.3981,0.3041 -1.8191,0.9094 -0.4211,0.6054 -0.63,1.4892 -0.63,2.6453 0,1.2426 0.2539,2.2258 0.7617,2.9495 0.511,0.7206 1.1957,1.0825 2.0571,1.0825 0.752,0 1.3209,-0.317 1.7033,-0.9479 0.3825,-0.6309 0.5754,-1.5725 0.5754,-2.8215 0,-1.1337 -0.2474,-2.0528 -0.7392,-2.7573 -0.495,-0.7078 -1.1282,-1.06 -1.9092,-1.06 z m 0.331,-0.7143 c 1.2182,0 2.1695,0.3588 2.8542,1.0729 0.6846,0.7173 1.0253,1.7037 1.0253,2.9623 0,1.5308 -0.3858,2.7478 -1.1539,3.6477 -0.7682,0.8999 -1.8064,1.3514 -3.1113,1.3514 -1.2502,0 -2.2208,-0.381 -2.9151,-1.1433 -0.6942,-0.7653 -1.0413,-1.8318 -1.0413,-3.1993 0,-1.4154 0.4018,-2.5492 1.2052,-3.4075 0.8036,-0.855 1.8482,-1.2842 3.1369,-1.2842 z m 0.4469,-4.3265 h 1.6776 c -0.5142,0.9575 -1.0671,1.7005 -1.6584,2.2321 -0.5881,0.5316 -1.2502,0.8807 -1.9862,1.0504 0.4403,-0.5893 0.8228,-1.1561 1.1473,-1.7069 0.3278,-0.5508 0.6011,-1.0761 0.8197,-1.5756 z"
       style="fill:#1b1918;fill-rule:evenodd"
       id="path138" />
    <path
       d="m 625.8087,435.4357 -1.0069,-2.6729 -0.009,1.9629 v 0.1398 c 0,0.1362 0.008,0.2409 0.0239,0.3135 0.0153,0.0734 0.0407,0.1377 0.0764,0.1931 h -0.4956 c 0.0821,-0.0748 0.1416,-0.3128 0.1787,-0.716 0.0371,-0.4026 0.0553,-1.0185 0.0553,-1.8469 0,-0.0763 -0.008,-0.1377 -0.0248,-0.1841 -0.0159,-0.0471 -0.0436,-0.0905 -0.0835,-0.1317 h 0.4867 c 0.04,0 0.0662,0.005 0.0793,0.0165 0.0123,0.0112 0.0246,0.0322 0.0356,0.0643 l 0.7883,2.1686 0.8769,-2.1461 c 0.0152,-0.0412 0.0327,-0.0689 0.0523,-0.0823 0.0189,-0.0142 0.0495,-0.021 0.0923,-0.021 h 0.4257 c -0.037,0.0494 -0.0639,0.128 -0.0799,0.2357 -0.0167,0.1078 -0.0246,0.2627 -0.0246,0.4662 0,0.7514 0.0152,1.2767 0.0457,1.5774 0.0306,0.3001 0.0836,0.4999 0.1584,0.5994 h -0.6401 c 0.0407,-0.0644 0.0705,-0.1444 0.0879,-0.2402 0.0181,-0.0958 0.0269,-0.2327 0.0269,-0.4108 0,-10e-4 -7e-4,-0.0113 -0.002,-0.0285 -0.003,-0.1145 -0.006,-0.2342 -0.009,-0.3598 l -0.0254,-1.57 z m 6.6675,-0.0636 0.0123,-0.4235 c -0.0907,0.1541 -0.2142,0.2716 -0.3698,0.3547 -0.1562,0.0823 -0.3334,0.1234 -0.5325,0.1234 -0.3073,0 -0.5326,-0.077 -0.675,-0.2312 -0.1431,-0.1542 -0.2143,-0.3981 -0.2143,-0.731 0,-0.0892 7e-4,-0.1931 0.002,-0.3128 10e-4,-0.119 0.002,-0.1923 0.002,-0.22 0,-0.5904 -0.008,-0.9668 -0.0248,-1.1277 -0.0159,-0.1617 -0.0435,-0.2649 -0.0834,-0.3106 h 0.5913 c -0.0421,0.0412 -0.0719,0.1542 -0.0879,0.339 -0.0167,0.1848 -0.0247,0.5912 -0.0247,1.2198 0,0.4602 0.0501,0.7639 0.1512,0.9113 0.101,0.1467 0.2775,0.22 0.5296,0.22 0.2579,0 0.4418,-0.0913 0.55,-0.2739 0.1083,-0.1824 0.1628,-0.5087 0.1628,-0.9779 0,-0.5919 -0.008,-0.9691 -0.0234,-1.13 -0.0159,-0.1616 -0.0442,-0.2641 -0.0849,-0.3083 h 0.5979 c -0.0422,0.0442 -0.0719,0.1467 -0.0879,0.3083 -0.0167,0.1609 -0.0246,0.5381 -0.0246,1.13 0,0.5918 0.008,0.969 0.0246,1.1313 0.016,0.1624 0.0457,0.2649 0.0879,0.3091 z m 3.9895,-2.5367 0.013,1.4495 c 0.003,0.348 0.0153,0.5963 0.0371,0.746 0.0218,0.1504 0.0581,0.2634 0.1076,0.3412 h -0.5065 c 0.0567,-0.0748 0.0981,-0.2477 0.1235,-0.5186 0.0255,-0.2709 0.0386,-0.6666 0.0386,-1.1867 0,-0.461 -0.0117,-0.7603 -0.035,-0.898 -0.024,-0.1384 -0.0661,-0.2297 -0.1271,-0.2754 h 0.4533 c 0.0822,0 0.1737,0.0786 0.2747,0.2365 0.0254,0.0412 0.0457,0.0733 0.0618,0.0965 0.0821,0.1242 0.2092,0.3211 0.3806,0.5897 0.3975,0.6248 0.7172,1.1059 0.9584,1.4449 l 0.004,-1.2578 c 0,-0.4041 -0.009,-0.6765 -0.0253,-0.8194 -0.0175,-0.1422 -0.0465,-0.2395 -0.0895,-0.2904 h 0.4149 c -0.0421,0.0412 -0.0719,0.1504 -0.0878,0.3278 -0.0169,0.1773 -0.0248,0.5365 -0.0248,1.0776 v 0.5747 0.9121 h -0.2833 c -0.0967,-0.1579 -0.3372,-0.5239 -0.7215,-1.0962 -0.3851,-0.5732 -0.7069,-1.0581 -0.967,-1.454 z m 5.3045,2.5367 c 0.0399,-0.0442 0.0676,-0.1444 0.0835,-0.3023 0.0167,-0.1579 0.0248,-0.4954 0.0248,-1.0131 v -0.1841 c 0,-0.5643 -0.008,-0.9242 -0.0248,-1.0798 -0.0159,-0.1557 -0.0436,-0.2552 -0.0835,-0.2994 h 0.5914 c -0.04,0.0427 -0.0676,0.14 -0.0836,0.2919 -0.0167,0.1519 -0.0246,0.4752 -0.0246,0.9713 v 0.1751 0.1729 c 0,0.4975 0.008,0.8223 0.0246,0.9749 0.016,0.1527 0.0436,0.2499 0.0836,0.2926 z m 5.8501,-2.8787 -0.0254,0.6166 c -0.0624,-0.1564 -0.1496,-0.2738 -0.2615,-0.3532 -0.1126,-0.0785 -0.2485,-0.1182 -0.409,-0.1182 -0.3118,0 -0.5566,0.1063 -0.7346,0.318 -0.178,0.2118 -0.2674,0.5044 -0.2674,0.8771 0,0.3837 0.0974,0.6898 0.2928,0.918 0.1947,0.2283 0.4556,0.342 0.7818,0.342 0.1548,0 0.2993,-0.0307 0.433,-0.092 0.1344,-0.0614 0.2499,-0.1497 0.348,-0.2634 -0.0509,0.2088 -0.1656,0.3756 -0.3436,0.5006 -0.1781,0.125 -0.3923,0.1878 -0.6416,0.1878 -0.3807,0 -0.6923,-0.1369 -0.9365,-0.4101 -0.2441,-0.2731 -0.3661,-0.6247 -0.3661,-1.0542 0,-0.4752 0.1314,-0.8471 0.3938,-1.1173 0.2622,-0.2694 0.6247,-0.4041 1.0876,-0.4041 0.0719,0 0.1802,0.009 0.324,0.0262 0.1446,0.018 0.2521,0.0262 0.3247,0.0262 z m 3.2587,2.8787 c 0.0399,-0.0442 0.0676,-0.1444 0.0835,-0.3023 0.0167,-0.1579 0.0248,-0.4954 0.0248,-1.0131 v -0.1841 c 0,-0.5643 -0.008,-0.9242 -0.0248,-1.0798 -0.0159,-0.1557 -0.0436,-0.2552 -0.0835,-0.2994 h 0.5914 c -0.04,0.0427 -0.0676,0.14 -0.0836,0.2919 -0.0167,0.1519 -0.0247,0.4752 -0.0247,0.9713 v 0.1751 0.1729 c 0,0.4975 0.008,0.8223 0.0247,0.9749 0.016,0.1527 0.0436,0.2499 0.0836,0.2926 z m 0.4483,-3.9375 h 0.3792 c -0.1162,0.2237 -0.2412,0.3973 -0.3749,0.5215 -0.133,0.1243 -0.2826,0.2058 -0.449,0.2455 0.0995,-0.1377 0.186,-0.2702 0.2594,-0.3989 0.0741,-0.1287 0.1358,-0.2514 0.1853,-0.3681 z m 3.3632,3.9375 c 0.0399,-0.0442 0.0676,-0.1444 0.0835,-0.3023 0.0167,-0.1579 0.0247,-0.4954 0.0247,-1.0124 v -0.1841 c 0,-0.565 -0.008,-0.9249 -0.0247,-1.0805 -0.0159,-0.1557 -0.0436,-0.2552 -0.0835,-0.2994 h 0.1379 c 0.1294,0 0.29,-0.007 0.4825,-0.0194 0.1918,-0.0128 0.3204,-0.0195 0.3858,-0.0195 0.2696,0 0.4737,0.0651 0.6118,0.1953 0.1387,0.1302 0.2078,0.3225 0.2078,0.5762 0,0.2634 -0.0749,0.4782 -0.2253,0.6451 -0.1504,0.1669 -0.3444,0.2499 -0.5812,0.2499 -0.085,0 -0.1642,-0.008 -0.2375,-0.0254 -0.0728,-0.0165 -0.1396,-0.0412 -0.1992,-0.0734 h 0.0451 c 0.2369,0 0.4221,-0.0688 0.5565,-0.2058 0.1345,-0.1376 0.2013,-0.3285 0.2013,-0.5724 0,-0.2065 -0.0465,-0.3592 -0.1402,-0.4595 -0.0938,-0.1003 -0.2376,-0.1504 -0.4301,-0.1504 -0.0553,0 -0.1076,0.002 -0.1556,0.005 -0.048,0.004 -0.0937,0.01 -0.1358,0.0165 -0.0146,0.0629 -0.0247,0.2065 -0.0313,0.4295 -0.006,0.2238 -0.009,0.5269 -0.009,0.9078 0,0.5657 0.008,0.9263 0.0247,1.0812 0.016,0.1549 0.0436,0.2536 0.0836,0.2978 z m 4.8714,0 c 0.0399,-0.0442 0.0676,-0.1444 0.0835,-0.3023 0.0167,-0.1579 0.0248,-0.4954 0.0248,-1.0131 v -0.1841 c 0,-0.5643 -0.008,-0.9242 -0.0248,-1.0798 -0.0159,-0.1557 -0.0436,-0.2552 -0.0835,-0.2994 h 0.5914 c -0.04,0.0427 -0.0676,0.14 -0.0836,0.2919 -0.0167,0.1519 -0.0247,0.4752 -0.0247,0.9713 v 0.1751 0.1729 c 0,0.4975 0.008,0.8223 0.0247,0.9749 0.016,0.1527 0.0436,0.2499 0.0836,0.2926 z m 5.1352,-0.1624 c 0.2652,0 0.4737,-0.1055 0.6248,-0.3165 0.1512,-0.2109 0.2267,-0.505 0.2267,-0.8822 0,-0.425 -0.0806,-0.7595 -0.2426,-1.0027 -0.1621,-0.2432 -0.3829,-0.3652 -0.6641,-0.3652 -0.2899,0 -0.5151,0.1077 -0.6771,0.3225 -0.1621,0.2148 -0.2426,0.5156 -0.2426,0.9025 0,0.4243 0.0857,0.7534 0.2564,0.9884 0.1708,0.2357 0.4105,0.3532 0.7185,0.3532 z m -0.1337,0.217 c -0.4105,0 -0.7265,-0.1242 -0.948,-0.3734 -0.2224,-0.2492 -0.3336,-0.6045 -0.3336,-1.0647 0,-0.5014 0.1206,-0.8845 0.3618,-1.1495 0.2413,-0.2656 0.59,-0.3981 1.0456,-0.3981 0.4301,0 0.7534,0.1183 0.9706,0.354 0.2173,0.2365 0.3255,0.5882 0.3255,1.0559 0,0.4774 -0.1293,0.8597 -0.3873,1.1463 -0.2586,0.2866 -0.603,0.4295 -1.0346,0.4295 z"
       style="fill:#0055a2;fill-rule:evenodd"
       id="path139" />
  </g>
</svg>
