<?xml version="1.0" encoding="UTF-8" standalone="no"?>
<svg
   version="1.1"
   width="1.7352817in"
   height="1.735281in"
   viewBox="0 0 124.94053 124.94048"
   id="svg206"
   sodipodi:docname="Catálogo 2024 TD Produções.cdr"
   xmlns:inkscape="http://www.inkscape.org/namespaces/inkscape"
   xmlns:sodipodi="http://sodipodi.sourceforge.net/DTD/sodipodi-0.dtd"
   xmlns:xlink="http://www.w3.org/1999/xlink"
   xmlns="http://www.w3.org/2000/svg"
   xmlns:svg="http://www.w3.org/2000/svg">
  <sodipodi:namedview
     id="namedview206"
     pagecolor="#ffffff"
     bordercolor="#000000"
     borderopacity="0.25"
     inkscape:showpageshadow="2"
     inkscape:pageopacity="0.0"
     inkscape:pagecheckerboard="0"
     inkscape:deskcolor="#d1d1d1"
     inkscape:document-units="in" />
  <defs
     id="defs3" />
  <defs
     id="defs6" />
  <defs
     id="defs8" />
  <defs
     id="defs10" />
  <g
     id="Layer1013"
     inkscape:export-filename="design grafico\steak house.svg"
     inkscape:export-xdpi="96"
     inkscape:export-ydpi="96"
     transform="translate(-827.45218,-178.59802)">
    <path
       d="m 889.9223,178.598 c 34.5013,0 62.4704,27.969 62.4704,62.4701 0,34.5013 -27.9691,62.4704 -62.4704,62.4704 -34.5011,0 -62.4701,-27.9691 -62.4701,-62.4704 0,-34.5011 27.969,-62.4701 62.4701,-62.4701 z"
       style="fill:#1b1918;fill-rule:evenodd"
       id="path20" />
    <defs
       id="defs29">
      <linearGradient
         id="grad34">
        <stop
           offset="0.0000%"
           stop-color="#805711"
           stop-opacity="1.0000"
           id="stop20" />
        <stop
           offset="12.0000%"
           stop-color="#947025"
           stop-opacity="1.0000"
           id="stop21" />
        <stop
           offset="28.0000%"
           stop-color="#ccb260"
           stop-opacity="1.0000"
           id="stop22" />
        <stop
           offset="40.0000%"
           stop-color="#c6a864"
           stop-opacity="1.0000"
           id="stop23" />
        <stop
           offset="50.0000%"
           stop-color="#fef3b3"
           stop-opacity="1.0000"
           id="stop24" />
        <stop
           offset="69.0000%"
           stop-color="#ccb260"
           stop-opacity="1.0000"
           id="stop25" />
        <stop
           offset="79.0000%"
           stop-color="#9e8241"
           stop-opacity="1.0000"
           id="stop26" />
        <stop
           offset="87.0000%"
           stop-color="#a37b26"
           stop-opacity="1.0000"
           id="stop27" />
        <stop
           offset="91.0000%"
           stop-color="#c09838"
           stop-opacity="1.0000"
           id="stop28" />
        <stop
           offset="100.0000%"
           stop-color="#866400"
           stop-opacity="1.0000"
           id="stop29" />
      </linearGradient>
      <linearGradient
         xlink:href="#grad34"
         id="grad35"
         x1="827.45221"
         y1="178.59801"
         x2="827.45221"
         y2="303.53851"
         gradientUnits="userSpaceOnUse" />
    </defs>
    <path
       d="m 889.9223,178.598 c 34.5013,0 62.4704,27.969 62.4704,62.4701 0,34.5013 -27.9691,62.4704 -62.4704,62.4704 -34.5011,0 -62.4701,-27.9691 -62.4701,-62.4704 0,-34.5011 27.969,-62.4701 62.4701,-62.4701 z m 2e-4,2.2975 c 33.2326,0 60.1729,26.9403 60.1729,60.1728 0,33.2326 -26.9403,60.1729 -60.1729,60.1729 -33.2326,0 -60.1729,-26.9403 -60.1729,-60.1729 0,-33.2325 26.9403,-60.1728 60.1729,-60.1728 z"
       style="fill:url(#grad35)"
       id="path29" />
    <defs
       id="defs39">
      <linearGradient
         id="grad36"
         gradientTransform="scale(0.53309231,1.8758477)"
         x1="1729.3376"
         y1="108.28022"
         x2="1773.454"
         y2="108.28022"
         gradientUnits="userSpaceOnUse">
        <stop
           offset="0.0000%"
           stop-color="#805711"
           stop-opacity="1.0000"
           id="stop30" />
        <stop
           offset="12.0000%"
           stop-color="#947025"
           stop-opacity="1.0000"
           id="stop31" />
        <stop
           offset="28.0000%"
           stop-color="#ccb260"
           stop-opacity="1.0000"
           id="stop32" />
        <stop
           offset="40.0000%"
           stop-color="#c6a864"
           stop-opacity="1.0000"
           id="stop33" />
        <stop
           offset="50.0000%"
           stop-color="#fef3b3"
           stop-opacity="1.0000"
           id="stop34" />
        <stop
           offset="69.0000%"
           stop-color="#ccb260"
           stop-opacity="1.0000"
           id="stop35" />
        <stop
           offset="79.0000%"
           stop-color="#9e8241"
           stop-opacity="1.0000"
           id="stop36" />
        <stop
           offset="87.0000%"
           stop-color="#a37b26"
           stop-opacity="1.0000"
           id="stop37" />
        <stop
           offset="91.0000%"
           stop-color="#c09838"
           stop-opacity="1.0000"
           id="stop38" />
        <stop
           offset="100.0000%"
           stop-color="#866400"
           stop-opacity="1.0000"
           id="stop39" />
      </linearGradient>
    </defs>
    <path
       d="m 929.8984,203.1172 c -0.4394,0 -0.7957,0.3564 -0.7957,0.796 0,0.4394 0.3563,0.7958 0.7957,0.7958 0.4397,0 0.796,-0.3564 0.796,-0.7958 0,-0.4396 -0.3563,-0.796 -0.796,-0.796 z m -7.206,81.1638 c -0.4394,0 -0.7958,0.3564 -0.7958,0.796 0,0.4394 0.3564,0.7958 0.7958,0.7958 0.4396,0 0.796,-0.3564 0.796,-0.7958 0,-0.4396 -0.3564,-0.796 -0.796,-0.796 z m 1.6811,-1.4156 c -0.4395,0 -0.7958,0.3564 -0.7958,0.796 0,0.4394 0.3563,0.7958 0.7958,0.7958 0.4396,0 0.7959,-0.3564 0.7959,-0.7958 0,-0.4396 -0.3563,-0.796 -0.7959,-0.796 z m 1.9467,-1.5928 c -0.4394,0 -0.7958,0.3564 -0.7958,0.796 0,0.4394 0.3564,0.7958 0.7958,0.7958 0.4396,0 0.796,-0.3564 0.796,-0.7958 0,-0.4396 -0.3564,-0.796 -0.796,-0.796 z m 1.5926,-1.4156 c -0.4395,0 -0.7958,0.3564 -0.7958,0.796 0,0.4394 0.3563,0.7958 0.7958,0.7958 0.4396,0 0.796,-0.3564 0.796,-0.7958 0,-0.4396 -0.3564,-0.796 -0.796,-0.796 z m 1.5928,-1.6813 c -0.4395,0 -0.7958,0.3564 -0.7958,0.796 0,0.4394 0.3563,0.7958 0.7958,0.7958 0.4396,0 0.796,-0.3564 0.796,-0.7958 0,-0.4396 -0.3564,-0.796 -0.796,-0.796 z m 1.5925,-1.5926 c -0.4394,0 -0.7957,0.3564 -0.7957,0.796 0,0.4395 0.3563,0.7958 0.7957,0.7958 0.4397,0 0.796,-0.3563 0.796,-0.7958 0,-0.4396 -0.3563,-0.796 -0.796,-0.796 z m 1.5043,-1.7697 c -0.4394,0 -0.7957,0.3563 -0.7957,0.796 0,0.4394 0.3563,0.7958 0.7957,0.7958 0.4397,0 0.796,-0.3564 0.796,-0.7958 0,-0.4397 -0.3563,-0.796 -0.796,-0.796 z m 1.3272,-1.8581 c -0.4395,0 -0.7958,0.3564 -0.7958,0.796 0,0.4395 0.3563,0.7958 0.7958,0.7958 0.4396,0 0.796,-0.3563 0.796,-0.7958 0,-0.4396 -0.3564,-0.796 -0.796,-0.796 z m 1.3273,-1.8582 c -0.4394,0 -0.7958,0.3563 -0.7958,0.796 0,0.4394 0.3564,0.7958 0.7958,0.7958 0.4396,0 0.796,-0.3564 0.796,-0.7958 0,-0.4397 -0.3564,-0.796 -0.796,-0.796 z m 1.2388,-1.9466 c -0.4394,0 -0.7958,0.3564 -0.7958,0.796 0,0.4395 0.3564,0.7958 0.7958,0.7958 0.4396,0 0.796,-0.3563 0.796,-0.7958 0,-0.4396 -0.3564,-0.796 -0.796,-0.796 z m 1.1311,-2.051 c -0.4394,0 -0.7958,0.3563 -0.7958,0.796 0,0.4394 0.3564,0.7958 0.7958,0.7958 0.4396,0 0.796,-0.3564 0.796,-0.7958 0,-0.4397 -0.3564,-0.796 -0.796,-0.796 z m 1.0619,-1.9468 c -0.4395,0 -0.7958,0.3564 -0.7958,0.796 0,0.4395 0.3563,0.7958 0.7958,0.7958 0.4396,0 0.7959,-0.3563 0.7959,-0.7958 0,-0.4396 -0.3563,-0.796 -0.7959,-0.796 z m 0.9733,-2.212 c -0.4394,0 -0.7958,0.3564 -0.7958,0.796 0,0.4395 0.3564,0.7958 0.7958,0.7958 0.4397,0 0.796,-0.3563 0.796,-0.7958 0,-0.4396 -0.3563,-0.796 -0.796,-0.796 z m 0.8847,-1.9465 c -0.4394,0 -0.7958,0.3564 -0.7958,0.796 0,0.4394 0.3564,0.7958 0.7958,0.7958 0.4396,0 0.796,-0.3564 0.796,-0.7958 0,-0.4396 -0.3564,-0.796 -0.796,-0.796 z m 0.8849,-2.2122 c -0.4394,0 -0.7958,0.3564 -0.7958,0.796 0,0.4394 0.3564,0.7958 0.7958,0.7958 0.4396,0 0.796,-0.3564 0.796,-0.7958 0,-0.4396 -0.3564,-0.796 -0.796,-0.796 z m 0.7079,-2.035 c -0.4394,0 -0.7958,0.3563 -0.7958,0.796 0,0.4394 0.3564,0.7958 0.7958,0.7958 0.4396,0 0.796,-0.3564 0.796,-0.7958 0,-0.4397 -0.3564,-0.796 -0.796,-0.796 z m 0.7079,-2.2116 c -0.4394,0 -0.7958,0.3563 -0.7958,0.796 0,0.4394 0.3564,0.7958 0.7958,0.7958 0.4396,0 0.796,-0.3564 0.796,-0.7958 0,-0.4397 -0.3564,-0.796 -0.796,-0.796 z m 0.5309,-2.3011 c -0.4394,0 -0.7958,0.3563 -0.7958,0.796 0,0.4394 0.3564,0.7958 0.7958,0.7958 0.4397,0 0.796,-0.3564 0.796,-0.7958 0,-0.4397 -0.3563,-0.796 -0.796,-0.796 z m 0.354,-2.3005 c -0.4395,0 -0.7958,0.3564 -0.7958,0.796 0,0.4394 0.3563,0.7958 0.7958,0.7958 0.4396,0 0.796,-0.3564 0.796,-0.7958 0,-0.4396 -0.3564,-0.796 -0.796,-0.796 z m 0.4422,-2.3886 c -0.4394,0 -0.7958,0.3564 -0.7958,0.796 0,0.4394 0.3564,0.7958 0.7958,0.7958 0.4396,0 0.796,-0.3564 0.796,-0.7958 0,-0.4396 -0.3564,-0.796 -0.796,-0.796 z m 0.177,-2.212 c -0.4394,0 -0.7958,0.3564 -0.7958,0.796 0,0.4394 0.3564,0.7958 0.7958,0.7958 0.4396,0 0.796,-0.3564 0.796,-0.7958 0,-0.4396 -0.3564,-0.796 -0.796,-0.796 z m 0.2655,-2.1241 c -0.4395,0 -0.7958,0.3564 -0.7958,0.796 0,0.4394 0.3563,0.7958 0.7958,0.7958 0.4396,0 0.7959,-0.3564 0.7959,-0.7958 0,-0.4396 -0.3563,-0.796 -0.7959,-0.796 z m 0,-2.4775 c -0.4395,0 -0.7958,0.3564 -0.7958,0.796 0,0.4395 0.3563,0.7958 0.7958,0.7958 0.4396,0 0.7959,-0.3563 0.7959,-0.7958 0,-0.4396 -0.3563,-0.796 -0.7959,-0.796 z m 0.002,-2.2669 c -0.4395,0 -0.7958,0.3563 -0.7958,0.796 0,0.4394 0.3563,0.7957 0.7958,0.7957 0.4396,0 0.7959,-0.3563 0.7959,-0.7957 0,-0.4397 -0.3563,-0.796 -0.7959,-0.796 z m -0.0903,-2.2457 c -0.4395,0 -0.7958,0.3563 -0.7958,0.7959 0,0.4395 0.3563,0.7958 0.7958,0.7958 0.4396,0 0.796,-0.3563 0.796,-0.7958 0,-0.4396 -0.3564,-0.7959 -0.796,-0.7959 z m -0.2655,-2.3005 c -0.4394,0 -0.7958,0.3563 -0.7958,0.796 0,0.4394 0.3564,0.7957 0.7958,0.7957 0.4396,0 0.796,-0.3563 0.796,-0.7957 0,-0.4397 -0.3564,-0.796 -0.796,-0.796 z m -0.3538,-2.3007 c -0.4394,0 -0.7957,0.3563 -0.7957,0.796 0,0.4394 0.3563,0.7958 0.7957,0.7958 0.4397,0 0.796,-0.3564 0.796,-0.7958 0,-0.4397 -0.3563,-0.796 -0.796,-0.796 z m -0.4424,-2.212 c -0.4394,0 -0.7958,0.3563 -0.7958,0.796 0,0.4394 0.3564,0.7958 0.7958,0.7958 0.4396,0 0.796,-0.3564 0.796,-0.7958 0,-0.4397 -0.3564,-0.796 -0.796,-0.796 z m -0.4729,-2.2213 c -0.4395,0 -0.7958,0.3564 -0.7958,0.796 0,0.4395 0.3563,0.7958 0.7958,0.7958 0.4396,0 0.796,-0.3563 0.796,-0.7958 0,-0.4396 -0.3564,-0.796 -0.796,-0.796 z m -0.7079,-2.2563 c -0.4395,0 -0.7958,0.3564 -0.7958,0.796 0,0.4394 0.3563,0.7958 0.7958,0.7958 0.4396,0 0.796,-0.3564 0.796,-0.7958 0,-0.4396 -0.3564,-0.796 -0.796,-0.796 z m -0.6636,-2.212 c -0.4394,0 -0.7958,0.3564 -0.7958,0.796 0,0.4394 0.3564,0.7958 0.7958,0.7958 0.4396,0 0.796,-0.3564 0.796,-0.7958 0,-0.4396 -0.3564,-0.796 -0.796,-0.796 z m -0.752,-2.1237 c -0.4395,0 -0.7958,0.3563 -0.7958,0.796 0,0.4394 0.3563,0.7958 0.7958,0.7958 0.4396,0 0.7959,-0.3564 0.7959,-0.7958 0,-0.4397 -0.3563,-0.796 -0.7959,-0.796 z m -0.8849,-2.1235 c -0.4395,0 -0.7958,0.3563 -0.7958,0.796 0,0.4394 0.3563,0.7958 0.7958,0.7958 0.4396,0 0.796,-0.3564 0.796,-0.7958 0,-0.4397 -0.3564,-0.796 -0.796,-0.796 z m -1.0619,-2.0794 c -0.4394,0 -0.7958,0.3564 -0.7958,0.796 0,0.4394 0.3564,0.7958 0.7958,0.7958 0.4397,0 0.796,-0.3564 0.796,-0.7958 0,-0.4396 -0.3563,-0.796 -0.796,-0.796 z m -0.9731,-2.0794 c -0.4395,0 -0.7958,0.3564 -0.7958,0.796 0,0.4395 0.3563,0.7958 0.7958,0.7958 0.4396,0 0.7959,-0.3563 0.7959,-0.7958 0,-0.4396 -0.3563,-0.796 -0.7959,-0.796 z m -1.1062,-2.035 c -0.4395,0 -0.7958,0.3564 -0.7958,0.796 0,0.4394 0.3563,0.7958 0.7958,0.7958 0.4396,0 0.7959,-0.3564 0.7959,-0.7958 0,-0.4396 -0.3563,-0.796 -0.7959,-0.796 z m -1.283,-1.8582 c -0.4395,0 -0.7958,0.3563 -0.7958,0.796 0,0.4394 0.3563,0.7957 0.7958,0.7957 0.4396,0 0.796,-0.3563 0.796,-0.7957 0,-0.4397 -0.3564,-0.796 -0.796,-0.796 z m -1.283,-1.8581 c -0.4394,0 -0.7958,0.3564 -0.7958,0.796 0,0.4394 0.3564,0.7958 0.7958,0.7958 0.4396,0 0.796,-0.3564 0.796,-0.7958 0,-0.4396 -0.3564,-0.796 -0.796,-0.796 z m -1.3273,-1.9024 c -0.4395,0 -0.7958,0.3564 -0.7958,0.796 0,0.4394 0.3563,0.7958 0.7958,0.7958 0.4396,0 0.796,-0.3564 0.796,-0.7958 0,-0.4396 -0.3564,-0.796 -0.796,-0.796 z m -1.5041,-1.7697 c -0.4394,0 -0.7958,0.3563 -0.7958,0.796 0,0.4394 0.3564,0.7957 0.7958,0.7957 0.4396,0 0.796,-0.3563 0.796,-0.7957 0,-0.4397 -0.3564,-0.796 -0.796,-0.796 z"
       style="fill:url(#grad36)"
       id="path39" />
    <defs
       id="defs49">
      <linearGradient
         id="grad37">
        <stop
           offset="0.0000%"
           stop-color="#805711"
           stop-opacity="1.0000"
           id="stop40" />
        <stop
           offset="11.0000%"
           stop-color="#947025"
           stop-opacity="1.0000"
           id="stop41" />
        <stop
           offset="28.0000%"
           stop-color="#ffdd8c"
           stop-opacity="1.0000"
           id="stop42" />
        <stop
           offset="40.0000%"
           stop-color="#c6a864"
           stop-opacity="1.0000"
           id="stop43" />
        <stop
           offset="50.0000%"
           stop-color="#fef3b3"
           stop-opacity="1.0000"
           id="stop44" />
        <stop
           offset="69.0000%"
           stop-color="#ccb260"
           stop-opacity="1.0000"
           id="stop45" />
        <stop
           offset="79.0000%"
           stop-color="#ffdd8c"
           stop-opacity="1.0000"
           id="stop46" />
        <stop
           offset="87.0000%"
           stop-color="#ccb260"
           stop-opacity="1.0000"
           id="stop47" />
        <stop
           offset="91.0000%"
           stop-color="#c09838"
           stop-opacity="1.0000"
           id="stop48" />
        <stop
           offset="100.0000%"
           stop-color="#fef3b3"
           stop-opacity="1.0000"
           id="stop49" />
      </linearGradient>
      <linearGradient
         xlink:href="#grad37"
         id="grad38"
         x1="398.29108"
         y1="631.79303"
         x2="398.29108"
         y2="648.91486"
         gradientTransform="scale(2.1871667,0.45721253)"
         gradientUnits="userSpaceOnUse" />
    </defs>
    <path
       d="m 873.2276,294.2065 c -0.4497,-0.1264 -0.8233,-0.3098 -1.1211,-0.5502 -0.2977,-0.2404 -0.5261,-0.5092 -0.6852,-0.8064 -0.1591,-0.2972 -0.253,-0.6128 -0.2817,-0.9467 -0.0289,-0.3341 10e-4,-0.6591 0.0899,-0.9748 0.0887,-0.3158 0.2321,-0.6087 0.4306,-0.879 0.1984,-0.2703 0.443,-0.4906 0.7336,-0.6616 0.2905,-0.1707 0.6256,-0.2813 1.005,-0.3315 0.3793,-0.0503 0.7938,-0.0124 1.2435,0.114 0.4498,0.1264 0.8237,0.3096 1.1212,0.5502 0.2976,0.2404 0.5259,0.5091 0.6853,0.8062 0.1591,0.2974 0.252,0.6126 0.2783,0.9459 0.0264,0.3335 -0.005,0.658 -0.0933,0.9738 -0.0887,0.3156 -0.2312,0.6092 -0.4274,0.8798 -0.1961,0.2709 -0.4395,0.4918 -0.73,0.6628 -0.2908,0.1706 -0.6258,0.2813 -1.0051,0.3315 -0.3792,0.0503 -0.7938,0.0122 -1.2436,-0.114 z m 1.3686,-4.8729 c -0.3178,-0.0892 -0.6142,-0.0989 -0.8889,-0.0288 -0.2745,0.0698 -0.5221,0.1926 -0.743,0.3684 -0.2209,0.1757 -0.4109,0.3942 -0.5702,0.6559 -0.1592,0.2616 -0.28,0.5389 -0.3624,0.8319 -0.0823,0.2931 -0.1246,0.5925 -0.1272,0.8983 -0.003,0.3054 0.0447,0.5909 0.1418,0.8558 0.0971,0.2651 0.2458,0.4992 0.4461,0.7025 0.2002,0.2033 0.4593,0.3495 0.7773,0.4388 0.3182,0.0895 0.6144,0.0991 0.8889,0.0293 0.2745,-0.07 0.5223,-0.1928 0.743,-0.3686 0.2211,-0.1756 0.4112,-0.3943 0.5705,-0.6557 0.1591,-0.2617 0.2801,-0.5392 0.3624,-0.8321 0.0822,-0.2932 0.1236,-0.5928 0.1238,-0.899 2e-4,-0.3064 -0.0482,-0.5919 -0.1455,-0.8571 -0.0969,-0.2651 -0.2446,-0.4989 -0.4427,-0.7013 -0.1978,-0.2029 -0.4556,-0.3488 -0.7739,-0.4383 z m 8.8326,1.9203 -0.4007,3.2743 c -0.0552,0.4496 -0.1397,0.8102 -0.2537,1.0813 -0.1141,0.2713 -0.2556,0.4763 -0.4245,0.615 -0.1692,0.1386 -0.3662,0.2227 -0.591,0.2522 -0.2245,0.0295 -0.4705,0.0279 -0.7374,-0.005 -0.206,-0.0253 -0.3997,-0.0857 -0.5804,-0.1816 -0.1808,-0.0957 -0.3337,-0.2346 -0.4589,-0.4162 l 0.1693,-0.1005 c 0.0644,0.0935 0.1361,0.17 0.2143,0.2296 0.0781,0.0594 0.1579,0.1083 0.2386,0.1468 0.0808,0.0384 0.1607,0.0671 0.2392,0.0863 0.0784,0.0191 0.1458,0.0321 0.202,0.0389 0.178,0.0219 0.3379,0.007 0.4798,-0.0447 0.1416,-0.0516 0.2654,-0.1495 0.371,-0.2934 0.1055,-0.1438 0.1946,-0.3387 0.2675,-0.5841 0.073,-0.2454 0.1314,-0.5483 0.1755,-0.9091 l 0.4009,-3.2743 z m 2.8077,0.2456 0.621,0.0472 1.9369,5.1453 -0.8118,-0.0618 -0.4699,-1.2852 -2.9715,-0.2263 -0.6662,1.1987 -0.2965,-0.0225 z m -1.5478,3.3607 2.7174,0.2069 -1.122,-3.0742 z m 4.9617,-3.1847 2.4622,-0.0739 c 0.3586,-0.0108 0.6648,0.0438 0.9184,0.1636 0.2541,0.1198 0.4559,0.2779 0.6058,0.4741 0.1497,0.196 0.246,0.414 0.2885,0.6533 0.0428,0.2396 0.0309,0.4738 -0.0355,0.7023 -0.0662,0.2286 -0.1888,0.4352 -0.3672,0.62 -0.1787,0.1848 -0.4153,0.3217 -0.7103,0.4108 l 0.0147,0.0138 c 0.1904,0.051 0.3605,0.1391 0.5108,0.2643 0.1501,0.1254 0.2797,0.2737 0.3885,0.4452 0.1092,0.1714 0.1972,0.3578 0.2649,0.5586 0.0674,0.2009 0.1135,0.405 0.1386,0.612 l -0.7428,0.0223 c -0.009,-0.3114 -0.0542,-0.5817 -0.134,-0.8104 -0.0803,-0.229 -0.1804,-0.4196 -0.3006,-0.5719 -0.1204,-0.1521 -0.2559,-0.2636 -0.4065,-0.3345 -0.1509,-0.0712 -0.302,-0.1045 -0.4527,-0.0999 l -1.6488,0.0494 0.0556,1.8538 -0.7003,0.0211 z m 2.0965,2.8334 c 0.3441,-0.0102 0.6274,-0.0849 0.8499,-0.2237 0.2225,-0.1389 0.3851,-0.309 0.4876,-0.5103 0.1025,-0.2015 0.1481,-0.4164 0.1365,-0.6451 -0.0117,-0.2285 -0.0771,-0.4404 -0.1963,-0.6349 -0.119,-0.1948 -0.2925,-0.3547 -0.5205,-0.4803 -0.2281,-0.1252 -0.5072,-0.183 -0.8373,-0.1732 l -1.3091,0.0393 0.0799,2.6675 z m 5.1981,-3.1222 -1.3001,0.1591 0.5504,4.4967 1.3001,-0.1591 c 0.3335,-0.0313 0.616,-0.124 0.8467,-0.2781 0.2306,-0.1543 0.4154,-0.3446 0.554,-0.5707 0.1387,-0.2261 0.2328,-0.4778 0.2819,-0.7547 0.0494,-0.2773 0.0568,-0.5562 0.0225,-0.8373 -0.0343,-0.2811 -0.1091,-0.5524 -0.2245,-0.814 -0.1152,-0.2617 -0.2689,-0.4888 -0.4613,-0.6816 -0.1924,-0.1929 -0.4198,-0.342 -0.6824,-0.4477 -0.2627,-0.1057 -0.5583,-0.1435 -0.8873,-0.1126 z m 0.4219,-0.2799 c 0.3795,-0.0465 0.7208,-0.0168 1.0238,0.0887 0.303,0.1056 0.5644,0.2625 0.7849,0.4709 0.2206,0.2083 0.3957,0.4555 0.5257,0.7417 0.1303,0.2857 0.2153,0.5833 0.2555,0.8921 0.0401,0.3088 0.0303,0.6166 -0.0295,0.9236 -0.06,0.3068 -0.1708,0.5879 -0.3319,0.8429 -0.1615,0.255 -0.376,0.4715 -0.6445,0.6493 -0.2681,0.1778 -0.5943,0.2904 -0.9786,0.3373 l -2.4379,0.2984 -0.6054,-4.9465 z m 3.7938,4.3831 -1.1283,-4.854 0.6826,-0.1587 1.1283,4.854 z m 2.1117,-0.4667 -0.9359,-4.9126 0.5795,-0.1616 2.7054,3.0084 0.5131,-3.9055 0.6752,-0.1882 1.7675,4.6807 -0.7293,0.2034 -1.5234,-4.0141 -0.5937,4.3544 -2.94,-3.2441 0.7408,4.1069 z"
       style="fill:url(#grad38)"
       id="path49" />
    <g
       id="Layer1014">
      <defs
         id="defs59">
        <linearGradient
           id="grad39">
          <stop
             offset="0.0000%"
             stop-color="#805711"
             stop-opacity="1.0000"
             id="stop50" />
          <stop
             offset="11.0000%"
             stop-color="#947025"
             stop-opacity="1.0000"
             id="stop51" />
          <stop
             offset="28.0000%"
             stop-color="#ffdd8c"
             stop-opacity="1.0000"
             id="stop52" />
          <stop
             offset="40.0000%"
             stop-color="#c6a864"
             stop-opacity="1.0000"
             id="stop53" />
          <stop
             offset="50.0000%"
             stop-color="#fef3b3"
             stop-opacity="1.0000"
             id="stop54" />
          <stop
             offset="69.0000%"
             stop-color="#ccb260"
             stop-opacity="1.0000"
             id="stop55" />
          <stop
             offset="79.0000%"
             stop-color="#ffdd8c"
             stop-opacity="1.0000"
             id="stop56" />
          <stop
             offset="87.0000%"
             stop-color="#ccb260"
             stop-opacity="1.0000"
             id="stop57" />
          <stop
             offset="91.0000%"
             stop-color="#c09838"
             stop-opacity="1.0000"
             id="stop58" />
          <stop
             offset="100.0000%"
             stop-color="#fef3b3"
             stop-opacity="1.0000"
             id="stop59" />
        </linearGradient>
        <linearGradient
           xlink:href="#grad39"
           id="grad40"
           x1="609.69458"
           y1="282.8606"
           x2="609.69458"
           y2="340.1496"
           gradientTransform="scale(1.3767728,0.72633625)"
           gradientUnits="userSpaceOnUse" />
      </defs>
      <path
         d="m 903.551,239.675 c -0.8491,-1.4405 -3.5592,-2.7272 -9.2331,-2.1999 -7.9401,0.6967 -16.7354,3.3185 -26.4482,5.6329 -17.2248,4.0621 -23.9068,-0.2916 -24.8224,-6.1564 -0.6625,-4.0202 1.3394,-8.8874 5.0166,-11.9405 2.1037,-1.7741 5.3316,-3.2236 7.3343,-4.0635 0.1145,0.6949 0.3529,1.5223 0.7814,2.2673 0.511,0.9353 1.4022,2.0121 3.1536,3.049 0,0 4.5016,2.8777 4.6865,5.855 0.2583,3.4242 -1.7582,7.2741 -5.4392,7.8298 -2.035,0.3354 -5.4731,-0.7295 -5.1327,-6.0876 0.1534,-2.4722 1.1494,-4.4717 2.045,-5.8428 0.3649,-0.57 0.7462,-1.0406 0.9948,-1.3875 0.1741,-0.1817 0.0176,-0.5127 -0.2224,-0.4222 -1.5556,0.4604 -2.756,1.219 -3.6423,2.0278 -2.9573,2.7814 -2.9149,6.7509 -2.9149,6.7509 -0.0575,4.2918 2.8893,7.3238 8.9941,6.3178 9.8768,-1.6276 8.602,-9.9823 8.602,-9.9823 -0.356,-4.3257 -6.0063,-7.6768 -6.0063,-7.6768 -1.3875,-0.9949 -2.6015,-1.8655 -2.6969,-3.9909 2.5656,-1.1365 4.2133,-2.2747 5.2159,-3.3066 3.2311,-3.2855 0.9443,-5.4066 0.9443,-5.4066 -0.9741,-0.961 -2.6534,-0.6334 -2.6534,-0.6334 0,0 -6.1452,0.4521 -6.8294,8.3648 0,0 -0.0333,0.1075 -0.0584,0.2645 -1.8124,0.7576 -4.8084,2.0668 -7.8883,4.1039 -9.6044,6.3748 -7.783,14.3336 -7.783,14.3336 1.0206,7.1218 7.495,12.0707 25.1571,8.4972 0,0 13.3522,-2.8121 23.0382,-4.0514 7.7339,-1.0197 11.0255,-1.1542 13.0675,-0.828 1.9345,0.293 2.5535,0.9558 2.7516,1.2289 0.0163,0.0992 0.1156,0.0829 0.1074,0.0333 0.1826,-0.438 0.5651,-1.5206 -0.1194,-2.5803 z m -41.3632,-27.9522 c 0,0 0.7281,-0.2219 0.6593,1.2169 -0.0432,0.9756 -0.8727,2.4379 -3.9772,4.3259 1.068,-5.274 3.3179,-5.5428 3.3179,-5.5428 z m 11.9111,2.9822 c 0.009,-0.2564 0.059,-0.5705 0.0676,-0.8268 0.185,-1.6618 -0.5654,-2.8127 -2.0293,-2.7244 -1.0669,0.0228 -1.977,0.3768 -2.3578,0.5415 -0.0993,0.0164 -0.1325,0.1238 -0.0666,0.215 0.0906,0.2399 0.3459,0.8606 0.277,2.2993 0.008,0.3557 -0.0261,0.769 -0.0186,1.1247 -2.0513,0.2361 -4.2596,0.447 -4.8711,0.1399 -0.1074,-0.0332 -0.2067,-0.0168 -0.2399,0.0906 -0.2575,0.6032 -0.7653,2.4712 2.2704,2.0219 0.6452,-0.1063 1.6297,-0.3195 2.7134,-0.5491 -0.2826,5.3995 -0.7142,10.8236 -0.661,13.3128 -0.0176,5.152 0.8861,8.4697 3.3087,8.6313 0,0 2.6212,0.1287 3.867,-2.8295 0.6726,-1.4873 1.3703,-3.1316 1.7641,-6.0004 0,0 0.1343,-1.0418 -0.6185,-0.9687 -0.4051,0.0157 -0.6136,0.9168 -0.6136,0.9168 -1.9075,7.6045 -3.2546,7.1637 -3.2546,7.1637 -1.1324,-0.3741 -1.4071,-3.8975 -1.1528,-7.3041 0.1878,-3.1917 0.8495,-7.8381 1.4557,-13.7497 2.2667,-0.4755 4.3016,-0.8108 4.9383,-0.6609 0.1073,0.0333 0.1903,-0.0823 0.1821,-0.132 -0.0241,-0.4548 -0.4439,-1.4562 -4.9605,-0.7119 z m 15.218,12.5314 c -0.4549,0.024 -0.6632,0.925 -0.6632,0.925 -0.2003,0.9506 -0.4665,1.8102 -0.6579,2.5045 0,0 -1.4069,5.075 -5.1778,5.0846 -2.8034,0.003 -2.4786,-5.7601 -2.4099,-7.1989 3.5431,-2.0114 4.411,-6.3348 4.411,-6.3348 0.9917,-4.1908 -1.6137,-3.9145 -1.6137,-3.9145 -5.2441,0.6604 -6.5251,9.2832 -6.5857,10.7717 0,0 -1.0568,8.127 5.4264,8.1802 5.9211,0.0439 7.33,-6.255 7.33,-6.255 0.2249,-0.8017 0.4332,-1.7028 0.5592,-2.7941 0,0 0.1342,-1.0417 -0.6184,-0.9687 z m -6.0565,-7.3627 c 0.6038,-0.0485 0.6109,0.6131 0.4772,1.3488 -0.042,0.3638 -0.15,0.6364 -0.2417,1.0085 0,0 -0.8984,2.901 -2.8614,4.6009 0.5107,-3.3979 1.7243,-6.8607 2.6259,-6.9582 z m 21.79,4.7699 c -0.4548,0.0239 -0.6633,0.925 -0.6633,0.925 -1.9075,7.6046 -3.2547,7.1638 -3.2547,7.1638 -1.6028,-0.7555 -1.1374,-6.5929 -0.5755,-10.917 0.1506,-0.9424 -0.2862,-1.7371 -1.1043,-2.0611 -0.0579,-0.0415 -0.1653,-0.0747 -0.215,-0.0665 0.5778,-3.9187 -2.8796,-3.5529 -2.8796,-3.5529 -5.5086,0.6019 -7.479,10.9188 -7.479,10.9188 -1.4387,8.9038 3.4248,8.4081 3.4248,8.4081 2.4069,-0.2437 3.6882,-4.5333 4.2801,-7.1289 0.3325,3.5648 1.486,5.9238 3.4456,6.0596 0,0 2.5547,0.3437 3.8752,-2.7797 0.623,-1.4792 1.3703,-3.1317 1.7642,-6.0005 0,0 0.1343,-1.0418 -0.6185,-0.9687 z m -12.3287,8.4042 c -1.9329,-1.2108 1.657,-15.3122 3.5921,-15.3253 0.7609,-0.0234 0.6495,2.0851 0.5153,3.1269 -0.0169,0.2068 -0.0338,0.4135 -0.0508,0.6201 -0.593,3.2076 -2.4127,12.582 -4.0566,11.5783 z m 24.9354,-10.4817 c -0.4549,0.0239 -0.6632,0.9249 -0.6632,0.9249 -1.8159,7.2327 -3.2549,7.1638 -3.2549,7.1638 -3.0269,0.193 -3.4193,-6.8286 -3.4193,-6.8286 4.2934,-0.8605 3.9806,-6.1618 3.9806,-6.1618 -0.1575,-4.3584 -2.308,-4.106 -2.308,-4.106 -1.3232,0.0142 -2.1196,1.3689 -2.1196,1.3689 -1.0777,1.5031 -1.933,3.4284 -2.5319,5.3624 0.3202,-3.3156 0.7824,-7.3172 1.4278,-12.0627 0.1768,-1.7115 -0.5655,-2.8127 -2.0376,-2.7741 -0.8601,0.0399 -1.7207,0.3856 -2.1015,0.5503 -0.0992,0.0163 -0.1821,0.1319 -0.1162,0.223 0.1402,0.2319 0.3955,0.8525 0.2771,2.2995 -0.3953,8.1199 -1.2137,17.0744 0.0154,23.2954 0.2377,1.1334 1.2124,1.7886 2.4047,0.9803 0.0414,-0.0579 0.0332,-0.1075 0.0332,-0.1075 -0.0578,-0.0414 -0.0659,-0.0911 -0.1237,-0.1325 l 0.1237,0.1325 c -0.2764,-2.6055 0.01,-5.2015 0.5266,-7.6319 0,0 0.2436,7.0462 4.866,7.2531 0,0 2.596,0.2858 3.8752,-2.7798 0.6229,-1.4791 1.3701,-3.1317 1.764,-6.0005 0,0 0.1342,-1.0418 -0.6184,-0.9687 z m -9.2622,0.0989 c 0.9819,-3.3226 2.2768,-5.983 2.891,-7.2058 0.2192,2.2579 0.0472,5.8549 -2.891,7.2058 z"
         style="fill:url(#grad40)"
         id="path59" />
      <defs
         id="defs69">
        <linearGradient
           id="grad41">
          <stop
             offset="0.0000%"
             stop-color="#805711"
             stop-opacity="1.0000"
             id="stop60" />
          <stop
             offset="11.0000%"
             stop-color="#947025"
             stop-opacity="1.0000"
             id="stop61" />
          <stop
             offset="28.0000%"
             stop-color="#ffdd8c"
             stop-opacity="1.0000"
             id="stop62" />
          <stop
             offset="40.0000%"
             stop-color="#c6a864"
             stop-opacity="1.0000"
             id="stop63" />
          <stop
             offset="50.0000%"
             stop-color="#fef3b3"
             stop-opacity="1.0000"
             id="stop64" />
          <stop
             offset="69.0000%"
             stop-color="#ccb260"
             stop-opacity="1.0000"
             id="stop65" />
          <stop
             offset="79.0000%"
             stop-color="#ffdd8c"
             stop-opacity="1.0000"
             id="stop66" />
          <stop
             offset="87.0000%"
             stop-color="#ccb260"
             stop-opacity="1.0000"
             id="stop67" />
          <stop
             offset="91.0000%"
             stop-color="#c09838"
             stop-opacity="1.0000"
             id="stop68" />
          <stop
             offset="100.0000%"
             stop-color="#fef3b3"
             stop-opacity="1.0000"
             id="stop69" />
        </linearGradient>
        <linearGradient
           xlink:href="#grad41"
           id="grad42"
           x1="538.75714"
           y1="376.86646"
           x2="538.75714"
           y2="426.01932"
           gradientTransform="scale(1.5780509,0.63369311)"
           gradientUnits="userSpaceOnUse" />
      </defs>
      <path
         d="m 852.3039,258.2202 0.9465,-2.5731 c 5.3228,-14.4704 11.1483,-13.2825 12.1067,-12.9203 0,0 2.5379,0.7642 2.1578,7.3536 -0.1679,3.5748 -0.8483,6.6192 -1.7581,9.1339 -1.888,0.3112 -3.8067,0.722 -5.7406,1.0406 -1.1436,0.2359 -1.6187,-0.0643 -1.8408,-0.2641 -0.1073,-0.077 -0.1993,-0.0618 -0.2301,0.0379 -0.1311,0.3526 -0.2627,0.9893 0.0354,1.6494 0.3282,0.8447 1.2789,1.1608 2.5606,0.9023 1.5119,-0.2963 2.878,-0.6159 4.206,-0.8821 -1.371,2.8744 -2.8854,4.5901 -3.8455,5.0795 -1.5817,0.7337 -2.347,-0.1809 -2.676,-0.7414 -0.0763,-0.1767 -0.3066,-0.1387 -0.33,0.007 -0.2318,0.8895 0.0582,1.7876 0.387,2.3482 1.0631,1.8584 3.1886,1.5555 3.1886,1.5555 3.6295,-0.3616 5.7696,-4.3087 7.0286,-9.0093 2.8322,-0.6087 5.0346,-1.0189 6.7919,-1.2611 0.0217,0.7057 0.097,1.4501 0.2261,2.2327 0.3935,2.9622 1.3861,5.5418 3.5889,5.1314 0,0 0.7827,-0.1289 1.0529,-1.0719 0.0309,-0.0997 -0.0227,-0.1383 -0.1149,-0.1231 -1.6732,0.465 -1.9287,-2.5199 -1.7758,-6.4704 0.6139,-0.007 1.051,0.063 1.2655,0.2168 0.0538,0.0384 0.1383,-0.0227 0.1767,-0.0764 0.3081,-0.7128 -0.1659,-1.5807 -1.3627,-1.6672 0.0628,-0.7671 0.0719,-1.5726 0.1349,-2.3397 0.3824,-3.7047 0.9511,-8.2915 1.6515,-13.7986 0.1412,-1.7259 -0.5854,-2.9777 -1.9894,-2.8882 -0.798,0.0368 -1.5582,0.304 -1.9573,0.4644 -0.1381,0.0228 -0.1997,0.2222 -0.131,0.3526 0.0991,0.3146 0.305,0.9903 0.2413,2.3249 -0.2079,4.4801 -0.7685,9.1129 -1.0526,13.4162 0,0 -0.0708,1.0051 -0.0658,2.4704 -1.9182,0.1269 -3.9976,0.4223 -6.1159,0.7713 0.5652,-2.8835 0.8777,-5.8673 1.0356,-8.3527 0.7281,-12.2277 -10.484,-12.3427 -19.462,3.3018 -1.054,1.8367 -0.1673,4.1732 1.666,4.6491 z m 34.8608,-9.439 c -2.8623,0.4245 -3.8501,3.6141 -3.7627,6.1538 -0.8844,1.2334 -1.6621,2.8277 -1.8878,4.6149 0,0 -0.9714,6.7341 4.7307,5.7471 1.4275,-0.2351 4.7058,-1.5794 5.1007,-7.793 0,0 0.8533,-9.4578 -4.1809,-8.7228 z m 1.9787,8.8494 c -0.2161,5.0017 -1.6076,6.6025 -2.8585,6.7614 -2.0488,0.1957 -1.5406,-5.0432 -1.5406,-5.0432 0.0644,-1.6187 0.5901,-3.8811 1.667,-5.3826 0.0768,-0.1074 -0.0457,-0.2764 -0.1454,-0.3073 -0.2912,-0.0465 -0.5827,-0.0932 -0.8514,-0.002 0.1484,-1.3959 0.5057,-3.8195 1.7105,-3.9709 0,0 2.4327,-0.448 2.0184,7.9442 z m 18.5491,-3.3878 c -0.422,0.0222 -0.6154,0.8579 -0.6154,0.8579 -1.7697,7.0549 -3.0192,6.6462 -3.0192,6.6462 -1.0045,-0.3548 -1.298,-3.5699 -1.0694,-6.7762 0.227,-2.6388 0.5859,-5.914 0.7263,-7.0722 0.1237,-0.6826 -0.2585,-1.2816 -0.8642,-1.5129 -0.6058,-0.2314 -1.2346,-0.3169 -2.025,-0.2339 -0.1383,0.0227 -0.2996,0.1913 -0.3228,0.3371 -0.0235,0.1456 -0.0467,0.2913 -0.0699,0.4371 -0.5951,2.4154 -3.2615,13.2126 -4.7204,13.8313 -0.7296,0.4515 0.776,-9.0668 0.9557,-10.8462 0.0471,-0.5753 0.059,-2.8001 -1.6903,-2.7957 -0.9974,-0.0248 -1.65,0.3192 -2.0801,0.5792 -0.5147,0.3214 -0.1089,0.7748 -0.1089,0.7748 0.9482,1.7357 0.1064,8.9686 0.1272,10.2422 0,0 -0.3219,4.0731 1.765,3.8238 2.0797,-0.2954 3.8738,-3.7598 5.1464,-7.5168 -0.0158,0.1919 0.007,0.33 -0.0162,0.4757 0.0219,4.726 0.9757,7.6428 3.1846,7.8464 0,0 2.3242,0.3263 3.6337,-2.6324 0.5781,-1.3723 1.2252,-2.8977 1.6368,-5.567 0,0 0.1242,-0.9662 -0.5739,-0.8984 z m 9.4393,-1.5556 c -0.3217,-0.2308 -0.9903,0.305 -0.9903,0.305 -1.644,1.2168 -2.8882,1.9894 -3.7558,2.4636 -1.0555,-1.8125 -2.5951,-3.1195 -3.1988,-4.4862 -1.1767,-2.5494 -0.1369,-4.849 0.876,-5.0159 1.0514,-0.2207 0.8795,1.6049 0.7316,2.7173 -0.0699,0.4371 0.3593,0.7446 0.7583,0.5843 0.6605,-0.2981 1.2369,-0.8186 1.2845,-1.6779 0.2059,-3.6283 -2.7565,-2.9509 -2.7565,-2.9509 0,0 -3.1003,0.4162 -3.752,4.4966 0,0 -0.5963,2.9831 1.1937,5.8097 0.3136,0.4685 0.7732,0.9606 1.3475,1.5752 0,0 0.1149,0.1229 0.3446,0.3689 -1.0679,0.6962 -2.0438,1.661 -2.2535,2.9726 0,0 -0.6643,2.5688 1.7512,3.1638 3.9877,0.9511 4.9157,-3.1746 4.4594,-5.3697 -0.0607,-0.3684 -0.1598,-0.683 -0.2589,-0.9977 1.1289,-0.6118 2.4267,-1.346 4.0636,-2.8927 0,0 0.6993,-0.6355 0.1554,-1.066 z m -6.8559,6.8997 c 0,0 0.003,2.6009 -1.5227,1.9535 -0.7204,-0.354 -0.2882,-1.7497 -0.2882,-1.7497 0.2621,-0.7051 0.831,-1.2718 1.5144,-1.7157 0.168,0.4454 0.3436,0.9367 0.2965,1.5119 z m 16.8939,-8.5539 c -0.4221,0.0223 -0.6155,0.8579 -0.6155,0.8579 -0.1858,0.8822 -0.4328,1.6794 -0.6102,2.3236 0,0 -1.3051,4.7081 -4.8035,4.7173 -2.601,0.003 -2.2996,-5.344 -2.2356,-6.6786 3.2867,-1.8659 4.0921,-5.877 4.0921,-5.877 0.9199,-3.8879 -1.4972,-3.6315 -1.4972,-3.6315 -4.8651,0.6125 -6.0534,8.6121 -6.1095,9.993 0,0 -0.9805,7.5397 5.0342,7.5889 5.4928,0.0407 6.8002,-5.8029 6.8002,-5.8029 0.2083,-0.7438 0.4018,-1.5795 0.5185,-2.592 0,0 0.1247,-0.9665 -0.5735,-0.8987 z m -5.619,-6.8306 c 0.5603,-0.0451 0.5668,0.5687 0.4429,1.2513 -0.0392,0.3375 -0.1392,0.5904 -0.2243,0.9356 0,0 -0.8334,2.6914 -2.6545,4.2684 0.4738,-3.1521 1.5997,-6.3648 2.4359,-6.4553 z"
         style="fill:url(#grad42)"
         id="path69" />
      <defs
         id="defs79">
        <linearGradient
           id="grad43">
          <stop
             offset="0.0000%"
             stop-color="#805711"
             stop-opacity="1.0000"
             id="stop70" />
          <stop
             offset="11.0000%"
             stop-color="#947025"
             stop-opacity="1.0000"
             id="stop71" />
          <stop
             offset="28.0000%"
             stop-color="#ffdd8c"
             stop-opacity="1.0000"
             id="stop72" />
          <stop
             offset="40.0000%"
             stop-color="#c6a864"
             stop-opacity="1.0000"
             id="stop73" />
          <stop
             offset="50.0000%"
             stop-color="#fef3b3"
             stop-opacity="1.0000"
             id="stop74" />
          <stop
             offset="69.0000%"
             stop-color="#ccb260"
             stop-opacity="1.0000"
             id="stop75" />
          <stop
             offset="79.0000%"
             stop-color="#ffdd8c"
             stop-opacity="1.0000"
             id="stop76" />
          <stop
             offset="87.0000%"
             stop-color="#ccb260"
             stop-opacity="1.0000"
             id="stop77" />
          <stop
             offset="91.0000%"
             stop-color="#c09838"
             stop-opacity="1.0000"
             id="stop78" />
          <stop
             offset="100.0000%"
             stop-color="#fef3b3"
             stop-opacity="1.0000"
             id="stop79" />
        </linearGradient>
        <linearGradient
           xlink:href="#grad43"
           id="grad44"
           x1="613.31281"
           y1="358.84671"
           x2="613.31281"
           y2="399.41974"
           gradientTransform="scale(1.4280063,0.70027704)"
           gradientUnits="userSpaceOnUse" />
      </defs>
      <path
         d="m 875.9731,277.3749 c 0.5127,-1.4573 2.7394,-3.1305 7.9826,-3.6945 7.3284,-0.8162 15.4731,-0.9628 25.6189,-0.7906 3.148,0.0646 7.123,-0.0459 10.109,-0.1995 0,0 8.939,-0.1782 11.4147,-4.0797 0,0 5.3991,-4.289 -4.5951,-16.036 l 1.1163,-1.2825 c 9.5682,12.113 5.0838,18.3794 5.0838,18.3794 -3.895,6.1519 -19.6026,5.2151 -42.0091,6.721 -7.1703,0.5192 -10.2171,1.0073 -12.0244,1.7011 -1.4449,0.5646 -1.9937,1.1814 -2.1475,1.5249 -0.0838,0.102 -0.2231,0.1158 -0.2783,0.0276 -0.2782,-0.4418 -0.6439,-1.2967 -0.2709,-2.2712 z"
         style="fill:url(#grad44)"
         id="path79" />
    </g>
    <defs
       id="defs89">
      <linearGradient
         id="grad45"
         gradientTransform="scale(0.53309231,1.8758477)"
         x1="1564.3936"
         y1="108.28022"
         x2="1608.51"
         y2="108.28022"
         gradientUnits="userSpaceOnUse">
        <stop
           offset="0.0000%"
           stop-color="#805711"
           stop-opacity="1.0000"
           id="stop80" />
        <stop
           offset="12.0000%"
           stop-color="#947025"
           stop-opacity="1.0000"
           id="stop81" />
        <stop
           offset="28.0000%"
           stop-color="#ccb260"
           stop-opacity="1.0000"
           id="stop82" />
        <stop
           offset="40.0000%"
           stop-color="#c6a864"
           stop-opacity="1.0000"
           id="stop83" />
        <stop
           offset="50.0000%"
           stop-color="#fef3b3"
           stop-opacity="1.0000"
           id="stop84" />
        <stop
           offset="69.0000%"
           stop-color="#ccb260"
           stop-opacity="1.0000"
           id="stop85" />
        <stop
           offset="79.0000%"
           stop-color="#9e8241"
           stop-opacity="1.0000"
           id="stop86" />
        <stop
           offset="87.0000%"
           stop-color="#a37b26"
           stop-opacity="1.0000"
           id="stop87" />
        <stop
           offset="91.0000%"
           stop-color="#c09838"
           stop-opacity="1.0000"
           id="stop88" />
        <stop
           offset="100.0000%"
           stop-color="#866400"
           stop-opacity="1.0000"
           id="stop89" />
      </linearGradient>
    </defs>
    <path
       d="m 849.4825,203.1172 c 0.4394,0 0.7958,0.3564 0.7958,0.796 0,0.4394 -0.3564,0.7958 -0.7958,0.7958 -0.4397,0 -0.796,-0.3564 -0.796,-0.7958 0,-0.4396 0.3563,-0.796 0.796,-0.796 z m 7.206,81.1638 c 0.4395,0 0.7958,0.3564 0.7958,0.796 0,0.4394 -0.3563,0.7958 -0.7958,0.7958 -0.4396,0 -0.796,-0.3564 -0.796,-0.7958 0,-0.4396 0.3564,-0.796 0.796,-0.796 z m -1.681,-1.4156 c 0.4394,0 0.7958,0.3564 0.7958,0.796 0,0.4394 -0.3564,0.7958 -0.7958,0.7958 -0.4397,0 -0.796,-0.3564 -0.796,-0.7958 0,-0.4396 0.3563,-0.796 0.796,-0.796 z m -1.9468,-1.5928 c 0.4395,0 0.7958,0.3564 0.7958,0.796 0,0.4394 -0.3563,0.7958 -0.7958,0.7958 -0.4396,0 -0.796,-0.3564 -0.796,-0.7958 0,-0.4396 0.3564,-0.796 0.796,-0.796 z m -1.5926,-1.4156 c 0.4395,0 0.7958,0.3564 0.7958,0.796 0,0.4394 -0.3563,0.7958 -0.7958,0.7958 -0.4396,0 -0.796,-0.3564 -0.796,-0.7958 0,-0.4396 0.3564,-0.796 0.796,-0.796 z m -1.5927,-1.6813 c 0.4394,0 0.7957,0.3564 0.7957,0.796 0,0.4394 -0.3563,0.7958 -0.7957,0.7958 -0.4397,0 -0.796,-0.3564 -0.796,-0.7958 0,-0.4396 0.3563,-0.796 0.796,-0.796 z m -1.5926,-1.5926 c 0.4394,0 0.7958,0.3564 0.7958,0.796 0,0.4395 -0.3564,0.7958 -0.7958,0.7958 -0.4397,0 -0.796,-0.3563 -0.796,-0.7958 0,-0.4396 0.3563,-0.796 0.796,-0.796 z m -1.5043,-1.7697 c 0.4394,0 0.7958,0.3563 0.7958,0.796 0,0.4394 -0.3564,0.7958 -0.7958,0.7958 -0.4397,0 -0.796,-0.3564 -0.796,-0.7958 0,-0.4397 0.3563,-0.796 0.796,-0.796 z m -1.3271,-1.8581 c 0.4394,0 0.7957,0.3564 0.7957,0.796 0,0.4395 -0.3563,0.7958 -0.7957,0.7958 -0.4397,0 -0.796,-0.3563 -0.796,-0.7958 0,-0.4396 0.3563,-0.796 0.796,-0.796 z m -1.3274,-1.8582 c 0.4395,0 0.7958,0.3563 0.7958,0.796 0,0.4394 -0.3563,0.7958 -0.7958,0.7958 -0.4396,0 -0.796,-0.3564 -0.796,-0.7958 0,-0.4397 0.3564,-0.796 0.796,-0.796 z m -1.2388,-1.9466 c 0.4394,0 0.7958,0.3564 0.7958,0.796 0,0.4395 -0.3564,0.7958 -0.7958,0.7958 -0.4396,0 -0.796,-0.3563 -0.796,-0.7958 0,-0.4396 0.3564,-0.796 0.796,-0.796 z m -1.1311,-2.051 c 0.4394,0 0.7958,0.3563 0.7958,0.796 0,0.4394 -0.3564,0.7958 -0.7958,0.7958 -0.4396,0 -0.796,-0.3564 -0.796,-0.7958 0,-0.4397 0.3564,-0.796 0.796,-0.796 z m -1.0618,-1.9468 c 0.4394,0 0.7958,0.3564 0.7958,0.796 0,0.4395 -0.3564,0.7958 -0.7958,0.7958 -0.4397,0 -0.796,-0.3563 -0.796,-0.7958 0,-0.4396 0.3563,-0.796 0.796,-0.796 z m -0.9734,-2.212 c 0.4394,0 0.7958,0.3564 0.7958,0.796 0,0.4395 -0.3564,0.7958 -0.7958,0.7958 -0.4396,0 -0.796,-0.3563 -0.796,-0.7958 0,-0.4396 0.3564,-0.796 0.796,-0.796 z m -0.8847,-1.9465 c 0.4394,0 0.7958,0.3564 0.7958,0.796 0,0.4394 -0.3564,0.7958 -0.7958,0.7958 -0.4396,0 -0.796,-0.3564 -0.796,-0.7958 0,-0.4396 0.3564,-0.796 0.796,-0.796 z m -0.8849,-2.2122 c 0.4395,0 0.7958,0.3564 0.7958,0.796 0,0.4394 -0.3563,0.7958 -0.7958,0.7958 -0.4396,0 -0.796,-0.3564 -0.796,-0.7958 0,-0.4396 0.3564,-0.796 0.796,-0.796 z m -0.7079,-2.035 c 0.4395,0 0.7958,0.3563 0.7958,0.796 0,0.4394 -0.3563,0.7958 -0.7958,0.7958 -0.4396,0 -0.796,-0.3564 -0.796,-0.7958 0,-0.4397 0.3564,-0.796 0.796,-0.796 z m -0.7079,-2.2116 c 0.4395,0 0.7958,0.3563 0.7958,0.796 0,0.4394 -0.3563,0.7958 -0.7958,0.7958 -0.4396,0 -0.796,-0.3564 -0.796,-0.7958 0,-0.4397 0.3564,-0.796 0.796,-0.796 z m -0.5309,-2.3011 c 0.4394,0 0.7958,0.3563 0.7958,0.796 0,0.4394 -0.3564,0.7958 -0.7958,0.7958 -0.4396,0 -0.796,-0.3564 -0.796,-0.7958 0,-0.4397 0.3564,-0.796 0.796,-0.796 z m -0.354,-2.3005 c 0.4395,0 0.7958,0.3564 0.7958,0.796 0,0.4394 -0.3563,0.7958 -0.7958,0.7958 -0.4396,0 -0.7959,-0.3564 -0.7959,-0.7958 0,-0.4396 0.3563,-0.796 0.7959,-0.796 z m -0.4422,-2.3886 c 0.4394,0 0.7958,0.3564 0.7958,0.796 0,0.4394 -0.3564,0.7958 -0.7958,0.7958 -0.4396,0 -0.796,-0.3564 -0.796,-0.7958 0,-0.4396 0.3564,-0.796 0.796,-0.796 z m -0.177,-2.212 c 0.4395,0 0.7958,0.3564 0.7958,0.796 0,0.4394 -0.3563,0.7958 -0.7958,0.7958 -0.4396,0 -0.796,-0.3564 -0.796,-0.7958 0,-0.4396 0.3564,-0.796 0.796,-0.796 z m -0.2654,-2.1241 c 0.4394,0 0.7958,0.3564 0.7958,0.796 0,0.4394 -0.3564,0.7958 -0.7958,0.7958 -0.4397,0 -0.796,-0.3564 -0.796,-0.7958 0,-0.4396 0.3563,-0.796 0.796,-0.796 z m 0,-2.4775 c 0.4394,0 0.7958,0.3564 0.7958,0.796 0,0.4395 -0.3564,0.7958 -0.7958,0.7958 -0.4397,0 -0.796,-0.3563 -0.796,-0.7958 0,-0.4396 0.3563,-0.796 0.796,-0.796 z m -0.002,-2.2669 c 0.4394,0 0.7957,0.3563 0.7957,0.796 0,0.4394 -0.3563,0.7957 -0.7957,0.7957 -0.4397,0 -0.796,-0.3563 -0.796,-0.7957 0,-0.4397 0.3563,-0.796 0.796,-0.796 z m 0.0903,-2.2457 c 0.4394,0 0.7957,0.3563 0.7957,0.7959 0,0.4395 -0.3563,0.7958 -0.7957,0.7958 -0.4397,0 -0.796,-0.3563 -0.796,-0.7958 0,-0.4396 0.3563,-0.7959 0.796,-0.7959 z m 0.2654,-2.3005 c 0.4394,0 0.7958,0.3563 0.7958,0.796 0,0.4394 -0.3564,0.7957 -0.7958,0.7957 -0.4396,0 -0.796,-0.3563 -0.796,-0.7957 0,-0.4397 0.3564,-0.796 0.796,-0.796 z m 0.3538,-2.3007 c 0.4394,0 0.7958,0.3563 0.7958,0.796 0,0.4394 -0.3564,0.7958 -0.7958,0.7958 -0.4397,0 -0.796,-0.3564 -0.796,-0.7958 0,-0.4397 0.3563,-0.796 0.796,-0.796 z m 0.4424,-2.212 c 0.4394,0 0.7958,0.3563 0.7958,0.796 0,0.4394 -0.3564,0.7958 -0.7958,0.7958 -0.4396,0 -0.796,-0.3564 -0.796,-0.7958 0,-0.4397 0.3564,-0.796 0.796,-0.796 z m 0.4729,-2.2213 c 0.4395,0 0.7958,0.3564 0.7958,0.796 0,0.4395 -0.3563,0.7958 -0.7958,0.7958 -0.4396,0 -0.7959,-0.3563 -0.7959,-0.7958 0,-0.4396 0.3563,-0.796 0.7959,-0.796 z m 0.708,-2.2563 c 0.4394,0 0.7957,0.3564 0.7957,0.796 0,0.4394 -0.3563,0.7958 -0.7957,0.7958 -0.4397,0 -0.796,-0.3564 -0.796,-0.7958 0,-0.4396 0.3563,-0.796 0.796,-0.796 z m 0.6635,-2.212 c 0.4394,0 0.7958,0.3564 0.7958,0.796 0,0.4394 -0.3564,0.7958 -0.7958,0.7958 -0.4396,0 -0.796,-0.3564 -0.796,-0.7958 0,-0.4396 0.3564,-0.796 0.796,-0.796 z m 0.7521,-2.1237 c 0.4394,0 0.7958,0.3563 0.7958,0.796 0,0.4394 -0.3564,0.7958 -0.7958,0.7958 -0.4397,0 -0.796,-0.3564 -0.796,-0.7958 0,-0.4397 0.3563,-0.796 0.796,-0.796 z m 0.8848,-2.1235 c 0.4395,0 0.7958,0.3563 0.7958,0.796 0,0.4394 -0.3563,0.7958 -0.7958,0.7958 -0.4396,0 -0.7959,-0.3564 -0.7959,-0.7958 0,-0.4397 0.3563,-0.796 0.7959,-0.796 z m 1.0619,-2.0794 c 0.4394,0 0.7958,0.3564 0.7958,0.796 0,0.4394 -0.3564,0.7958 -0.7958,0.7958 -0.4396,0 -0.796,-0.3564 -0.796,-0.7958 0,-0.4396 0.3564,-0.796 0.796,-0.796 z m 0.9732,-2.0794 c 0.4394,0 0.7958,0.3564 0.7958,0.796 0,0.4395 -0.3564,0.7958 -0.7958,0.7958 -0.4397,0 -0.796,-0.3563 -0.796,-0.7958 0,-0.4396 0.3563,-0.796 0.796,-0.796 z m 1.1062,-2.035 c 0.4394,0 0.7958,0.3564 0.7958,0.796 0,0.4394 -0.3564,0.7958 -0.7958,0.7958 -0.4397,0 -0.796,-0.3564 -0.796,-0.7958 0,-0.4396 0.3563,-0.796 0.796,-0.796 z m 1.2829,-1.8582 c 0.4395,0 0.7958,0.3563 0.7958,0.796 0,0.4394 -0.3563,0.7957 -0.7958,0.7957 -0.4396,0 -0.7959,-0.3563 -0.7959,-0.7957 0,-0.4397 0.3563,-0.796 0.7959,-0.796 z m 1.283,-1.8581 c 0.4394,0 0.7958,0.3564 0.7958,0.796 0,0.4394 -0.3564,0.7958 -0.7958,0.7958 -0.4396,0 -0.796,-0.3564 -0.796,-0.7958 0,-0.4396 0.3564,-0.796 0.796,-0.796 z m 1.3273,-1.9024 c 0.4395,0 0.7958,0.3564 0.7958,0.796 0,0.4394 -0.3563,0.7958 -0.7958,0.7958 -0.4396,0 -0.796,-0.3564 -0.796,-0.7958 0,-0.4396 0.3564,-0.796 0.796,-0.796 z m 1.5041,-1.7697 c 0.4395,0 0.7958,0.3563 0.7958,0.796 0,0.4394 -0.3563,0.7957 -0.7958,0.7957 -0.4396,0 -0.796,-0.3563 -0.796,-0.7957 0,-0.4397 0.3564,-0.796 0.796,-0.796 z"
       style="fill:url(#grad45)"
       id="path89" />
    <defs
       id="defs99">
      <linearGradient
         id="grad46">
        <stop
           offset="0.0000%"
           stop-color="#805711"
           stop-opacity="1.0000"
           id="stop90" />
        <stop
           offset="11.0000%"
           stop-color="#947025"
           stop-opacity="1.0000"
           id="stop91" />
        <stop
           offset="28.0000%"
           stop-color="#ffdd8c"
           stop-opacity="1.0000"
           id="stop92" />
        <stop
           offset="40.0000%"
           stop-color="#c6a864"
           stop-opacity="1.0000"
           id="stop93" />
        <stop
           offset="50.0000%"
           stop-color="#fef3b3"
           stop-opacity="1.0000"
           id="stop94" />
        <stop
           offset="69.0000%"
           stop-color="#ccb260"
           stop-opacity="1.0000"
           id="stop95" />
        <stop
           offset="79.0000%"
           stop-color="#ffdd8c"
           stop-opacity="1.0000"
           id="stop96" />
        <stop
           offset="87.0000%"
           stop-color="#ccb260"
           stop-opacity="1.0000"
           id="stop97" />
        <stop
           offset="91.0000%"
           stop-color="#c09838"
           stop-opacity="1.0000"
           id="stop98" />
        <stop
           offset="100.0000%"
           stop-color="#fef3b3"
           stop-opacity="1.0000"
           id="stop99" />
      </linearGradient>
      <linearGradient
         xlink:href="#grad46"
         id="grad47"
         x1="419.36508"
         y1="375.73303"
         x2="419.36508"
         y2="411.42395"
         gradientTransform="scale(2.0361192,0.49113038)"
         gradientUnits="userSpaceOnUse" />
    </defs>
    <path
       d="m 858.4386,199.4392 0.3102,0.4748 c -0.1874,0.2654 -0.4241,0.5104 -0.7117,0.7364 -0.6832,0.5365 -1.3436,0.7528 -1.981,0.6485 -0.6375,-0.1042 -1.1686,-0.4268 -1.5926,-0.9666 -0.4449,-0.5664 -0.6357,-1.2053 -0.5753,-1.915 0.0606,-0.7119 0.4158,-1.3211 1.0633,-1.8296 0.179,-0.1406 0.3876,-0.262 0.6294,-0.3645 l 0.2888,0.5391 c -0.2856,0.1078 -0.5169,0.2316 -0.6957,0.3722 -0.481,0.3777 -0.7276,0.8129 -0.7416,1.3057 -0.0143,0.4926 0.1477,0.9541 0.486,1.3851 0.3451,0.4392 0.7827,0.7035 1.3144,0.7924 0.5334,0.0889 1.0509,-0.0642 1.5563,-0.4611 0.192,-0.1507 0.4085,-0.3899 0.6495,-0.7174 z m 5.1608,-2.7716 -0.6722,0.432 c -0.0915,-0.1425 -0.5124,-0.5034 -1.2631,-1.0829 l -1.8388,1.1818 c 0.2129,0.9098 0.3686,1.4415 0.4672,1.5946 l -0.6439,0.414 c -0.0504,-0.0785 -0.2129,-0.9343 -0.4876,-2.5664 -0.2741,-1.6313 -0.4523,-2.5108 -0.5348,-2.6392 l 0.7394,-0.4753 c 0.0811,0.1262 0.7874,0.6511 2.121,1.5781 1.3339,0.9252 2.038,1.4469 2.1128,1.5633 z m -2.3506,-0.9742 c -1.3007,-0.9264 -1.9767,-1.428 -2.0268,-1.5061 l -0.0347,0.0223 c 0.0417,0.0652 0.2105,0.8943 0.5032,2.4855 z m 7.0578,-1.5245 -0.65,0.3357 c -0.5475,-0.5334 -0.9252,-0.8781 -1.1314,-1.0352 -0.2621,-0.1976 -0.4916,-0.293 -0.6899,-0.2881 -0.1573,0.006 -0.3983,0.0911 -0.7233,0.259 -0.1907,0.0983 -0.3596,0.1884 -0.5043,0.2691 0.3744,0.7245 0.7093,1.3417 1.0067,1.85 l -0.6258,0.3235 c -0.3263,-0.7134 -0.7047,-1.4881 -1.1386,-2.3278 -0.4075,-0.789 -0.7829,-1.4738 -1.1248,-2.0539 l 0.4743,-0.245 c 0.1012,-0.0522 0.2274,-0.1204 0.3787,-0.2075 0.1517,-0.0869 0.3266,-0.1818 0.5265,-0.2849 0.9822,-0.5073 1.6487,-0.4224 1.9987,0.2552 0.2907,0.5629 0.2197,1.1014 -0.2147,1.6153 l 0.0172,0.0333 c 0.2856,-0.0528 0.5737,0.015 0.8655,0.2051 0.2435,0.1591 0.7548,0.5907 1.5352,1.2962 z m -2.6607,-2.624 c -0.2759,-0.5341 -0.7741,-0.6142 -1.4965,-0.241 -0.2584,0.1335 -0.4671,0.2587 -0.6274,0.3793 0.2179,0.3822 0.4998,0.9085 0.8457,1.5783 0.1369,-0.0648 0.2667,-0.129 0.3907,-0.193 0.8809,-0.4551 1.177,-0.9631 0.8875,-1.5236 z m 7.8592,0.5251 -0.4926,0.1957 c -0.0157,-0.0398 -0.6235,-0.4495 -1.8238,-1.2276 -1.2571,-0.8193 -2.0009,-1.3544 -2.2308,-1.6081 l -0.0359,0.0143 c 0.266,0.548 0.4803,1.0249 0.6406,1.4284 0.3129,0.7882 0.6465,1.5764 1.0001,2.3653 l -0.5911,0.2346 c -0.2635,-0.7785 -0.5615,-1.5894 -0.8957,-2.4317 -0.3287,-0.8279 -0.6373,-1.5454 -0.9239,-2.152 l 0.6754,-0.2681 c 0.0261,0.066 0.5928,0.4601 1.7004,1.1833 1.1606,0.7618 1.8568,1.2825 2.0864,1.5598 l 0.0349,-0.0138 c -0.2667,-0.5562 -0.4802,-1.0348 -0.6385,-1.4337 -0.3443,-0.8674 -0.6529,-1.599 -0.9268,-2.1911 l 0.6017,-0.239 c 0.2077,0.6381 0.4752,1.3719 0.8037,2.1998 0.3345,0.8421 0.6736,1.6367 1.0159,2.3839 z m 4.9916,-1.9878 0.1345,0.556 -2.935,0.8375 c -0.1814,-0.7629 -0.4007,-1.597 -0.6599,-2.5058 -0.2438,-0.8539 -0.4754,-1.5998 -0.6935,-2.2366 l 2.7536,-0.7856 0.125,0.5516 c -0.6756,0.1619 -1.3871,0.3489 -2.1354,0.5624 0.1222,0.3724 0.2749,0.8787 0.4575,1.519 0.6451,-0.1842 1.2168,-0.3622 1.713,-0.536 l 0.1551,0.5432 c -0.5448,0.1314 -1.1235,0.2843 -1.7351,0.4589 0.1782,0.624 0.3562,1.2063 0.5336,1.7473 0.8066,-0.2304 1.5683,-0.4679 2.2866,-0.7119 z m 4.5567,-1.4813 c 0.1621,0.9192 -0.3969,1.4929 -1.6763,1.7186 -0.4685,0.0827 -0.8931,0.1024 -1.2748,0.0594 l 0.0279,-0.6085 c 0.4431,0.0702 0.8518,0.0728 1.2272,0.007 0.8454,-0.1491 1.2258,-0.4629 1.1415,-0.9405 -0.0423,-0.2406 -0.1882,-0.4276 -0.4374,-0.5606 -0.1667,-0.0889 -0.4813,-0.1908 -0.9457,-0.3072 -0.4885,-0.1212 -0.8381,-0.2498 -1.0488,-0.3873 -0.2933,-0.1896 -0.4697,-0.4605 -0.5319,-0.8132 -0.0652,-0.3692 0.009,-0.6909 0.2255,-0.968 0.2398,-0.3086 0.6219,-0.5086 1.144,-0.6007 0.5917,-0.1044 1.0032,-0.1377 1.236,-0.0985 l 0.014,0.6079 c -0.3977,-0.0519 -0.8104,-0.0409 -1.2358,0.0341 -0.6391,0.1128 -0.9208,0.3829 -0.8453,0.8107 0.0363,0.2065 0.1597,0.3632 0.3676,0.4695 0.135,0.0654 0.4217,0.1513 0.8606,0.2564 0.5,0.1192 0.8698,0.2509 1.1082,0.3965 0.3589,0.2189 0.5732,0.5264 0.6435,0.9248 z m 9.7537,-2.7658 c -0.0132,0.5751 -0.2418,1.0003 -0.6852,1.2758 -0.4435,0.2755 -1.0336,0.4039 -1.7702,0.3869 -0.0931,-0.002 -0.1744,-0.007 -0.2428,-0.0135 -0.0126,0.5506 -0.007,1.2154 0.0145,1.9969 l -0.7264,-0.0168 c 0.0542,-0.7166 0.0935,-1.5794 0.117,-2.5887 0.0202,-0.8684 0.019,-1.6481 -0.002,-2.3418 l 0.5413,0.0126 c 0.0582,0.001 0.2238,0.003 0.4979,0.001 0.2741,-0.001 0.5068,0 0.6994,0.005 0.4846,0.0112 0.8673,0.13 1.149,0.3577 0.2805,0.2276 0.4167,0.536 0.4077,0.925 z m -0.6369,0.2049 c 0.0151,-0.6487 -0.4207,-0.9834 -1.3074,-1.0041 -0.2157,-0.005 -0.4603,0.007 -0.7314,0.04 0.008,0.4113 0.003,1.0526 -0.0177,1.9236 0.0879,0.007 0.1965,0.0123 0.3255,0.0153 1.1373,0.0265 1.7152,-0.2988 1.731,-0.9748 z m 6.0555,4.0871 -0.7255,-0.0937 c -0.1471,-0.75 -0.2613,-1.2485 -0.3415,-1.4949 -0.1032,-0.3118 -0.2378,-0.5207 -0.4035,-0.6294 -0.1325,-0.0849 -0.3795,-0.1519 -0.7423,-0.1987 -0.2127,-0.0274 -0.4029,-0.0495 -0.5676,-0.0656 -0.1045,0.8089 -0.1804,1.5071 -0.2247,2.0943 l -0.6987,-0.0901 c 0.1374,-0.7722 0.2671,-1.6249 0.388,-2.5622 0.1138,-0.8806 0.1947,-1.6576 0.2434,-2.329 l 0.5296,0.0685 c 0.1129,0.0144 0.2556,0.0303 0.4294,0.0449 0.1741,0.0147 0.3722,0.0363 0.5951,0.065 1.0964,0.1417 1.5962,0.5907 1.4985,1.3472 -0.0811,0.6282 -0.4459,1.0308 -1.0956,1.2061 l -0.005,0.0374 c 0.2649,0.1189 0.4633,0.3387 0.5951,0.6609 0.1098,0.2695 0.2846,0.9152 0.5251,1.9393 z m -0.6952,-3.6715 c 0.077,-0.5962 -0.2872,-0.9455 -1.0936,-1.0497 -0.2885,-0.0373 -0.5315,-0.0531 -0.7318,-0.0451 -0.0383,0.4382 -0.1059,1.0318 -0.2024,1.7792 0.1495,0.0245 0.2925,0.0455 0.431,0.0634 0.9834,0.127 1.5161,-0.1222 1.5968,-0.7478 z m 5.5962,4.1204 -0.1507,0.5518 -2.9745,-0.6841 c 0.2095,-0.7556 0.4204,-1.5919 0.6323,-2.5129 0.199,-0.8655 0.3563,-1.6303 0.4729,-2.2933 l 2.7905,0.6417 -0.1569,0.5436 c -0.6698,-0.1846 -1.3831,-0.3644 -2.1414,-0.539 -0.0728,0.3853 -0.1836,0.9023 -0.3329,1.5511 0.6538,0.1504 1.2403,0.2706 1.7588,0.3579 l -0.1266,0.5508 c -0.5404,-0.1483 -1.1211,-0.2937 -1.7409,-0.4362 -0.1453,0.6325 -0.2707,1.2282 -0.3766,1.7876 0.8176,0.188 1.5992,0.3477 2.346,0.481 z m 6.6111,2.7299 -0.6748,-0.2284 c 0.1808,-0.5339 0.4049,-1.3165 0.6722,-2.3518 0.2681,-1.034 0.4326,-1.6526 0.4968,-1.8545 l -0.0367,-0.0124 c -0.502,0.6967 -1.0913,1.4375 -1.7653,2.2234 -0.6754,0.7852 -1.0394,1.2557 -1.092,1.4112 l -0.485,-0.1643 c 0.0568,-0.1678 0.0703,-0.7677 0.0379,-1.8009 -0.0311,-1.0327 -0.0401,-1.7196 -0.0252,-2.0613 0.0146,-0.3415 0.0267,-0.5833 0.0371,-0.7229 l -0.0367,-0.0125 c -0.1168,0.3249 -0.3883,0.97 -0.8125,1.9359 -0.4248,0.9644 -0.7095,1.6648 -0.8572,2.1009 l -0.6172,-0.2089 c 0.009,-0.0245 0.3118,-0.6546 0.9124,-1.8926 0.6003,-1.2366 0.9854,-2.1078 1.1566,-2.6137 l 0.944,0.3196 c -0.0891,0.2633 -0.1208,0.9857 -0.0939,2.1683 0.0259,1.1811 8e-4,1.8837 -0.0742,2.1055 l 0.0367,0.0124 c 0.075,-0.2217 0.5056,-0.7884 1.2944,-1.6991 0.7884,-0.9094 1.2248,-1.4933 1.3115,-1.7491 l 0.9222,0.3122 c -0.1714,0.5056 -0.419,1.4182 -0.7436,2.7399 -0.3247,1.3217 -0.4938,2.0027 -0.5075,2.0431 z m 2.6127,1.2787 -0.6545,-0.2967 c 0.3722,-0.7298 0.7464,-1.5084 1.1218,-2.3358 0.369,-0.8137 0.674,-1.5326 0.9154,-2.1555 l 0.6546,0.297 c -0.3169,0.614 -0.6554,1.3165 -1.0154,2.1099 -0.3776,0.8325 -0.7179,1.6263 -1.0219,2.3811 z m 7.9003,-1.2765 c -0.246,0.4103 -0.4741,0.7919 -0.6852,1.1493 -0.2103,0.3562 -0.4051,0.6903 -0.5833,1.0007 -0.8425,1.4675 -1.843,1.868 -3.001,1.2033 -0.3015,-0.1732 -0.5361,-0.3644 -0.7024,-0.5761 -0.1658,-0.2099 -0.2669,-0.444 -0.3034,-0.7019 -0.0368,-0.258 -0.01,-0.5419 0.0812,-0.8505 0.0919,-0.308 0.244,-0.6486 0.4565,-1.0186 0.186,-0.3238 0.3813,-0.6693 0.5859,-1.0363 0.2047,-0.367 0.4214,-0.7599 0.6503,-1.1799 l 0.6247,0.3586 c -0.5055,0.8203 -0.8941,1.4664 -1.1656,1.9393 -0.2181,0.38 -0.3785,0.7009 -0.4782,0.9627 -0.1005,0.2611 -0.1491,0.4987 -0.1459,0.7136 0.004,0.2141 0.0588,0.3961 0.1652,0.5463 0.1059,0.1505 0.2711,0.2886 0.494,0.4166 0.2346,0.1344 0.4436,0.2113 0.6292,0.2283 0.1842,0.0165 0.3674,-0.0246 0.5482,-0.1266 0.1806,-0.1019 0.36,-0.2612 0.5384,-0.4807 0.1782,-0.2198 0.3794,-0.5261 0.6039,-0.9172 0.1333,-0.2322 0.2896,-0.5123 0.4672,-0.8396 0.1773,-0.3274 0.381,-0.7083 0.6104,-1.1415 z m 3.5153,8.7547 -0.559,-0.4415 c 0.3493,-0.4424 0.8226,-1.1044 1.4216,-1.9902 0.5993,-0.8843 0.9617,-1.4118 1.0899,-1.5808 l -0.0305,-0.0239 c -0.7065,0.488 -1.5101,0.9884 -2.4086,1.5027 -0.8995,0.5135 -1.4002,0.8347 -1.5019,0.9636 l -0.4019,-0.3175 c 0.1098,-0.139 0.3237,-0.6997 0.6397,-1.6839 0.317,-0.9834 0.5385,-1.6335 0.6672,-1.9505 0.1284,-0.3168 0.2207,-0.5406 0.2773,-0.6686 l -0.0303,-0.0241 c -0.219,0.2671 -0.6911,0.7836 -1.4144,1.5517 -0.7236,0.7661 -1.2268,1.3305 -1.5122,1.6917 l -0.5112,-0.4037 c 0.016,-0.0203 0.513,-0.5123 1.494,-1.4772 0.9802,-0.9638 1.635,-1.6554 1.9658,-2.0746 l 0.7824,0.6176 c -0.1724,0.2181 -0.4443,0.8879 -0.8155,2.0112 -0.3716,1.1214 -0.6308,1.7752 -0.7757,1.9588 l 0.0303,0.024 c 0.1451,-0.1838 0.7406,-0.5732 1.7892,-1.1668 1.0476,-0.5925 1.6546,-0.9962 1.8219,-1.2081 l 0.7641,0.6032 c -0.3308,0.4191 -0.87,1.1957 -1.619,2.332 -0.7491,1.1365 -1.1367,1.7214 -1.1632,1.7549 z"
       style="fill:url(#grad47)"
       id="path99" />
    <path
       d="m 898.2334,207.6119 c 0.1432,0.2988 0.2856,0.5407 0.3788,0.8003 0.4186,1.1651 0.5563,2.3608 0.249,3.5703 -0.0789,0.3107 -0.3188,0.5815 -0.4912,0.8667 -0.05,0.0829 -0.1559,0.144 -0.1772,0.2297 -0.0455,0.1825 -0.1024,0.3863 -0.0618,0.5595 0.0461,0.1965 0.2349,0.2697 0.4565,0.289 0.607,0.0529 1.1394,-0.1268 1.6321,-0.4574 0.1678,-0.1127 0.24,-0.2617 0.1144,-0.4568 -0.0528,-0.082 -0.0919,-0.1728 -0.1446,-0.255 -0.09,-0.1406 -0.0621,-0.2654 0.0702,-0.3458 0.2563,-0.1557 0.3011,-0.3979 0.2624,-0.6533 -0.2122,-1.3992 -0.074,-2.7716 0.2589,-4.138 0.1448,-0.5944 0.0314,-1.1455 -0.4622,-1.5678 -0.0264,-0.0225 -0.0541,-0.0447 -0.0845,-0.0612 -0.3824,-0.2079 -0.43,-0.3113 -0.174,-0.6483 0.3312,-0.4362 0.4275,-0.9196 0.4187,-1.4467 -0.0181,-1.0813 -0.0288,-2.1626 -0.0423,-3.244 -10e-4,-0.0996 -2e-4,-0.1993 -2e-4,-0.299 0.0324,-0.003 0.0648,-0.006 0.0972,-0.008 0.017,0.0756 0.0422,0.1503 0.0497,0.2268 0.1055,1.0727 0.2088,2.1455 0.312,3.2185 0.0272,0.2838 0.0562,0.5676 0.0745,0.852 0.005,0.0767 6e-4,0.1802 -0.0449,0.2299 -0.3424,0.3741 -0.1672,0.8271 0.0816,1.1633 0.1432,0.1935 0.2692,0.4001 0.3984,0.6036 0.1944,0.3064 0.1339,0.6527 0.1504,0.9875 0.0149,0.3005 0.1327,0.5427 0.4273,0.7201 0.1116,-0.4309 0.224,-0.826 0.3143,-1.2262 0.0723,-0.3203 0.1668,-0.6475 0.1614,-0.9701 -0.005,-0.3162 -0.1073,-0.6359 -0.2029,-0.9429 -0.0337,-0.1082 -0.159,-0.2152 -0.2688,-0.2671 -0.3297,-0.1557 -0.4688,-0.4272 -0.4883,-0.7621 -0.0313,-0.5342 -0.009,-1.0728 -0.0614,-1.6043 -0.0809,-0.8204 -0.1937,-1.6382 -0.3175,-2.4534 -0.0565,-0.3728 -0.1199,-0.7593 -0.2706,-1.0997 -0.2779,-0.628 -0.6259,-1.2316 -1.2813,-1.5491 -0.2787,-0.135 -0.5852,-0.2413 -0.8902,-0.2861 -0.3416,-0.0502 -0.6985,-0.045 -1.0438,-0.0117 -0.5451,0.0525 -1.0841,0.1688 -1.6294,0.22 -0.5167,0.0485 -1.0382,0.0443 -1.5572,0.0702 -0.3464,0.0174 -0.6919,0.0609 -1.0383,0.0684 -1.2668,0.0274 -2.5345,0.0791 -3.8003,0.0519 -0.6976,-0.015 -1.3912,-0.1787 -2.0887,-0.2563 -0.3483,-0.0388 -0.7021,-0.0256 -1.0522,-0.0526 -0.5401,-0.0416 -1.0792,-0.097 -1.6186,-0.1481 -0.0616,-0.006 -0.1217,-0.0296 -0.1832,-0.0328 -0.9184,-0.0473 -1.837,-0.0909 -2.7554,-0.1389 -0.6754,-0.0352 -1.3508,-0.0713 -2.0256,-0.1162 -0.2472,-0.0164 -0.494,-0.0511 -0.7379,-0.0946 -0.0861,-0.0154 -0.1631,-0.082 -0.2444,-0.1252 0.006,-0.0242 0.0126,-0.0483 0.0188,-0.0725 0.1148,-0.0419 0.2265,-0.0999 0.345,-0.1222 0.2319,-0.0435 0.4293,-0.0994 0.4162,-0.3998 -0.0111,-0.2559 -0.2101,-0.4923 -0.4375,-0.5738 -0.3373,-0.121 -0.5894,0.0175 -0.8514,0.1969 -0.1605,0.11 -0.3449,0.185 -0.5186,0.2757 -0.0214,-0.0229 -0.0429,-0.0457 -0.0643,-0.0685 0.0394,-0.1003 0.0784,-0.2007 0.1182,-0.3008 0.1692,-0.4258 -0.0692,-0.8203 -0.5326,-0.797 -0.3929,0.0198 -0.7846,0.1203 -1.1705,0.2116 -0.5267,0.1247 -1.0309,0.4024 -1.5977,0.2055 -0.0665,-0.0232 -0.1267,-0.0724 -0.1941,-0.0839 -0.1063,-0.018 -0.2163,-0.0142 -0.3247,-0.0197 0.0157,0.109 -0.004,0.2431 0.053,0.3228 0.3918,0.5498 0.7448,0.7766 1.5008,0.6766 0.0954,-0.0127 0.1907,-0.0272 0.3202,0.0126 -0.2361,0.2242 -0.4742,0.4467 -0.7079,0.6733 -0.9746,0.945 -1.9486,1.8903 -2.9197,2.8386 -0.0749,0.0731 -0.1331,0.1666 -0.1864,0.2579 -0.0816,0.1397 -0.0639,0.2555 0.0642,0.3784 0.2082,0.1998 0.3852,0.432 0.5914,0.634 0.0694,0.0679 0.1875,0.1197 0.2839,0.1208 0.7333,0.008 1.4218,0.2125 2.098,0.4661 0.4842,0.1815 0.9836,0.2518 1.495,0.2394 0.675,-0.0163 1.1804,0.3035 1.6503,0.7505 0.9552,0.9083 1.4509,2.0658 1.8649,3.2794 0.1374,0.4029 0.3144,0.7967 0.5146,1.1727 0.2588,0.486 0.6155,0.8619 1.2404,0.7957 0.2013,-0.0213 0.2674,0.0785 0.2712,0.2665 0.0157,0.7676 0.0563,1.5351 0.054,2.3025 -0.003,0.9977 -0.261,1.9197 -0.9213,2.6971 -0.1252,0.1474 -0.2793,0.2715 -0.3953,0.425 -0.0692,0.0918 -0.1531,0.2512 -0.1171,0.3241 0.0468,0.0947 0.1997,0.1657 0.3186,0.1907 0.3969,0.0831 0.7275,-0.0714 1.0284,-0.324 0.2368,-0.1987 0.5147,-0.3555 0.7231,-0.5788 0.1481,-0.1587 0.2634,-0.388 0.3007,-0.6019 0.0717,-0.4117 0.0407,-0.8423 0.1225,-1.2512 0.0683,-0.3416 0.1939,-0.6886 0.372,-0.9868 0.1934,-0.3238 0.3488,-0.6352 0.3292,-1.0193 -0.005,-0.0927 0.0248,-0.1872 0.0454,-0.3283 0.3063,0.288 0.3472,0.6367 0.3774,0.956 0.0894,0.9429 -0.0349,1.8722 -0.311,2.7764 -0.0384,0.1261 -0.1865,0.2234 -0.2946,0.3222 -0.1815,0.166 -0.4871,0.2533 -0.3696,0.5993 0.0656,0.1934 0.2992,0.253 0.7103,0.1959 0.4981,-0.0693 0.9225,-0.2421 1.1676,-0.7296 0.0676,-0.1345 0.2413,-0.2134 0.3197,-0.3455 0.0668,-0.1126 0.118,-0.278 0.0878,-0.3978 -0.2183,-0.8653 -0.0903,-1.6605 0.4623,-2.3639 0.1861,-0.237 0.1703,-0.4533 0.0598,-0.6926 -0.2089,-0.4527 -0.2505,-0.9246 -0.1846,-1.4132 0.075,-0.5574 0.2981,-0.676 0.8508,-0.6485 1.2998,0.0647 2.6024,0.0716 3.9038,0.1055 0.3988,0.0104 0.7977,0.0265 1.1955,0.0552 0.0602,0.004 0.1389,0.08 0.1677,0.1419 0.2201,0.4731 0.6212,0.7491 1.0425,1.0178 0.1202,0.0766 0.18,0.2518 0.2592,0.3867 0.0303,0.0516 0.0289,0.1213 0.0566,0.1752 0.1532,0.2989 0.2259,0.3052 0.442,0.041 0.0882,-0.1079 0.1531,-0.2836 0.2615,-0.315 0.1839,-0.0535 0.3791,-0.0171 0.4868,0.2136 0.161,0.3447 0.3549,0.3564 0.5418,0.0392 0.0768,-0.1304 0.1447,-0.1991 0.3092,-0.1869 0.1825,0.0137 0.1844,0.1452 0.2104,0.2581 0.1605,0.6975 0.0663,1.3788 -0.2595,1.9991 -0.2269,0.4317 -0.5667,0.8033 -0.8457,1.2089 -0.1347,0.1959 -0.2562,0.403 -0.3637,0.615 -0.0793,0.1565 -0.009,0.2772 0.1547,0.3329 0.3919,0.1333 0.7908,0.1433 1.1716,-0.0151 0.1334,-0.0555 0.2514,-0.1936 0.332,-0.3219 0.2364,-0.3765 0.5109,-0.7075 0.8836,-0.9602 0.0821,-0.0558 0.1345,-0.2053 0.1408,-0.315 0.051,-0.8846 0.1805,-1.7553 0.4598,-2.5972 0.1498,-0.4513 0.3079,-0.9052 0.7037,-1.3321 z"
       style="fill:#1b1918;fill-rule:evenodd"
       id="path100" />
    <defs
       id="defs109">
      <linearGradient
         id="grad48">
        <stop
           offset="0.0000%"
           stop-color="#805711"
           stop-opacity="1.0000"
           id="stop100" />
        <stop
           offset="11.0000%"
           stop-color="#947025"
           stop-opacity="1.0000"
           id="stop101" />
        <stop
           offset="28.0000%"
           stop-color="#ccb260"
           stop-opacity="1.0000"
           id="stop102" />
        <stop
           offset="40.0000%"
           stop-color="#c6a864"
           stop-opacity="1.0000"
           id="stop103" />
        <stop
           offset="50.0000%"
           stop-color="#ccb260"
           stop-opacity="1.0000"
           id="stop104" />
        <stop
           offset="69.0000%"
           stop-color="#ccb260"
           stop-opacity="1.0000"
           id="stop105" />
        <stop
           offset="79.0000%"
           stop-color="#ffdd8c"
           stop-opacity="1.0000"
           id="stop106" />
        <stop
           offset="87.0000%"
           stop-color="#ccb260"
           stop-opacity="1.0000"
           id="stop107" />
        <stop
           offset="91.0000%"
           stop-color="#c09838"
           stop-opacity="1.0000"
           id="stop108" />
        <stop
           offset="100.0000%"
           stop-color="#ccb260"
           stop-opacity="1.0000"
           id="stop109" />
      </linearGradient>
      <linearGradient
         xlink:href="#grad48"
         id="grad49"
         x1="329.12668"
         y1="750.24719"
         x2="329.12668"
         y2="759.50885"
         gradientTransform="scale(2.6638245,0.37540011)"
         gradientUnits="userSpaceOnUse" />
    </defs>
    <path
       d="m 898.303,281.7685 c -1.1609,0.042 -2.335,0.0761 -3.5089,0.0948 -0.5093,0.008 -1.448,0.059 -1.8591,0.0263 -0.3053,-0.0243 0.0319,-0.1069 -0.4937,-0.109 -0.2219,-9e-4 -0.4411,-0.002 -0.6627,-0.006 -3.5339,-0.0576 -9.5821,-0.2365 -12.9272,0.3108 -0.4114,0.0673 -1.8426,0.3093 -2.1157,0.4572 2.6676,1.677 8.8224,2.418 11.985,2.5314 l 3.1406,0.0454 c 0.3657,-5e-4 0.6551,0.009 0.8661,-0.2088 0.0407,-0.3689 -0.2628,-1.1462 -0.0334,-1.4459 0.1803,-0.1378 4.8852,0.0562 5.4484,0.0817 0.8943,0.0405 1.7911,0.1134 2.6833,0.1737 0.5451,0.0368 0.5881,-0.3516 0.5806,-0.8757 -0.005,-0.3488 -0.0645,-0.9658 -0.2646,-1.1805 -0.2456,-0.0807 -2.3802,0.093 -2.8387,0.1043 z"
       style="fill:url(#grad49)"
       id="path109" />
  </g>
</svg>
