    
   <svg width="100%" height="100%" xmlns="http://www.w3.org/2000/svg">
     <path
        fillRule="evenodd"
        clipRule="evenodd"
        stroke="#E30016"
        strokeWidth="0.5"
        fill="#E30016"
        d="M112.548 67.325C109.949 63.031 107.092 58.899 103.993 54.952C102.791 56.426 101.43 57.763 99.936 58.939C99.785 59.057 99.634 59.175 99.481 59.292L99.23 59.473C98.861 59.735 98.464 59.979 98.037 60.207C102.904 62.517 107.742 64.89 112.548 67.326V67.325ZM95.384 44.937C93.244 42.66 91.041 40.443 88.778 38.288L88.668 39.284L88.638 39.577C88.737 40.194 88.786 40.901 88.785 41.697C88.783 42.591 88.713 43.624 88.574 44.799C88.438 45.895 88.315 46.993 88.205 48.092V48.093L88.197 48.175V48.176L88.189 48.256L88.182 48.336L88.176 48.413L88.169 48.491L88.162 48.565L88.156 48.639L88.148 48.711L88.136 48.851L88.13 48.917V48.919L88.125 48.984C88.089 49.442 88.072 49.789 88.072 50.027C88.202 50.184 88.304 50.304 88.378 50.387V50.389L88.428 50.445C88.484 50.454 88.541 50.461 88.601 50.465H88.602L88.622 50.467H88.642L88.662 50.468H88.684V50.469H88.766C89.098 50.467 89.472 50.393 89.888 50.247C90.006 50.206 90.292 50.09 90.745 49.899L90.774 49.885L90.805 49.873L91.349 49.641C91.794 49.237 92.188 48.871 92.532 48.543L92.573 48.503L92.613 48.464L92.653 48.425C93.13 47.966 93.504 47.585 93.774 47.284C94.064 46.951 94.332 46.61 94.578 46.26L94.584 46.253L94.606 46.22L94.609 46.216C94.896 45.803 95.154 45.376 95.384 44.936V44.937ZM80.66 30.987C79.433 29.942 78.201 28.916 76.962 27.909L76.926 27.907H76.9C76.477 27.907 76.084 27.915 75.721 27.932H75.706C75.338 27.951 75 27.979 74.69 28.016C74.337 28.059 73.962 28.121 73.566 28.204L73.534 28.212C73.254 28.271 72.965 28.339 72.665 28.416C72.409 28.333 72.272 28.211 72.272 28.063C72.305 28.012 72.336 27.96 72.362 27.905L72.368 27.896C72.427 27.768 72.457 27.629 72.454 27.488C72.454 27.421 72.445 27.355 72.428 27.291V27.283L72.424 27.275C72.392 27.166 72.354 27.059 72.309 26.955L72.256 26.825L72.252 26.817L72.248 26.808C72.203 26.702 72.16 26.596 72.12 26.488L72.117 26.481L72.098 26.429L72.285 25.916L72.768 24.575C70.837 23.075 68.885 21.603 66.913 20.159C66.933 20.253 66.945 20.327 66.949 20.381V20.509C66.941 20.702 66.892 20.89 66.805 21.061L63.397 22.311L58.717 24.025C58.745 24.079 58.776 24.131 58.808 24.184L58.821 24.208L58.832 24.224L58.837 24.232L58.842 24.24L58.848 24.247L58.853 24.255L58.857 24.263L58.864 24.271L58.869 24.279L58.874 24.287L58.88 24.295C58.93 24.375 58.984 24.454 59.04 24.533C59.047 24.667 59.023 24.8 58.969 24.923L58.965 24.931L58.958 24.94L58.953 24.948C58.904 25.029 58.815 25.078 58.72 25.076H57.04C56.053 25.076 54.986 25.157 53.84 25.319L53.745 25.332L53.552 25.361L53.454 25.375L53.357 25.391L53.26 25.407L53.162 25.423L53.064 25.439C52.405 25.549 51.722 25.685 51.016 25.848L50.314 26.027L50.25 26.044L50.184 26.06L50.114 26.079L50.042 26.097L49.968 26.116L49.89 26.136L49.81 26.157L49.726 26.179L49.641 26.2L49.553 26.223L49.461 26.247L49.368 26.271L49.27 26.296L49.172 26.321L49.069 26.348L48.964 26.375L48.746 26.431L48.633 26.46L44.92 27.415C43.545 27.777 42.158 28.088 40.76 28.345L40.669 28.361L40.578 28.377L40.489 28.393L40.4 28.408L40.312 28.423L40.224 28.436L40.137 28.451L40.05 28.464C39.592 28.537 39.161 28.595 38.757 28.637L38.705 28.628L38.696 28.627C38.468 28.589 38.239 28.562 38.009 28.548L37.889 28.537H37.888C37.655 28.521 37.421 28.513 37.188 28.515C36.612 28.515 35.893 28.584 35.032 28.723L34.96 28.736C34.309 28.843 33.579 28.987 32.769 29.171C32.348 29.268 31.951 29.355 31.58 29.431L31.5 29.447C30.208 29.706 29.217 29.836 28.525 29.836H27.348L22.289 28.253L21.985 28.159C18.385 31.767 14.255 34.803 9.737 37.163C19.593 37.777 28.46 38.749 36.721 40.104C36.759 39.655 36.769 39.204 36.75 38.753L36.734 38.42L36.732 38.377L36.722 38.249L36.72 38.205L36.717 38.163L36.713 38.12L36.709 38.077L36.704 38.033L36.7 37.989L36.696 37.947L36.674 37.727C36.625 37.277 36.559 36.83 36.474 36.385C36.301 35.456 36.139 34.524 35.988 33.591L35.976 33.512L35.964 33.436C35.83 32.579 35.764 32.014 35.764 31.74V31.1L35.797 30.953V30.948L35.8 30.94L35.801 30.933L35.802 30.927L35.804 30.92L35.805 30.912L35.806 30.905L35.808 30.899L35.81 30.885L35.812 30.88C35.823 30.828 35.831 30.775 35.836 30.723L35.901 30.713H35.902C36.236 30.669 36.569 30.628 36.902 30.591H38.144C39.16 30.591 40.299 30.439 41.562 30.136L41.665 30.109L41.696 30.104L41.762 30.087L42.033 30.016C45.428 29.123 47.509 28.669 48.276 28.669H48.769L48.833 28.681H48.834L48.844 28.683H48.846L48.865 28.687L49.012 28.709H49.021L49.029 28.712H49.038C49.149 28.728 49.238 28.736 49.306 28.736L49.41 28.983L49.413 28.992L49.416 29L49.418 29.008C49.456 29.097 49.494 29.186 49.533 29.275C49.617 29.475 49.66 29.681 49.661 29.893L49.641 29.937L49.621 29.983L49.602 30.028L49.582 30.073L49.564 30.119L49.544 30.165L49.525 30.211L49.506 30.257L49.488 30.303L49.469 30.349L49.433 30.443L49.416 30.488C49.315 30.752 49.224 31.021 49.141 31.296L49.098 31.443L49.085 31.491L49.07 31.54L49.057 31.589L49.044 31.637L49.017 31.736L49.004 31.787L48.99 31.836L48.977 31.885C48.886 32.255 48.81 32.629 48.748 33.005C48.573 34.12 48.484 35.277 48.482 36.476C48.484 37.591 48.554 38.898 48.693 40.399L48.765 41.152L48.768 41.185C48.811 41.639 48.851 42.067 48.888 42.469C58.637 44.677 67.734 47.523 76.945 51.072C76.961 50.77 76.972 50.466 76.977 50.16V49.773C76.978 48.606 76.917 47.436 76.793 46.263L76.786 46.195L76.778 46.128V46.127C76.753 45.9 76.725 45.673 76.696 45.447C76.585 44.607 76.447 43.713 76.282 42.765H76.281L76.268 42.688L76.241 42.533L76.226 42.456L76.213 42.377L76.184 42.221L76.17 42.141L76.141 41.984L76.126 41.904L76.081 41.665L76.066 41.585L76.05 41.505L75.874 40.604L75.234 36.977C75.136 36.929 75.032 36.893 74.925 36.871C74.839 36.849 74.755 36.819 74.674 36.781L74.672 36.78L74.668 36.779L74.665 36.776H74.664L74.661 36.775H74.66L74.622 36.755L74.385 35.132L74.232 34.096V34.095C74.672 33.641 75.168 33.247 75.709 32.921C76.306 32.555 76.933 32.239 77.582 31.976C78.209 31.649 78.86 31.397 79.545 31.213H79.548L79.584 31.204L79.764 31.157C80.061 31.086 80.359 31.029 80.657 30.987H80.66ZM60.178 15.371C51.685 9.497 43.47 4.408 36.304 0C35.525 5.077 33.67 11.091 30.361 17.017L30.793 17.021H30.825L31.069 17.023L31.381 17.029H31.425L31.469 17.032C32.053 17.052 32.591 17.103 33.082 17.187L33.118 17.193C33.289 17.223 33.454 17.256 33.614 17.293H34.528C34.682 17.293 34.837 17.29 34.99 17.283H34.993C35.131 17.276 35.268 17.269 35.404 17.261C35.873 17.261 36.26 17.275 36.576 17.301L36.616 17.305L36.657 17.308L36.678 17.311L36.718 17.315L36.737 17.317C36.808 17.324 36.875 17.333 36.937 17.344C37.293 17.393 37.74 17.532 38.288 17.771C39.994 17.771 42.517 17.589 45.845 17.219C47.456 17.044 48.883 16.912 50.126 16.823L50.246 16.815L50.366 16.807C51.402 16.729 52.439 16.687 53.477 16.679L53.873 16.568L53.93 16.552C54.997 16.263 56.104 16.017 57.237 15.816C57.481 15.772 57.724 15.729 57.966 15.689L57.976 15.688C58.707 15.566 59.44 15.46 60.176 15.371H60.178ZM59.794 18.509L59.704 18.52L59.61 18.531C57.688 18.76 55.293 19.08 52.41 19.485C51.155 19.663 50.005 19.817 48.96 19.947L48.844 19.961L48.729 19.975L48.502 20.004L48.278 20.031L48.168 20.044C47.066 20.177 46.091 20.284 45.245 20.364C42.434 20.643 40.034 20.783 38.044 20.783C38.044 20.927 38.066 21.049 38.109 21.151L38.113 21.16L38.117 21.169L38.121 21.179C38.157 21.251 38.206 21.316 38.265 21.371H38.266L38.273 21.377L38.288 21.389C38.563 21.389 38.944 21.372 39.429 21.337L39.464 21.335L39.5 21.332C39.753 21.312 40.034 21.288 40.344 21.259C41.051 21.189 41.76 21.148 42.47 21.136C42.959 21.136 43.423 21.171 43.861 21.243H43.866C44.363 21.323 44.823 21.448 45.246 21.62L49.736 21.233L49.982 20.947L59.794 18.509ZM79.445 43.239L79.453 43.225L79.461 43.212C79.57 43.036 79.641 42.829 79.674 42.591L79.676 42.573L79.678 42.555L79.681 42.537C79.69 42.455 79.694 42.368 79.694 42.279C79.694 42.127 79.682 41.955 79.657 41.763L79.654 41.747L79.653 41.731L79.65 41.715L79.648 41.699L79.645 41.683L79.642 41.667L79.64 41.651L79.634 41.617L79.632 41.601L79.629 41.584L79.621 41.533L79.618 41.516L79.613 41.481L79.61 41.464L79.608 41.447L79.605 41.429L79.602 41.411L79.6 41.393L79.597 41.375L79.59 41.339L79.584 41.301L79.561 41.181C79.424 40.431 79.365 39.915 79.401 39.635V39.633L79.402 39.62V39.619L79.404 39.605L79.409 39.579C79.369 39.515 79.325 39.452 79.28 39.392L79.27 39.379C79.169 39.258 79.075 39.187 78.988 39.165C78.936 39.154 78.883 39.16 78.836 39.184L79.054 43.452H79.161L79.346 43.332L79.41 43.288L79.445 43.239Z"
      />
      <path
        stroke="white"
        strokeWidth="0.5"
        fill="white"
              d="M66.187 20.301L62.143 21.783L58.1 23.264C58.145 23.351 58.195 23.435 58.249 23.519C58.303 23.603 58.36 23.687 58.42 23.773C58.42 23.953 58.392 24.089 58.338 24.179C58.285 24.269 58.205 24.315 58.1 24.315H57.26H56.42C55.544 24.314 54.604 24.378 53.6 24.507C52.596 24.636 51.528 24.829 50.396 25.087L47.347 25.87L44.299 26.653C43.052 26.978 41.915 27.241 40.889 27.444C39.862 27.648 38.945 27.791 38.137 27.877C38.013 27.855 37.889 27.836 37.764 27.821C37.639 27.806 37.514 27.795 37.388 27.787C37.251 27.775 37.115 27.766 36.978 27.761C36.841 27.755 36.704 27.753 36.567 27.753C36.056 27.753 35.431 27.809 34.694 27.918C33.957 28.028 33.108 28.193 32.149 28.411C31.186 28.632 30.351 28.798 29.644 28.909C28.936 29.019 28.357 29.075 27.905 29.075H27.317H26.728L23.893 28.188L21.059 27.301L20.579 27.528L20.1 27.755C20.043 27.738 19.991 27.712 19.944 27.676C19.898 27.641 19.858 27.598 19.827 27.548C19.785 27.487 19.751 27.392 19.725 27.264C19.699 27.135 19.681 26.973 19.672 26.777C19.664 26.597 19.631 26.42 19.576 26.25C19.52 26.081 19.442 25.918 19.343 25.768C19.344 25.415 19.3 25.043 19.212 24.653C19.124 24.263 18.991 23.855 18.813 23.428C18.397 22.423 18.085 21.594 17.877 20.941C17.668 20.289 17.564 19.813 17.563 19.513V19.337V19.16C17.585 19.074 17.604 19 17.616 18.937C17.629 18.873 17.636 18.82 17.636 18.775C17.567 18.499 17.503 18.222 17.444 17.944C17.385 17.666 17.33 17.388 17.28 17.108L17.084 16.066L16.888 15.024L17.367 14.737L17.847 14.449C18.052 14.331 18.252 14.242 18.448 14.183C18.645 14.124 18.837 14.095 19.024 14.096C19.144 14.096 19.257 14.106 19.365 14.127C19.473 14.147 19.576 14.178 19.672 14.219C20.133 14.65 20.669 15.009 21.28 15.299C21.892 15.588 22.579 15.807 23.341 15.959C23.829 16.054 24.429 16.126 25.142 16.174C25.855 16.222 26.682 16.246 27.621 16.247C28.083 16.247 28.551 16.249 29.023 16.252C29.496 16.255 29.973 16.259 30.452 16.263C30.936 16.267 31.39 16.291 31.814 16.337C32.238 16.382 32.633 16.448 32.999 16.535H33.455H33.911C34.057 16.535 34.203 16.53 34.349 16.524C34.495 16.518 34.641 16.509 34.787 16.501C35.12 16.501 35.412 16.507 35.667 16.52C35.921 16.534 36.138 16.554 36.32 16.583C36.499 16.607 36.7 16.655 36.925 16.725C37.149 16.796 37.398 16.891 37.672 17.009C38.525 17.01 39.582 16.965 40.841 16.873C42.101 16.782 43.564 16.644 45.229 16.46C46.892 16.28 48.359 16.144 49.63 16.054C50.902 15.964 51.979 15.919 52.86 15.919C53.479 15.743 54.102 15.583 54.729 15.439C55.356 15.295 55.986 15.167 56.62 15.056C57.26 14.939 57.902 14.835 58.546 14.743C59.19 14.652 59.835 14.573 60.483 14.507L60.715 14.076L60.948 13.645L61.395 13.452L61.841 13.259C61.915 13.279 61.986 13.281 62.056 13.263C62.127 13.244 62.198 13.205 62.271 13.144C62.339 13.087 62.408 13.033 62.474 12.983C62.541 12.933 62.605 12.885 62.664 12.84C62.783 12.788 62.91 12.748 63.047 12.722C63.184 12.696 63.33 12.684 63.485 12.684C63.695 12.684 63.898 12.707 64.093 12.754C64.288 12.801 64.475 12.873 64.653 12.972C64.904 13.131 65.114 13.367 65.284 13.681C65.455 13.994 65.585 14.384 65.676 14.852C65.764 15.319 65.829 15.672 65.873 15.911C65.917 16.15 65.94 16.276 65.94 16.288C65.867 16.435 65.814 16.581 65.78 16.724C65.746 16.866 65.731 17.006 65.731 17.141C65.731 17.293 65.744 17.447 65.772 17.606C65.801 17.765 65.844 17.929 65.904 18.101C66.045 18.524 66.153 18.867 66.225 19.127C66.297 19.388 66.333 19.567 66.333 19.661C66.333 19.78 66.322 19.891 66.297 19.996C66.273 20.102 66.237 20.203 66.187 20.301ZM49.045 29.133C48.827 29.63 48.641 30.14 48.489 30.659C48.336 31.179 48.217 31.708 48.132 32.244C48.044 32.802 47.979 33.37 47.935 33.949C47.891 34.527 47.868 35.116 47.868 35.716C47.868 36.273 47.886 36.879 47.921 37.533C47.956 38.186 48.008 38.888 48.077 39.639C48.245 41.395 48.371 42.819 48.455 43.911C48.539 45.002 48.58 45.761 48.58 46.188C48.58 46.533 48.571 46.875 48.552 47.218C48.534 47.561 48.506 47.903 48.469 48.248C48.437 48.588 48.392 48.935 48.332 49.288C48.273 49.641 48.2 50.001 48.113 50.367C48.022 50.42 47.94 50.467 47.87 50.509C47.799 50.551 47.74 50.587 47.695 50.62C47.644 50.653 47.601 50.701 47.563 50.762C47.525 50.824 47.493 50.9 47.465 50.991C47.426 51.121 47.396 51.254 47.375 51.388C47.354 51.523 47.342 51.658 47.339 51.795C47.325 51.971 47.316 52.149 47.309 52.329C47.303 52.508 47.3 52.688 47.301 52.869C47.228 53.116 47.166 53.375 47.116 53.643C47.066 53.912 47.027 54.191 47 54.479C46.968 54.765 46.945 55.063 46.931 55.368C46.916 55.674 46.909 55.988 46.909 56.308V56.903V57.499C46.909 57.979 46.898 58.395 46.876 58.748C46.854 59.101 46.822 59.391 46.781 59.616C46.734 59.864 46.673 60.11 46.598 60.351C46.524 60.593 46.435 60.83 46.333 61.061L42.733 61.513L39.132 61.964H39.045H38.959C38.733 61.835 38.498 61.726 38.255 61.637C38.012 61.547 37.762 61.478 37.507 61.431C37.221 61.391 36.934 61.362 36.647 61.344C36.359 61.326 36.071 61.319 35.783 61.324H35.175H34.568L34.39 60.955L34.212 60.585C34.294 60.33 34.364 60.064 34.424 59.786C34.483 59.508 34.531 59.219 34.568 58.919C34.605 58.623 34.632 58.328 34.65 58.035C34.668 57.741 34.677 57.45 34.677 57.163C34.677 56.829 34.666 56.46 34.642 56.055C34.618 55.65 34.581 55.209 34.531 54.732C34.425 53.641 34.346 52.757 34.293 52.078C34.24 51.4 34.213 50.927 34.212 50.661C34.212 50.395 34.214 50.161 34.22 49.959C34.226 49.757 34.236 49.587 34.248 49.448C34.261 49.309 34.286 49.138 34.323 48.935C34.36 48.733 34.408 48.498 34.468 48.232C34.81 48.113 35.086 47.92 35.298 47.653C35.51 47.387 35.659 47.046 35.745 46.632C35.682 46.457 35.635 46.277 35.604 46.094C35.574 45.911 35.56 45.725 35.563 45.539C35.563 45.392 35.569 45.21 35.584 44.992C35.599 44.775 35.622 44.522 35.655 44.235C35.678 44.048 35.697 43.861 35.712 43.674C35.727 43.486 35.738 43.298 35.745 43.111C35.745 43.024 35.743 42.932 35.74 42.833C35.736 42.735 35.732 42.631 35.728 42.52C35.723 42.409 35.698 42.278 35.653 42.126C35.609 41.974 35.545 41.801 35.461 41.608C35.59 41.341 35.7 41.081 35.789 40.828C35.878 40.575 35.947 40.329 35.992 40.091C36.041 39.848 36.078 39.589 36.103 39.314C36.127 39.039 36.139 38.747 36.139 38.44C36.139 38.014 36.116 37.566 36.068 37.097C36.021 36.628 35.95 36.137 35.855 35.625C35.617 34.332 35.439 33.3 35.321 32.527C35.202 31.753 35.143 31.239 35.143 30.98V30.66V30.34C35.166 30.245 35.184 30.165 35.197 30.102C35.209 30.038 35.216 29.991 35.216 29.961C35.394 29.937 35.572 29.914 35.75 29.893C35.928 29.872 36.105 29.851 36.283 29.831H36.904H37.525C38.096 29.831 38.705 29.783 39.353 29.688C40.001 29.592 40.688 29.448 41.413 29.256C43.111 28.808 44.48 28.472 45.521 28.247C46.562 28.023 47.274 27.91 47.657 27.909H47.904H48.151C48.27 27.931 48.375 27.947 48.465 27.958C48.554 27.969 48.629 27.975 48.689 27.976L48.803 28.247L48.916 28.517C48.957 28.616 48.99 28.717 49.012 28.819C49.034 28.922 49.045 29.027 49.045 29.133ZM59.177 17.749C57.945 17.899 56.713 18.055 55.482 18.217C54.251 18.38 53.021 18.549 51.792 18.725C50.304 18.935 48.965 19.111 47.771 19.257C46.578 19.403 45.531 19.518 44.627 19.604C43.221 19.744 41.918 19.848 40.718 19.918C39.517 19.988 38.42 20.023 37.425 20.023C37.425 20.162 37.446 20.281 37.487 20.381C37.528 20.482 37.589 20.564 37.672 20.629C37.886 20.63 38.164 20.62 38.507 20.598C38.849 20.576 39.255 20.543 39.725 20.499C40.079 20.464 40.433 20.436 40.787 20.415C41.142 20.395 41.497 20.381 41.852 20.375C42.377 20.375 42.872 20.416 43.335 20.497C43.799 20.578 44.23 20.699 44.627 20.859L46.872 20.666L49.117 20.473L49.241 20.33L49.364 20.187L54.271 18.968L59.177 17.749ZM108.029 37.825C108.097 38.338 108.15 38.847 108.185 39.353C108.22 39.86 108.239 40.365 108.239 40.869C108.239 42.598 108.034 44.274 107.622 45.898C107.209 47.522 106.591 49.093 105.765 50.612C104.939 52.131 103.951 53.549 102.801 54.868C101.651 56.187 100.339 57.408 98.864 58.532C98.079 59.119 97.16 59.628 96.106 60.06C95.053 60.492 93.867 60.847 92.548 61.127C91.443 61.36 90.282 61.537 89.064 61.655C87.847 61.773 86.573 61.833 85.245 61.833L82.804 61.722L80.363 61.611C80.312 61.565 80.275 61.522 80.251 61.479C80.227 61.436 80.216 61.393 80.216 61.348C80.216 61.328 80.225 61.295 80.246 61.25C80.267 61.205 80.299 61.147 80.344 61.077C80.385 61.007 80.406 60.946 80.408 60.89C80.411 60.835 80.395 60.786 80.363 60.741L77.186 60.183L74.009 59.624C73.987 59.523 73.975 59.42 73.975 59.317C73.975 59.213 73.987 59.11 74.009 59.009C74.032 58.914 74.073 58.815 74.132 58.714C74.192 58.613 74.269 58.508 74.365 58.401C74.714 57.682 75.016 56.941 75.269 56.185C75.522 55.428 75.727 54.655 75.881 53.871C76.042 53.071 76.163 52.264 76.243 51.453C76.324 50.642 76.364 49.828 76.364 49.012C76.364 48.294 76.341 47.576 76.295 46.855C76.248 46.135 76.177 45.413 76.081 44.687C75.971 43.875 75.847 43.066 75.71 42.258C75.574 41.451 75.423 40.646 75.26 39.844L74.94 38.031L74.62 36.217C74.571 36.193 74.52 36.172 74.469 36.154C74.417 36.136 74.364 36.121 74.311 36.109C74.258 36.096 74.207 36.08 74.156 36.061C74.106 36.042 74.057 36.02 74.009 35.995L73.813 34.665L73.617 33.335C73.809 33.129 74.028 32.93 74.274 32.735C74.521 32.541 74.795 32.35 75.096 32.161C75.394 31.979 75.7 31.808 76.012 31.651C76.324 31.493 76.642 31.349 76.967 31.217C77.312 31.037 77.668 30.878 78.033 30.741C78.397 30.604 78.769 30.489 79.148 30.396C79.522 30.306 79.9 30.239 80.281 30.194C80.662 30.149 81.046 30.126 81.431 30.125C81.882 30.125 82.368 30.156 82.889 30.216C83.411 30.276 83.968 30.364 84.561 30.479C84.835 30.532 85.234 30.62 85.758 30.743C86.282 30.867 86.93 31.025 87.701 31.217C87.82 31.419 87.925 31.646 88.015 31.899C88.105 32.151 88.181 32.428 88.24 32.728C88.299 33.028 88.343 33.323 88.371 33.615C88.4 33.908 88.413 34.197 88.413 34.484C88.413 34.754 88.402 35.058 88.379 35.396C88.356 35.734 88.322 36.105 88.276 36.511C88.229 36.894 88.183 37.279 88.141 37.663C88.098 38.048 88.058 38.432 88.02 38.817C88.071 39.125 88.107 39.456 88.131 39.809C88.155 40.162 88.167 40.537 88.167 40.936C88.166 41.383 88.148 41.864 88.113 42.381C88.078 42.898 88.026 43.45 87.957 44.037C87.788 45.417 87.662 46.543 87.579 47.415C87.496 48.288 87.455 48.905 87.455 49.267L87.633 49.476L87.811 49.685C88.011 49.718 88.235 49.718 88.479 49.685C88.723 49.652 88.987 49.587 89.271 49.488C89.516 49.392 89.761 49.293 90.004 49.192C90.248 49.09 90.491 48.986 90.732 48.88C91.302 48.363 91.788 47.908 92.192 47.515C92.596 47.122 92.917 46.792 93.159 46.525C93.504 46.128 93.824 45.709 94.115 45.272C94.406 44.835 94.669 44.379 94.903 43.907L95.688 43.505L96.473 43.103C96.518 42.983 96.555 42.864 96.584 42.746C96.613 42.628 96.634 42.511 96.647 42.396C96.659 42.277 96.669 42.15 96.675 42.015C96.681 41.879 96.683 41.735 96.683 41.583C96.683 41.316 96.671 41.043 96.649 40.764C96.626 40.485 96.592 40.2 96.547 39.909C96.414 39.113 96.316 38.475 96.25 37.993C96.185 37.511 96.153 37.185 96.153 37.012V36.532V36.052C96.14 36.031 96.108 36.011 96.055 35.989C96.003 35.967 95.929 35.945 95.833 35.92L95.336 36.885L94.839 37.849C94.757 37.989 94.668 38.106 94.573 38.201C94.478 38.296 94.378 38.37 94.273 38.424C94.14 37.595 93.919 36.791 93.61 36.01C93.301 35.228 92.904 34.471 92.42 33.737C91.996 33.089 91.476 32.426 90.86 31.747C90.244 31.068 89.532 30.372 88.724 29.657C88.358 29.474 87.985 29.306 87.605 29.153C87.226 28.999 86.841 28.861 86.451 28.737C86.003 28.597 85.554 28.461 85.103 28.328C84.653 28.196 84.202 28.067 83.749 27.943C83.014 27.836 82.338 27.739 81.722 27.654C81.106 27.569 80.549 27.495 80.052 27.433C79.303 27.335 78.614 27.264 77.986 27.216C77.357 27.169 76.789 27.147 76.283 27.147C75.853 27.147 75.456 27.155 75.088 27.172C74.721 27.189 74.383 27.216 74.073 27.253C73.767 27.29 73.446 27.343 73.108 27.411C72.77 27.479 72.417 27.561 72.047 27.655C71.919 27.614 71.821 27.563 71.755 27.504C71.689 27.444 71.655 27.377 71.655 27.303C71.714 27.219 71.76 27.127 71.791 27.03C71.822 26.933 71.838 26.831 71.837 26.728C71.837 26.662 71.826 26.586 71.802 26.498C71.778 26.41 71.741 26.309 71.691 26.195C71.645 26.084 71.604 25.985 71.569 25.898C71.534 25.811 71.504 25.735 71.481 25.669L71.892 24.532L72.303 23.395C72.134 23.03 71.908 22.72 71.623 22.464C71.337 22.207 70.993 22.004 70.587 21.852L70.55 21.483L70.513 21.113L72.727 20.424L74.94 19.735C74.94 19.628 74.933 19.544 74.921 19.48C74.909 19.417 74.891 19.373 74.868 19.348C74.762 19.259 74.646 19.182 74.524 19.119C74.401 19.056 74.272 19.007 74.137 18.972C74.001 18.93 73.862 18.897 73.722 18.875C73.582 18.853 73.44 18.841 73.297 18.84C73.166 18.84 73.009 18.846 72.825 18.86C72.641 18.874 72.43 18.895 72.193 18.923C72.038 18.941 71.883 18.956 71.728 18.968C71.573 18.981 71.417 18.99 71.261 18.996C71.143 18.996 71.022 18.99 70.898 18.976C70.774 18.961 70.646 18.939 70.513 18.905C70.431 18.807 70.363 18.727 70.309 18.664C70.256 18.6 70.217 18.553 70.193 18.52C70.133 18.446 70.058 18.389 69.973 18.351C69.888 18.313 69.795 18.294 69.7 18.299L69.422 18.352L69.144 18.405C69.077 18.421 69.008 18.432 68.94 18.441C68.871 18.449 68.802 18.454 68.733 18.455C68.672 18.454 68.612 18.448 68.552 18.437C68.493 18.425 68.434 18.409 68.377 18.388C68.378 18.314 68.389 18.23 68.41 18.137C68.431 18.044 68.463 17.942 68.505 17.831C68.546 17.72 68.576 17.632 68.596 17.565C68.615 17.498 68.625 17.452 68.624 17.428C68.948 17.289 69.327 17.176 69.762 17.089C70.198 17.002 70.691 16.94 71.244 16.903C71.801 16.866 72.344 16.829 72.875 16.794C73.407 16.76 73.927 16.727 74.439 16.697C75.652 16.567 76.868 16.435 78.087 16.302C79.306 16.168 80.527 16.033 81.749 15.893C83.447 15.893 85.102 16.014 86.711 16.257C88.32 16.501 89.883 16.866 91.397 17.355C92.913 17.839 94.387 18.444 95.821 19.168C97.256 19.893 98.65 20.736 100.005 21.696C100.435 22.016 100.811 22.326 101.138 22.626C101.464 22.926 101.74 23.215 101.968 23.495C102.265 23.855 102.486 24.219 102.633 24.582C102.78 24.945 102.853 25.308 102.853 25.668C102.817 25.742 102.773 25.8 102.721 25.839C102.668 25.878 102.607 25.899 102.533 25.899L102.05 25.722L101.567 25.545C101.425 25.574 101.325 25.619 101.267 25.679C101.209 25.739 101.193 25.813 101.22 25.899C101.639 26.278 102.024 26.692 102.369 27.137C102.714 27.583 103.02 28.058 103.283 28.559C103.506 28.985 103.72 29.463 103.923 29.992C104.126 30.52 104.318 31.099 104.496 31.727C104.556 31.771 104.618 31.804 104.683 31.825C104.748 31.847 104.816 31.857 104.889 31.857L105.136 31.201L105.383 30.544C105.683 31.069 105.962 31.615 106.217 32.182C106.473 32.748 106.706 33.335 106.916 33.943C107.131 34.55 107.331 35.177 107.516 35.825C107.702 36.472 107.873 37.139 108.029 37.825ZM78.792 42.528C78.887 42.396 78.959 42.246 79.006 42.078C79.054 41.91 79.077 41.723 79.076 41.519C79.076 41.387 79.067 41.242 79.048 41.079C79.03 40.917 79.002 40.739 78.965 40.541C78.883 40.107 78.827 39.746 78.797 39.458C78.768 39.171 78.765 38.957 78.792 38.817C78.683 38.641 78.58 38.522 78.484 38.458C78.388 38.393 78.299 38.383 78.217 38.424L78.327 40.557L78.436 42.691H78.491H78.545L78.669 42.609L78.792 42.528Z"
      />
      <path
        stroke="white"
        strokeWidth="0.5"
        fill="white"
        d="M16.079 67.473H13.747H11.415V71.895V76.317H9.96701H8.52002V71.895V67.473H6.22302H3.927V66.566V65.66H10.003H16.079V66.566V67.473ZM20.824 76.286H19.153H17.481V70.958V65.63H19.152H20.823V70.958L20.824 76.286ZM35.289 76.286H33.726H32.163L31.635 75.069L31.108 73.852H28.525H25.943L25.38 75.069L24.817 76.286H23.271H21.725L24.29 70.958L26.855 65.63H28.383H29.911L32.6 70.958L35.289 76.286ZM30.143 71.993L29.294 70.121L28.445 68.249L27.623 70.122L26.801 71.994H28.472L30.143 71.993ZM49.255 76.286H45.091H40.928C40.172 76.286 39.481 76.149 38.855 75.875C38.229 75.601 37.669 75.19 37.175 74.642C36.71 74.125 36.362 73.559 36.13 72.945C35.897 72.331 35.781 71.669 35.781 70.958C35.781 70.233 35.909 69.561 36.165 68.942C36.421 68.323 36.805 67.757 37.317 67.244C37.854 66.706 38.459 66.303 39.132 66.034C39.805 65.765 40.547 65.63 41.357 65.63H45.235H49.112V66.612V67.594H45.601H42.089C41.625 67.594 41.206 67.681 40.834 67.853C40.462 68.026 40.135 68.284 39.855 68.629C39.599 68.944 39.407 69.293 39.279 69.676C39.151 70.059 39.087 70.476 39.087 70.928C39.087 71.395 39.147 71.829 39.266 72.23C39.385 72.631 39.564 72.998 39.801 73.333C40.075 73.714 40.397 74 40.766 74.19C41.135 74.381 41.552 74.476 42.017 74.476H44.117H46.217V73.128V71.781H44.073H41.928V70.898V70.014H45.591H49.255V73.15V76.286ZM65.187 70.944C65.187 71.979 65.018 72.868 64.682 73.608C64.345 74.349 63.84 74.943 63.167 75.389C62.619 75.749 61.946 76.019 61.148 76.199C60.35 76.379 59.426 76.469 58.377 76.469C57.216 76.469 56.206 76.365 55.349 76.157C54.491 75.949 53.785 75.637 53.231 75.221C52.623 74.764 52.167 74.169 51.864 73.436C51.56 72.702 51.408 71.831 51.408 70.821C51.408 69.994 51.544 69.259 51.815 68.614C52.086 67.97 52.492 67.417 53.035 66.954C53.624 66.452 54.36 66.076 55.242 65.824C56.123 65.573 57.151 65.448 58.324 65.448C59.616 65.448 60.718 65.568 61.63 65.809C62.541 66.051 63.262 66.412 63.792 66.894C64.257 67.321 64.606 67.871 64.838 68.546C65.07 69.221 65.187 70.02 65.187 70.944ZM62.005 70.882C62.005 70.36 61.932 69.891 61.786 69.475C61.64 69.059 61.421 68.696 61.129 68.386C60.802 68.041 60.396 67.782 59.911 67.609C59.425 67.437 58.861 67.35 58.217 67.35C57.586 67.35 57.032 67.443 56.556 67.628C56.079 67.814 55.68 68.092 55.357 68.462C55.089 68.772 54.888 69.128 54.754 69.531C54.62 69.935 54.553 70.385 54.553 70.882C54.553 71.456 54.607 71.954 54.714 72.378C54.822 72.802 54.983 73.151 55.197 73.425C55.495 73.806 55.92 74.091 56.471 74.281C57.022 74.471 57.7 74.566 58.504 74.566C59.183 74.566 59.76 74.474 60.237 74.289C60.713 74.104 61.088 73.826 61.363 73.456C61.577 73.166 61.738 72.807 61.845 72.378C61.952 71.95 62.005 71.451 62.005 70.882ZM82.235 65.981C82.735 66.144 83.183 66.391 83.579 66.723C83.975 67.056 84.319 67.473 84.611 67.974C84.879 68.437 85.08 68.929 85.214 69.452C85.348 69.974 85.415 70.527 85.415 71.11C85.415 71.735 85.341 72.319 85.192 72.862C85.043 73.405 84.819 73.907 84.521 74.369C84.2 74.876 83.817 75.281 83.374 75.582C82.93 75.884 82.425 76.083 81.859 76.18C81.638 76.215 81.404 76.242 81.157 76.26C80.91 76.278 80.65 76.286 80.376 76.286H77.007H73.639V70.958V65.63H76.819H80C80.375 65.63 80.749 65.66 81.121 65.718C81.494 65.777 81.865 65.864 82.235 65.981ZM82.556 71.157C82.556 70.665 82.513 70.217 82.426 69.814C82.34 69.41 82.21 69.051 82.037 68.736C81.817 68.34 81.541 68.044 81.207 67.846C80.874 67.648 80.484 67.549 80.037 67.549H78.295H76.552V70.997V74.445L78.411 74.452L80.269 74.46C80.674 74.46 81.027 74.37 81.328 74.19C81.628 74.01 81.877 73.74 82.073 73.38C82.234 73.085 82.355 72.753 82.435 72.382C82.516 72.012 82.556 71.603 82.556 71.157ZM90.66 76.286H88.989H87.319V70.958V65.63H88.989H90.66V70.958V76.286ZM105.127 76.286H103.563H101.999L101.472 75.069L100.945 73.852H98.363H95.78L95.217 75.069L94.655 76.286H93.109H91.563L94.127 70.958L96.692 65.63H98.219H99.747L101.627 69.354L102.437 70.958L105.127 76.286ZM99.98 71.993L99.131 70.121L98.283 68.249L97.461 70.122L96.639 71.994H98.309L99.98 71.993ZM119.145 72.984C119.145 73.45 119.054 73.88 118.873 74.274C118.691 74.667 118.419 75.024 118.056 75.344C117.692 75.663 117.28 75.903 116.818 76.063C116.356 76.223 115.845 76.302 115.285 76.302H110.863H106.44V75.343V74.384H110.085H113.73C113.975 74.384 114.2 74.36 114.405 74.311C114.611 74.263 114.797 74.19 114.964 74.093C115.155 73.981 115.298 73.848 115.393 73.694C115.489 73.541 115.536 73.173 115.536 73.173C115.536 72.72 115.348 72.38 114.973 72.153C114.597 71.926 114.034 71.812 113.284 71.812H111.444H109.604C109.073 71.812 108.575 71.742 108.11 71.602C107.645 71.463 107.213 71.254 106.815 70.974C106.415 70.695 106.116 70.378 105.917 70.023C105.717 69.667 105.617 69.274 105.617 68.842C105.618 68.366 105.715 67.934 105.911 67.547C106.106 67.16 106.398 66.818 106.788 66.521C107.178 66.224 107.63 66.002 108.144 65.853C108.658 65.705 109.233 65.63 109.871 65.63H114.097H118.324V66.544V67.457H114.597H110.871C110.704 67.457 110.537 67.487 110.369 67.547C110.201 67.607 110.032 67.696 109.863 67.816C109.692 67.935 109.565 68.065 109.48 68.205C109.394 68.346 109.352 68.498 109.352 68.66C109.352 68.842 109.393 69.01 109.475 69.163C109.557 69.317 109.681 69.456 109.845 69.581C110.009 69.706 110.189 69.799 110.387 69.861C110.585 69.923 110.8 69.954 111.032 69.954H113.06H115.089C115.72 69.954 116.284 70.023 116.779 70.161C117.275 70.299 117.703 70.507 118.064 70.784C118.425 71.061 118.695 71.382 118.875 71.749C119.056 72.116 119.146 72.527 119.145 72.984Z"
      />
      <path
        fillRule="evenodd"
        clipRule="evenodd"
        stroke="#E30016"
        strokeWidth="0.5"
        fill="#E30016"
        d="M108.44 67.064C70.053 48.335 46.824 40.784 8.54001 38.716L5.04001 41.489C38.138 41.663 67.022 50.085 108.44 67.064Z"
      />
      <path
        fillRule="evenodd"
        clipRule="evenodd"
        stroke="#E30016"
        strokeWidth="0.5"
        fill="#E30016"
        d="M103.712 66.824C64.65 50.349 41.772 44.072 3.68802 43.273L0 46.596C32.906 45.703 61.582 52.252 103.712 66.822V66.824Z"
      />
    </svg>